NotoSerifEthiopic-Condensed.ufo
<glyph name="hyphen" format="2">
  <advance width="265"/>
  <unicode hex="002D"/>
  <outline>
    <contour>
      <point x="22" y="236" type="line"/>
      <point x="244" y="236" type="line"/>
      <point x="244" y="309" type="line"/>
      <point x="22" y="309" type="line"/>
    </contour>
  </outline>
</glyph>
<glyph name="dieresiscomb" format="2">
  <unicode hex="0308"/>
  <anchor x="1" y="536" name="_top"/>
  <anchor x="1" y="745" name="top"/>
  <outline>
    <contour>
      <point x="79" y="638" type="curve" smooth="yes"/>
      <point x="103" y="638"/>
      <point x="124" y="651"/>
      <point x="124" y="691" type="curve" smooth="yes"/>
      <point x="124" y="731"/>
      <point x="103" y="745"/>
      <point x="79" y="745" type="curve" smooth="yes"/>
      <point x="53" y="745"/>
      <point x="34" y="731"/>
      <point x="34" y="691" type="curve" smooth="yes"/>
      <point x="34" y="651"/>
      <point x="53" y="638"/>
    </contour>
    <contour>
      <point x="-79" y="638" type="curve" smooth="yes"/>
      <point x="-55" y="638"/>
      <point x="-33" y="651"/>
      <point x="-33" y="691" type="curve" smooth="yes"/>
      <point x="-33" y="731"/>
      <point x="-55" y="745"/>
      <point x="-79" y="745" type="curve" smooth="yes"/>
      <point x="-104" y="745"/>
      <point x="-123" y="731"/>
      <point x="-123" y="691" type="curve" smooth="yes"/>
      <point x="-123" y="651"/>
      <point x="-104" y="638"/>
    </contour>
  </outline>
</glyph>
<glyph name="dblverticallineabovecomb" format="2">
  <unicode hex="030E"/>
  <anchor x="0" y="536" name="_top"/>
  <anchor x="0" y="760" name="top"/>
  <outline>
    <contour>
      <point x="-87" y="597" type="line"/>
      <point x="-36" y="597" type="line"/>
      <point x="-36" y="760" type="line"/>
      <point x="-87" y="760" type="line"/>
    </contour>
    <contour>
      <point x="37" y="597" type="line"/>
      <point x="87" y="597" type="line"/>
      <point x="87" y="760" type="line"/>
      <point x="37" y="760" type="line"/>
    </contour>
  </outline>
</glyph>
<glyph name="ha-ethiopic" format="2">
  <advance width="529"/>
  <unicode hex="1200"/>
  <note>
uni1200
</note>
  <anchor x="264" y="719" name="top"/>
  <outline>
    <contour>
      <point x="239" y="-12" type="curve" smooth="yes"/>
      <point x="374" y="-12"/>
      <point x="463" y="91"/>
      <point x="463" y="269" type="curve" smooth="yes"/>
      <point x="463" y="620" type="line" smooth="yes"/>
      <point x="463" y="662"/>
      <point x="458" y="698"/>
      <point x="444" y="718" type="curve"/>
      <point x="315" y="709" type="line"/>
      <point x="315" y="667" type="line"/>
      <point x="348" y="667"/>
      <point x="362" y="653"/>
      <point x="362" y="594" type="curve" smooth="yes"/>
      <point x="362" y="284" type="line" smooth="yes"/>
      <point x="362" y="104"/>
      <point x="321" y="36"/>
      <point x="253" y="36" type="curve" smooth="yes"/>
      <point x="200" y="36"/>
      <point x="181" y="87"/>
      <point x="181" y="182" type="curve" smooth="yes"/>
      <point x="181" y="306"/>
      <point x="183" y="468"/>
      <point x="183" y="620" type="curve" smooth="yes"/>
      <point x="183" y="668"/>
      <point x="178" y="698"/>
      <point x="164" y="718" type="curve"/>
      <point x="35" y="709" type="line"/>
      <point x="35" y="667" type="line"/>
      <point x="68" y="667"/>
      <point x="82" y="653"/>
      <point x="82" y="594" type="curve" smooth="yes"/>
      <point x="82" y="458"/>
      <point x="79" y="280"/>
      <point x="79" y="189" type="curve" smooth="yes"/>
      <point x="79" y="59"/>
      <point x="119" y="-12"/>
    </contour>
  </outline>
</glyph>
<glyph name="hi-ethiopic" format="2">
  <advance width="491"/>
  <unicode hex="1202"/>
  <note>
uni1202
</note>
  <anchor x="249" y="718" name="top"/>
  <outline>
    <contour>
      <point x="163" y="0" type="curve"/>
      <point x="299" y="0" type="line"/>
      <point x="299" y="50" type="line"/>
      <point x="281" y="50"/>
      <point x="273" y="60"/>
      <point x="273" y="77" type="curve" smooth="yes"/>
      <point x="273" y="86"/>
      <point x="276" y="97"/>
      <point x="280" y="110" type="curve" smooth="yes"/>
      <point x="406" y="512" type="line" smooth="yes"/>
      <point x="428" y="581"/>
      <point x="435" y="632"/>
      <point x="435" y="667" type="curve" smooth="yes"/>
      <point x="435" y="692"/>
      <point x="431" y="709"/>
      <point x="427" y="718" type="curve"/>
      <point x="294" y="709" type="line"/>
      <point x="294" y="667" type="line"/>
      <point x="317" y="667"/>
      <point x="328" y="651"/>
      <point x="328" y="620" type="curve" smooth="yes"/>
      <point x="328" y="596"/>
      <point x="321" y="563"/>
      <point x="308" y="521" type="curve" smooth="yes"/>
      <point x="273" y="407" type="line"/>
      <point x="264" y="403"/>
      <point x="248" y="399"/>
      <point x="226" y="399" type="curve" smooth="yes"/>
      <point x="187" y="399"/>
      <point x="166" y="436"/>
      <point x="166" y="495" type="curve" smooth="yes"/>
      <point x="166" y="531"/>
      <point x="170" y="591"/>
      <point x="170" y="635" type="curve" smooth="yes"/>
      <point x="170" y="670"/>
      <point x="163" y="698"/>
      <point x="150" y="718" type="curve"/>
      <point x="22" y="709" type="line"/>
      <point x="22" y="667" type="line"/>
      <point x="55" y="667"/>
      <point x="69" y="653"/>
      <point x="69" y="607" type="curve" smooth="yes"/>
      <point x="69" y="574"/>
      <point x="65" y="522"/>
      <point x="65" y="493" type="curve" smooth="yes"/>
      <point x="65" y="420"/>
      <point x="95" y="348"/>
      <point x="185" y="348" type="curve" smooth="yes"/>
      <point x="211" y="348"/>
      <point x="238" y="351"/>
      <point x="255" y="356" type="curve"/>
      <point x="171" y="100" type="line" smooth="yes"/>
      <point x="162" y="72"/>
      <point x="157" y="47"/>
      <point x="157" y="29" type="curve" smooth="yes"/>
      <point x="157" y="16"/>
      <point x="159" y="6"/>
    </contour>
    <component base="rightdoubleflag" xOffset="253"/>
  </outline>
</glyph>
<glyph name="haa-ethiopic" format="2">
  <advance width="470"/>
  <unicode hex="1203"/>
  <note>
uni1203
</note>
  <anchor x="228" y="718" name="top"/>
  <outline>
    <contour>
      <point x="163" y="-5" type="curve"/>
      <point x="299" y="4" type="line"/>
      <point x="299" y="44" type="line"/>
      <point x="281" y="44"/>
      <point x="272" y="54"/>
      <point x="272" y="73" type="curve" smooth="yes"/>
      <point x="272" y="83"/>
      <point x="275" y="96"/>
      <point x="280" y="111" type="curve" smooth="yes"/>
      <point x="406" y="512" type="line" smooth="yes"/>
      <point x="427" y="580"/>
      <point x="435" y="630"/>
      <point x="435" y="665" type="curve" smooth="yes"/>
      <point x="435" y="691"/>
      <point x="431" y="708"/>
      <point x="427" y="718" type="curve"/>
      <point x="294" y="709" type="line"/>
      <point x="294" y="669" type="line"/>
      <point x="317" y="669"/>
      <point x="327" y="653"/>
      <point x="327" y="621" type="curve" smooth="yes"/>
      <point x="327" y="597"/>
      <point x="321" y="563"/>
      <point x="308" y="521" type="curve" smooth="yes"/>
      <point x="273" y="407" type="line"/>
      <point x="264" y="403"/>
      <point x="248" y="399"/>
      <point x="226" y="399" type="curve" smooth="yes"/>
      <point x="187" y="399"/>
      <point x="166" y="436"/>
      <point x="166" y="495" type="curve" smooth="yes"/>
      <point x="166" y="531"/>
      <point x="170" y="591"/>
      <point x="170" y="635" type="curve" smooth="yes"/>
      <point x="170" y="670"/>
      <point x="163" y="698"/>
      <point x="150" y="718" type="curve"/>
      <point x="22" y="709" type="line"/>
      <point x="22" y="669" type="line"/>
      <point x="55" y="669"/>
      <point x="69" y="655"/>
      <point x="69" y="607" type="curve" smooth="yes"/>
      <point x="69" y="574"/>
      <point x="65" y="522"/>
      <point x="65" y="493" type="curve" smooth="yes"/>
      <point x="65" y="420"/>
      <point x="95" y="348"/>
      <point x="185" y="348" type="curve" smooth="yes"/>
      <point x="211" y="348"/>
      <point x="238" y="351"/>
      <point x="255" y="356" type="curve"/>
      <point x="171" y="101" type="line" smooth="yes"/>
      <point x="162" y="73"/>
      <point x="157" y="47"/>
      <point x="157" y="27" type="curve" smooth="yes"/>
      <point x="157" y="13"/>
      <point x="159" y="1"/>
    </contour>
  </outline>
</glyph>
<glyph name="hee-ethiopic" format="2">
  <advance width="504"/>
  <unicode hex="1204"/>
  <note>
uni1204
</note>
  <anchor x="255" y="718" name="top"/>
  <outline>
    <contour>
      <point x="214" y="0" type="curve"/>
      <point x="363" y="0" type="line" smooth="yes"/>
      <point x="445" y="0"/>
      <point x="489" y="57"/>
      <point x="489" y="126" type="curve" smooth="yes"/>
      <point x="489" y="191"/>
      <point x="452" y="222"/>
      <point x="375" y="222" type="curve" smooth="yes"/>
      <point x="312" y="222" type="line"/>
      <point x="407" y="512" type="line" smooth="yes"/>
      <point x="430" y="581"/>
      <point x="436" y="631"/>
      <point x="436" y="666" type="curve" smooth="yes"/>
      <point x="436" y="692"/>
      <point x="432" y="709"/>
      <point x="427" y="718" type="curve"/>
      <point x="296" y="709" type="line"/>
      <point x="296" y="669" type="line"/>
      <point x="318" y="669"/>
      <point x="329" y="653"/>
      <point x="329" y="622" type="curve" smooth="yes"/>
      <point x="329" y="597"/>
      <point x="322" y="563"/>
      <point x="309" y="521" type="curve" smooth="yes"/>
      <point x="272" y="406" type="line"/>
      <point x="259" y="401"/>
      <point x="246" y="399"/>
      <point x="232" y="399" type="curve" smooth="yes"/>
      <point x="188" y="399"/>
      <point x="166" y="427"/>
      <point x="166" y="479" type="curve" smooth="yes"/>
      <point x="166" y="525"/>
      <point x="170" y="591"/>
      <point x="170" y="635" type="curve" smooth="yes"/>
      <point x="170" y="670"/>
      <point x="163" y="698"/>
      <point x="150" y="718" type="curve"/>
      <point x="22" y="709" type="line"/>
      <point x="22" y="669" type="line"/>
      <point x="55" y="669"/>
      <point x="69" y="655"/>
      <point x="69" y="607" type="curve" smooth="yes"/>
      <point x="69" y="574"/>
      <point x="65" y="512"/>
      <point x="65" y="483" type="curve" smooth="yes"/>
      <point x="65" y="390"/>
      <point x="112" y="349"/>
      <point x="197" y="349" type="curve" smooth="yes"/>
      <point x="219" y="349"/>
      <point x="242" y="352"/>
      <point x="256" y="356" type="curve"/>
      <point x="190" y="159" type="line" smooth="yes"/>
      <point x="179" y="127"/>
      <point x="175" y="100"/>
      <point x="175" y="78" type="curve" smooth="yes"/>
      <point x="175" y="37"/>
      <point x="190" y="12"/>
    </contour>
    <contour>
      <point x="310" y="42" type="line" smooth="yes"/>
      <point x="287" y="42"/>
      <point x="275" y="57"/>
      <point x="275" y="86" type="curve" smooth="yes"/>
      <point x="275" y="98"/>
      <point x="278" y="113"/>
      <point x="284" y="131" type="curve" smooth="yes"/>
      <point x="301" y="184" type="line"/>
      <point x="342" y="184" type="line" smooth="yes"/>
      <point x="380" y="184"/>
      <point x="397" y="166"/>
      <point x="397" y="122" type="curve" smooth="yes"/>
      <point x="397" y="66"/>
      <point x="369" y="42"/>
      <point x="325" y="42" type="curve" smooth="yes"/>
    </contour>
  </outline>
</glyph>
<glyph name="he-ethiopic" format="2">
  <advance width="583"/>
  <unicode hex="1205"/>
  <note>
uni1205
</note>
  <anchor x="299" y="718" name="top"/>
  <outline>
    <contour>
      <point x="293" y="-12" type="curve" smooth="yes"/>
      <point x="428" y="-12"/>
      <point x="517" y="80"/>
      <point x="517" y="259" type="curve" smooth="yes"/>
      <point x="517" y="620" type="line" smooth="yes"/>
      <point x="517" y="662"/>
      <point x="512" y="698"/>
      <point x="498" y="718" type="curve"/>
      <point x="369" y="709" type="line"/>
      <point x="369" y="667" type="line"/>
      <point x="402" y="667"/>
      <point x="416" y="653"/>
      <point x="416" y="594" type="curve" smooth="yes"/>
      <point x="416" y="284" type="line" smooth="yes"/>
      <point x="416" y="104"/>
      <point x="375" y="36"/>
      <point x="306" y="36" type="curve" smooth="yes"/>
      <point x="254" y="36"/>
      <point x="234" y="87"/>
      <point x="234" y="182" type="curve" smooth="yes"/>
      <point x="234" y="271"/>
      <point x="236" y="401"/>
      <point x="236" y="464" type="curve" smooth="yes"/>
      <point x="236" y="506"/>
      <point x="216" y="531"/>
      <point x="179" y="531" type="curve" smooth="yes"/>
      <point x="164" y="531" type="line"/>
      <point x="164" y="635" type="line" smooth="yes"/>
      <point x="164" y="676"/>
      <point x="158" y="702"/>
      <point x="141" y="718" type="curve"/>
      <point x="28" y="709" type="line"/>
      <point x="28" y="669" type="line"/>
      <point x="52" y="669"/>
      <point x="65" y="652"/>
      <point x="65" y="607" type="curve" smooth="yes"/>
      <point x="65" y="478" type="line"/>
      <point x="96" y="478" type="line" smooth="yes"/>
      <point x="121" y="478"/>
      <point x="136" y="466"/>
      <point x="136" y="421" type="curve" smooth="yes"/>
      <point x="136" y="364"/>
      <point x="133" y="264"/>
      <point x="133" y="189" type="curve" smooth="yes"/>
      <point x="133" y="59"/>
      <point x="173" y="-12"/>
    </contour>
  </outline>
</glyph>
<glyph name="ho-ethiopic" format="2">
  <advance width="669"/>
  <unicode hex="1206"/>
  <note>
uni1206
</note>
  <anchor x="349" y="718" name="top"/>
  <outline>
    <contour>
      <point x="239" y="-12" type="curve" smooth="yes"/>
      <point x="374" y="-12"/>
      <point x="463" y="81"/>
      <point x="463" y="260" type="curve" smooth="yes"/>
      <point x="463" y="495" type="line"/>
      <point x="472" y="490"/>
      <point x="482" y="487"/>
      <point x="492" y="487" type="curve" smooth="yes"/>
      <point x="539" y="487" type="line" smooth="yes"/>
      <point x="621" y="487"/>
      <point x="664" y="544"/>
      <point x="664" y="613" type="curve" smooth="yes"/>
      <point x="664" y="678"/>
      <point x="628" y="709"/>
      <point x="551" y="709" type="curve" smooth="yes"/>
      <point x="362" y="709" type="line"/>
      <point x="362" y="285" type="line" smooth="yes"/>
      <point x="362" y="105"/>
      <point x="321" y="36"/>
      <point x="253" y="36" type="curve" smooth="yes"/>
      <point x="200" y="36"/>
      <point x="181" y="88"/>
      <point x="181" y="183" type="curve" smooth="yes"/>
      <point x="181" y="307"/>
      <point x="183" y="468"/>
      <point x="183" y="620" type="curve" smooth="yes"/>
      <point x="183" y="668"/>
      <point x="178" y="698"/>
      <point x="164" y="718" type="curve"/>
      <point x="35" y="709" type="line"/>
      <point x="35" y="667" type="line"/>
      <point x="68" y="667"/>
      <point x="82" y="653"/>
      <point x="82" y="594" type="curve" smooth="yes"/>
      <point x="82" y="458"/>
      <point x="79" y="281"/>
      <point x="79" y="190" type="curve" smooth="yes"/>
      <point x="79" y="60"/>
      <point x="119" y="-12"/>
    </contour>
    <contour>
      <point x="512" y="522" type="curve" smooth="yes"/>
      <point x="479" y="522"/>
      <point x="463" y="544"/>
      <point x="463" y="607" type="curve" smooth="yes"/>
      <point x="463" y="671" type="line"/>
      <point x="517" y="671" type="line" smooth="yes"/>
      <point x="555" y="671"/>
      <point x="572" y="653"/>
      <point x="572" y="609" type="curve" smooth="yes"/>
      <point x="572" y="553"/>
      <point x="551" y="522"/>
    </contour>
  </outline>
</glyph>
<glyph name="la-ethiopic" format="2">
  <advance width="565"/>
  <unicode hex="1208"/>
  <note>
uni1208
</note>
  <anchor x="299" y="714" name="top"/>
  <outline>
    <contour>
      <point x="96" y="-4" type="curve"/>
      <point x="214" y="5" type="line"/>
      <point x="214" y="47" type="line"/>
      <point x="178" y="50"/>
      <point x="155" y="90"/>
      <point x="155" y="163" type="curve" smooth="yes"/>
      <point x="155" y="297"/>
      <point x="190" y="405"/>
      <point x="262" y="496" type="curve"/>
      <point x="375" y="119" type="line" smooth="yes"/>
      <point x="397" y="47"/>
      <point x="413" y="16"/>
      <point x="435" y="-4" type="curve"/>
      <point x="544" y="5" type="line"/>
      <point x="544" y="47" type="line"/>
      <point x="507" y="47"/>
      <point x="489" y="75"/>
      <point x="469" y="140" type="curve" smooth="yes"/>
      <point x="294" y="714" type="line"/>
      <point x="191" y="714" type="line"/>
      <point x="239" y="561" type="line"/>
      <point x="122" y="456"/>
      <point x="54" y="308"/>
      <point x="54" y="150" type="curve" smooth="yes"/>
      <point x="54" y="68"/>
      <point x="75" y="23"/>
    </contour>
  </outline>
</glyph>
<glyph name="li-ethiopic" format="2">
  <advance width="728"/>
  <unicode hex="120A"/>
  <note>
uni120A
</note>
  <anchor x="383" y="714" name="top"/>
  <outline>
    <contour>
      <point x="96" y="-4" type="curve"/>
      <point x="214" y="5" type="line"/>
      <point x="214" y="47" type="line"/>
      <point x="178" y="50"/>
      <point x="155" y="90"/>
      <point x="155" y="163" type="curve" smooth="yes"/>
      <point x="155" y="297"/>
      <point x="190" y="405"/>
      <point x="262" y="496" type="curve"/>
      <point x="375" y="119" type="line" smooth="yes"/>
      <point x="397" y="47"/>
      <point x="412" y="20"/>
      <point x="434" y="0" type="curve"/>
      <point x="568" y="0" type="line"/>
      <point x="568" y="50" type="line"/>
      <point x="544" y="50" type="line" smooth="yes"/>
      <point x="511" y="50"/>
      <point x="493" y="75"/>
      <point x="473" y="140" type="curve" smooth="yes"/>
      <point x="298" y="714" type="line"/>
      <point x="191" y="714" type="line"/>
      <point x="239" y="561" type="line"/>
      <point x="122" y="456"/>
      <point x="54" y="308"/>
      <point x="54" y="150" type="curve" smooth="yes"/>
      <point x="54" y="68"/>
      <point x="75" y="23"/>
    </contour>
    <component base="rightdoubleflag" xOffset="490"/>
  </outline>
</glyph>
<glyph name="laa-ethiopic" format="2">
  <advance width="557"/>
  <unicode hex="120B"/>
  <note>
uni120B
</note>
  <anchor x="289" y="714" name="top"/>
  <outline>
    <contour>
      <point x="423" y="-4" type="curve"/>
      <point x="536" y="5" type="line"/>
      <point x="536" y="47" type="line"/>
      <point x="499" y="47"/>
      <point x="480" y="75"/>
      <point x="460" y="140" type="curve" smooth="yes"/>
      <point x="285" y="714" type="line"/>
      <point x="180" y="714" type="line"/>
      <point x="227" y="561" type="line"/>
      <point x="110" y="494"/>
      <point x="42" y="411"/>
      <point x="42" y="299" type="curve" smooth="yes"/>
      <point x="42" y="236"/>
      <point x="62" y="192"/>
      <point x="84" y="165" type="curve"/>
      <point x="199" y="174" type="line"/>
      <point x="199" y="216" type="line"/>
      <point x="165" y="219"/>
      <point x="143" y="249"/>
      <point x="143" y="311" type="curve" smooth="yes"/>
      <point x="143" y="395"/>
      <point x="183" y="453"/>
      <point x="250" y="496" type="curve"/>
      <point x="363" y="119" type="line" smooth="yes"/>
      <point x="385" y="47"/>
      <point x="401" y="16"/>
    </contour>
  </outline>
</glyph>
<glyph name="lee-ethiopic" format="2">
  <advance width="676"/>
  <unicode hex="120C"/>
  <note>
uni120C
</note>
  <anchor x="357" y="714" name="top"/>
  <outline>
    <contour>
      <point x="96" y="-4" type="curve"/>
      <point x="214" y="5" type="line"/>
      <point x="214" y="47" type="line"/>
      <point x="178" y="50"/>
      <point x="155" y="90"/>
      <point x="155" y="163" type="curve" smooth="yes"/>
      <point x="155" y="297"/>
      <point x="190" y="405"/>
      <point x="262" y="496" type="curve"/>
      <point x="375" y="119" type="line" smooth="yes"/>
      <point x="397" y="47"/>
      <point x="417" y="0"/>
      <point x="458" y="0" type="curve"/>
      <point x="544" y="0" type="line" smooth="yes"/>
      <point x="620" y="0"/>
      <point x="661" y="57"/>
      <point x="661" y="126" type="curve" smooth="yes"/>
      <point x="661" y="191"/>
      <point x="625" y="222"/>
      <point x="554" y="222" type="curve" smooth="yes"/>
      <point x="446" y="222" type="line"/>
      <point x="298" y="714" type="line"/>
      <point x="191" y="714" type="line"/>
      <point x="239" y="561" type="line"/>
      <point x="122" y="456"/>
      <point x="54" y="308"/>
      <point x="54" y="150" type="curve" smooth="yes"/>
      <point x="54" y="68"/>
      <point x="75" y="23"/>
    </contour>
    <contour>
      <point x="529" y="42" type="curve" smooth="yes"/>
      <point x="502" y="42"/>
      <point x="493" y="61"/>
      <point x="473" y="129" type="curve" smooth="yes"/>
      <point x="457" y="184" type="line"/>
      <point x="523" y="184" type="line" smooth="yes"/>
      <point x="553" y="184"/>
      <point x="572" y="165"/>
      <point x="572" y="117" type="curve" smooth="yes"/>
      <point x="572" y="74"/>
      <point x="560" y="42"/>
    </contour>
  </outline>
</glyph>
<glyph name="le-ethiopic" format="2">
  <advance width="592"/>
  <unicode hex="120D"/>
  <note>
uni120D
</note>
  <anchor x="312" y="714" name="top"/>
  <outline>
    <contour>
      <point x="458" y="-4" type="curve"/>
      <point x="571" y="5" type="line"/>
      <point x="571" y="47" type="line"/>
      <point x="534" y="47"/>
      <point x="516" y="75"/>
      <point x="496" y="140" type="curve" smooth="yes"/>
      <point x="321" y="714" type="line"/>
      <point x="213" y="714" type="line"/>
      <point x="261" y="561" type="line"/>
      <point x="130" y="469"/>
      <point x="54" y="318"/>
      <point x="54" y="150" type="curve" smooth="yes"/>
      <point x="54" y="47"/>
      <point x="86" y="13"/>
      <point x="121" y="0" type="curve"/>
      <point x="210" y="0" type="line" smooth="yes"/>
      <point x="286" y="0"/>
      <point x="327" y="57"/>
      <point x="327" y="126" type="curve" smooth="yes"/>
      <point x="327" y="191"/>
      <point x="290" y="222"/>
      <point x="219" y="222" type="curve" smooth="yes"/>
      <point x="161" y="222" type="line"/>
      <point x="176" y="335"/>
      <point x="218" y="425"/>
      <point x="290" y="496" type="curve"/>
      <point x="398" y="119" type="line" smooth="yes"/>
      <point x="419" y="47"/>
      <point x="436" y="16"/>
    </contour>
    <contour>
      <point x="193" y="35" type="curve" smooth="yes"/>
      <point x="175" y="35"/>
      <point x="153" y="53"/>
      <point x="153" y="144" type="curve" smooth="yes"/>
      <point x="153" y="158"/>
      <point x="153" y="171"/>
      <point x="154" y="184" type="curve"/>
      <point x="192" y="184" type="line" smooth="yes"/>
      <point x="218" y="184"/>
      <point x="237" y="166"/>
      <point x="237" y="122" type="curve" smooth="yes"/>
      <point x="237" y="66"/>
      <point x="224" y="35"/>
    </contour>
  </outline>
</glyph>
<glyph name="lwa-ethiopic" format="2">
  <advance width="696"/>
  <unicode hex="120F"/>
  <note>
uni120F
</note>
  <anchor x="361" y="714" name="top"/>
  <outline>
    <contour>
      <point x="382" y="47" type="line"/>
      <point x="489" y="47" type="line"/>
      <point x="285" y="714" type="line"/>
      <point x="177" y="714" type="line"/>
      <point x="227" y="561" type="line"/>
      <point x="110" y="494"/>
      <point x="42" y="411"/>
      <point x="42" y="299" type="curve" smooth="yes"/>
      <point x="42" y="236"/>
      <point x="62" y="192"/>
      <point x="84" y="165" type="curve"/>
      <point x="199" y="174" type="line"/>
      <point x="199" y="216" type="line"/>
      <point x="165" y="219"/>
      <point x="143" y="249"/>
      <point x="143" y="311" type="curve" smooth="yes"/>
      <point x="143" y="395"/>
      <point x="187" y="453"/>
      <point x="254" y="496" type="curve"/>
    </contour>
    <component base="footright" xOffset="154"/>
  </outline>
</glyph>
<glyph name="hha-ethiopic" format="2">
  <advance width="686"/>
  <unicode hex="1210"/>
  <note>
uni1210
</note>
  <anchor x="359" y="718" name="top"/>
  <outline>
    <contour>
      <point x="75" y="-5" type="curve"/>
      <point x="196" y="4" type="line"/>
      <point x="196" y="44" type="line"/>
      <point x="165" y="45"/>
      <point x="149" y="65"/>
      <point x="149" y="129" type="curve" smooth="yes"/>
      <point x="149" y="307"/>
      <point x="203" y="395"/>
      <point x="350" y="395" type="curve" smooth="yes"/>
      <point x="485" y="395"/>
      <point x="526" y="332"/>
      <point x="526" y="232" type="curve" smooth="yes"/>
      <point x="526" y="195"/>
      <point x="524" y="125"/>
      <point x="524" y="81" type="curve" smooth="yes"/>
      <point x="524" y="42"/>
      <point x="529" y="16"/>
      <point x="542" y="-5" type="curve"/>
      <point x="666" y="4" type="line"/>
      <point x="666" y="44" type="line"/>
      <point x="635" y="46"/>
      <point x="621" y="62"/>
      <point x="621" y="129" type="curve" smooth="yes"/>
      <point x="621" y="156"/>
      <point x="623" y="208"/>
      <point x="623" y="235" type="curve" smooth="yes"/>
      <point x="623" y="350"/>
      <point x="568" y="443"/>
      <point x="357" y="443" type="curve" smooth="yes"/>
      <point x="143" y="443"/>
      <point x="52" y="315"/>
      <point x="52" y="121" type="curve" smooth="yes"/>
      <point x="52" y="52"/>
      <point x="64" y="15"/>
    </contour>
    <component base="stem1" xOffset="203"/>
  </outline>
</glyph>
<glyph name="hhi-ethiopic" format="2">
  <advance width="865"/>
  <unicode hex="1212"/>
  <note>
uni1212
</note>
  <anchor x="451" y="718" name="top"/>
  <outline>
    <contour>
      <point x="75" y="-5" type="curve"/>
      <point x="196" y="4" type="line"/>
      <point x="196" y="44" type="line"/>
      <point x="165" y="45"/>
      <point x="149" y="65"/>
      <point x="149" y="129" type="curve" smooth="yes"/>
      <point x="149" y="307"/>
      <point x="203" y="395"/>
      <point x="350" y="395" type="curve" smooth="yes"/>
      <point x="485" y="395"/>
      <point x="526" y="332"/>
      <point x="526" y="232" type="curve" smooth="yes"/>
      <point x="526" y="195"/>
      <point x="524" y="125"/>
      <point x="524" y="81" type="curve" smooth="yes"/>
      <point x="524" y="42"/>
      <point x="529" y="19"/>
      <point x="539" y="0" type="curve"/>
      <point x="666" y="0" type="line"/>
      <point x="666" y="50" type="line"/>
      <point x="635" y="50"/>
      <point x="621" y="68"/>
      <point x="621" y="129" type="curve" smooth="yes"/>
      <point x="621" y="156"/>
      <point x="623" y="208"/>
      <point x="623" y="235" type="curve" smooth="yes"/>
      <point x="623" y="350"/>
      <point x="568" y="443"/>
      <point x="357" y="443" type="curve" smooth="yes"/>
      <point x="143" y="443"/>
      <point x="52" y="315"/>
      <point x="52" y="121" type="curve" smooth="yes"/>
      <point x="52" y="52"/>
      <point x="64" y="15"/>
    </contour>
    <component base="stem1" xOffset="202"/>
    <component base="rightdoubleflag" xOffset="627"/>
  </outline>
</glyph>
<glyph name="hhaa-ethiopic" format="2">
  <advance width="659"/>
  <unicode hex="1213"/>
  <note>
uni1213
</note>
  <anchor x="338" y="718" name="top"/>
  <outline>
    <contour>
      <point x="514" y="-5" type="curve"/>
      <point x="639" y="4" type="line"/>
      <point x="639" y="47" type="line"/>
      <point x="608" y="49"/>
      <point x="594" y="65"/>
      <point x="594" y="129" type="curve" smooth="yes"/>
      <point x="594" y="156"/>
      <point x="596" y="208"/>
      <point x="596" y="235" type="curve" smooth="yes"/>
      <point x="596" y="345"/>
      <point x="547" y="435"/>
      <point x="364" y="442" type="curve"/>
      <point x="364" y="647" type="line" smooth="yes"/>
      <point x="364" y="678"/>
      <point x="355" y="707"/>
      <point x="341" y="718" type="curve"/>
      <point x="228" y="709" type="line"/>
      <point x="228" y="670" type="line"/>
      <point x="251" y="670"/>
      <point x="265" y="650"/>
      <point x="265" y="611" type="curve" smooth="yes"/>
      <point x="265" y="440" type="line"/>
      <point x="111" y="422"/>
      <point x="37" y="326"/>
      <point x="37" y="219" type="curve" smooth="yes"/>
      <point x="37" y="183"/>
      <point x="43" y="165"/>
      <point x="50" y="144" type="curve"/>
      <point x="182" y="153" type="line"/>
      <point x="182" y="195" type="line"/>
      <point x="151" y="196"/>
      <point x="135" y="216"/>
      <point x="135" y="247" type="curve" smooth="yes"/>
      <point x="135" y="320"/>
      <point x="174" y="380"/>
      <point x="265" y="392" type="curve"/>
      <point x="265" y="221" type="line" smooth="yes"/>
      <point x="265" y="183"/>
      <point x="274" y="160"/>
      <point x="288" y="143" type="curve"/>
      <point x="403" y="152" type="line"/>
      <point x="403" y="191" type="line"/>
      <point x="379" y="191"/>
      <point x="364" y="204"/>
      <point x="364" y="258" type="curve" smooth="yes"/>
      <point x="364" y="394" type="line"/>
      <point x="467" y="384"/>
      <point x="498" y="324"/>
      <point x="498" y="232" type="curve" smooth="yes"/>
      <point x="498" y="195"/>
      <point x="497" y="125"/>
      <point x="497" y="81" type="curve" smooth="yes"/>
      <point x="497" y="42"/>
      <point x="502" y="16"/>
    </contour>
  </outline>
</glyph>
<glyph name="hhee-ethiopic" format="2">
  <advance width="838"/>
  <unicode hex="1214"/>
  <note>
uni1214
</note>
  <anchor x="437" y="718" name="top"/>
  <outline>
    <contour>
      <point x="75" y="-5" type="curve"/>
      <point x="196" y="4" type="line"/>
      <point x="196" y="44" type="line"/>
      <point x="165" y="45"/>
      <point x="149" y="65"/>
      <point x="149" y="129" type="curve" smooth="yes"/>
      <point x="149" y="307"/>
      <point x="203" y="395"/>
      <point x="344" y="395" type="curve" smooth="yes"/>
      <point x="475" y="395"/>
      <point x="525" y="332"/>
      <point x="525" y="232" type="curve" smooth="yes"/>
      <point x="525" y="113" type="line" smooth="yes"/>
      <point x="525" y="45"/>
      <point x="555" y="13"/>
      <point x="611" y="0" type="curve"/>
      <point x="697" y="0" type="line" smooth="yes"/>
      <point x="779" y="0"/>
      <point x="823" y="57"/>
      <point x="823" y="126" type="curve" smooth="yes"/>
      <point x="823" y="191"/>
      <point x="786" y="222"/>
      <point x="709" y="222" type="curve" smooth="yes"/>
      <point x="621" y="222" type="line"/>
      <point x="618" y="374"/>
      <point x="538" y="443"/>
      <point x="351" y="443" type="curve" smooth="yes"/>
      <point x="143" y="443"/>
      <point x="52" y="315"/>
      <point x="52" y="121" type="curve" smooth="yes"/>
      <point x="52" y="52"/>
      <point x="64" y="15"/>
    </contour>
    <contour>
      <point x="670" y="35" type="curve" smooth="yes"/>
      <point x="638" y="35"/>
      <point x="621" y="57"/>
      <point x="621" y="120" type="curve" smooth="yes"/>
      <point x="621" y="184" type="line"/>
      <point x="675" y="184" type="line" smooth="yes"/>
      <point x="713" y="184"/>
      <point x="730" y="166"/>
      <point x="730" y="122" type="curve" smooth="yes"/>
      <point x="730" y="66"/>
      <point x="709" y="35"/>
    </contour>
    <component base="stem1" xOffset="203"/>
  </outline>
</glyph>
<glyph name="hhe-ethiopic" format="2">
  <advance width="686"/>
  <unicode hex="1215"/>
  <note>
uni1215
</note>
  <anchor x="359" y="824" name="top"/>
  <outline>
    <contour>
      <point x="75" y="-5" type="curve"/>
      <point x="196" y="4" type="line"/>
      <point x="196" y="44" type="line"/>
      <point x="165" y="45"/>
      <point x="149" y="65"/>
      <point x="149" y="129" type="curve" smooth="yes"/>
      <point x="149" y="282"/>
      <point x="189" y="368"/>
      <point x="293" y="390" type="curve"/>
      <point x="293" y="73" type="line" smooth="yes"/>
      <point x="293" y="35"/>
      <point x="302" y="12"/>
      <point x="316" y="-5" type="curve"/>
      <point x="431" y="4" type="line"/>
      <point x="431" y="44" type="line"/>
      <point x="406" y="44"/>
      <point x="392" y="57"/>
      <point x="392" y="111" type="curve" smooth="yes"/>
      <point x="392" y="393" type="line"/>
      <point x="494" y="380"/>
      <point x="526" y="321"/>
      <point x="526" y="232" type="curve" smooth="yes"/>
      <point x="526" y="195"/>
      <point x="524" y="125"/>
      <point x="524" y="81" type="curve" smooth="yes"/>
      <point x="524" y="42"/>
      <point x="529" y="16"/>
      <point x="542" y="-5" type="curve"/>
      <point x="666" y="4" type="line"/>
      <point x="666" y="44" type="line"/>
      <point x="635" y="46"/>
      <point x="621" y="62"/>
      <point x="621" y="129" type="curve" smooth="yes"/>
      <point x="621" y="156"/>
      <point x="623" y="208"/>
      <point x="623" y="235" type="curve" smooth="yes"/>
      <point x="623" y="343"/>
      <point x="574" y="432"/>
      <point x="392" y="442" type="curve"/>
      <point x="392" y="647" type="line" smooth="yes"/>
      <point x="392" y="678"/>
      <point x="383" y="708"/>
      <point x="369" y="719" type="curve"/>
      <point x="210" y="719" type="line"/>
      <point x="210" y="726"/>
      <point x="211" y="733"/>
      <point x="211" y="742" type="curve" smooth="yes"/>
      <point x="211" y="788"/>
      <point x="183" y="824"/>
      <point x="131" y="824" type="curve" smooth="yes"/>
      <point x="112" y="824"/>
      <point x="94" y="818"/>
      <point x="82" y="808" type="curve"/>
      <point x="99" y="791"/>
      <point x="109" y="761"/>
      <point x="109" y="725" type="curve" smooth="yes"/>
      <point x="109" y="701"/>
      <point x="105" y="678"/>
      <point x="101" y="669" type="curve"/>
      <point x="256" y="669" type="line" smooth="yes"/>
      <point x="279" y="669"/>
      <point x="293" y="649"/>
      <point x="293" y="610" type="curve" smooth="yes"/>
      <point x="293" y="439" type="line"/>
      <point x="125" y="415"/>
      <point x="52" y="294"/>
      <point x="52" y="121" type="curve" smooth="yes"/>
      <point x="52" y="52"/>
      <point x="64" y="15"/>
    </contour>
  </outline>
</glyph>
<glyph name="hho-ethiopic" format="2">
  <advance width="682"/>
  <unicode hex="1216"/>
  <note>
uni1216
</note>
  <anchor x="359" y="718" name="top"/>
  <outline>
    <contour>
      <point x="75" y="-5" type="curve"/>
      <point x="196" y="4" type="line"/>
      <point x="196" y="47" type="line"/>
      <point x="165" y="48"/>
      <point x="149" y="68"/>
      <point x="149" y="137" type="curve" smooth="yes"/>
      <point x="149" y="311"/>
      <point x="211" y="397"/>
      <point x="354" y="397" type="curve" smooth="yes"/>
      <point x="475" y="397"/>
      <point x="523" y="344"/>
      <point x="523" y="253" type="curve" smooth="yes"/>
      <point x="523" y="241"/>
      <point x="523" y="225"/>
      <point x="523" y="212" type="curve" smooth="yes"/>
      <point x="523" y="183"/>
      <point x="527" y="160"/>
      <point x="538" y="142" type="curve"/>
      <point x="666" y="151" type="line"/>
      <point x="666" y="194" type="line"/>
      <point x="635" y="196"/>
      <point x="623" y="204"/>
      <point x="623" y="235" type="curve" smooth="yes"/>
      <point x="623" y="243"/>
      <point x="623" y="251"/>
      <point x="623" y="259" type="curve" smooth="yes"/>
      <point x="623" y="351"/>
      <point x="556" y="443"/>
      <point x="358" y="443" type="curve" smooth="yes"/>
      <point x="157" y="443"/>
      <point x="52" y="331"/>
      <point x="52" y="121" type="curve" smooth="yes"/>
      <point x="52" y="52"/>
      <point x="64" y="15"/>
    </contour>
    <contour>
      <point x="315" y="142" type="curve"/>
      <point x="430" y="151" type="line"/>
      <point x="430" y="191" type="line"/>
      <point x="405" y="191"/>
      <point x="391" y="204"/>
      <point x="391" y="258" type="curve" smooth="yes"/>
      <point x="391" y="647" type="line" smooth="yes"/>
      <point x="391" y="678"/>
      <point x="382" y="707"/>
      <point x="368" y="718" type="curve"/>
      <point x="255" y="709" type="line"/>
      <point x="255" y="670" type="line"/>
      <point x="278" y="670"/>
      <point x="292" y="650"/>
      <point x="292" y="611" type="curve" smooth="yes"/>
      <point x="292" y="221" type="line" smooth="yes"/>
      <point x="292" y="182"/>
      <point x="301" y="159"/>
    </contour>
  </outline>
</glyph>
<glyph name="ma-ethiopic" format="2">
  <advance width="804"/>
  <unicode hex="1218"/>
  <note>
uni1218
</note>
  <anchor x="403" y="714" name="top"/>
  <outline>
    <contour>
      <point x="217" y="134" type="curve" smooth="yes"/>
      <point x="286" y="134"/>
      <point x="340" y="162"/>
      <point x="370" y="182" type="curve"/>
      <point x="370" y="665" type="line"/>
      <point x="455" y="665" type="line"/>
      <point x="455" y="193" type="line"/>
      <point x="578" y="193" type="line" smooth="yes"/>
      <point x="701" y="193"/>
      <point x="769" y="306"/>
      <point x="769" y="472" type="curve" smooth="yes"/>
      <point x="769" y="635"/>
      <point x="694" y="714"/>
      <point x="583" y="714" type="curve" smooth="yes"/>
      <point x="266" y="714" type="line" smooth="yes"/>
      <point x="118" y="714"/>
      <point x="38" y="568"/>
      <point x="38" y="405" type="curve" smooth="yes"/>
      <point x="38" y="234"/>
      <point x="103" y="134"/>
    </contour>
    <contour>
      <point x="232" y="186" type="curve" smooth="yes"/>
      <point x="176" y="186"/>
      <point x="136" y="254"/>
      <point x="136" y="414" type="curve" smooth="yes"/>
      <point x="136" y="573"/>
      <point x="189" y="665"/>
      <point x="265" y="665" type="curve" smooth="yes"/>
      <point x="275" y="665" type="line"/>
      <point x="275" y="200" type="line"/>
      <point x="264" y="191"/>
      <point x="249" y="186"/>
    </contour>
    <contour>
      <point x="550" y="241" type="line"/>
      <point x="550" y="665" type="line"/>
      <point x="576" y="665" type="line" smooth="yes"/>
      <point x="645" y="665"/>
      <point x="671" y="576"/>
      <point x="671" y="461" type="curve" smooth="yes"/>
      <point x="671" y="346"/>
      <point x="648" y="241"/>
      <point x="571" y="241" type="curve" smooth="yes"/>
    </contour>
  </outline>
</glyph>
<glyph name="mee-ethiopic" format="2">
  <advance width="818"/>
  <unicode hex="121C"/>
  <note>
uni121C
</note>
  <anchor x="413" y="714" name="top"/>
  <outline>
    <contour>
      <point x="535" y="0" type="curve"/>
      <point x="678" y="0" type="line" smooth="yes"/>
      <point x="760" y="0"/>
      <point x="803" y="57"/>
      <point x="803" y="126" type="curve" smooth="yes"/>
      <point x="803" y="191"/>
      <point x="767" y="222"/>
      <point x="690" y="222" type="curve" smooth="yes"/>
      <point x="628" y="222" type="line"/>
      <point x="681" y="385" type="line" smooth="yes"/>
      <point x="713" y="485"/>
      <point x="724" y="531"/>
      <point x="724" y="580" type="curve" smooth="yes"/>
      <point x="724" y="668"/>
      <point x="677" y="714"/>
      <point x="576" y="714" type="curve" smooth="yes"/>
      <point x="237" y="714" type="line" smooth="yes"/>
      <point x="100" y="714"/>
      <point x="23" y="622"/>
      <point x="23" y="477" type="curve" smooth="yes"/>
      <point x="23" y="349"/>
      <point x="84" y="280"/>
      <point x="183" y="280" type="curve" smooth="yes"/>
      <point x="253" y="280"/>
      <point x="311" y="313"/>
      <point x="349" y="352" type="curve"/>
      <point x="349" y="665" type="line"/>
      <point x="427" y="665" type="line"/>
      <point x="419" y="604"/>
      <point x="414" y="539"/>
      <point x="414" y="507" type="curve" smooth="yes"/>
      <point x="414" y="409"/>
      <point x="453" y="362"/>
      <point x="544" y="362" type="curve" smooth="yes"/>
      <point x="573" y="362" type="line"/>
      <point x="507" y="159" type="line" smooth="yes"/>
      <point x="497" y="127"/>
      <point x="491" y="104"/>
      <point x="491" y="79" type="curve" smooth="yes"/>
      <point x="491" y="38"/>
      <point x="509" y="12"/>
    </contour>
    <contour>
      <point x="196" y="331" type="curve" smooth="yes"/>
      <point x="142" y="331"/>
      <point x="116" y="381"/>
      <point x="116" y="475" type="curve" smooth="yes"/>
      <point x="116" y="598"/>
      <point x="162" y="665"/>
      <point x="237" y="665" type="curve" smooth="yes"/>
      <point x="254" y="665" type="line"/>
      <point x="254" y="348" type="line"/>
      <point x="244" y="340"/>
      <point x="226" y="331"/>
    </contour>
    <contour>
      <point x="621" y="42" type="line" smooth="yes"/>
      <point x="598" y="42"/>
      <point x="588" y="59"/>
      <point x="588" y="78" type="curve" smooth="yes"/>
      <point x="588" y="95"/>
      <point x="592" y="112"/>
      <point x="598" y="130" type="curve" smooth="yes"/>
      <point x="615" y="184" type="line"/>
      <point x="656" y="184" type="line" smooth="yes"/>
      <point x="694" y="184"/>
      <point x="711" y="166"/>
      <point x="711" y="122" type="curve" smooth="yes"/>
      <point x="711" y="66"/>
      <point x="683" y="42"/>
      <point x="640" y="42" type="curve" smooth="yes"/>
    </contour>
    <contour>
      <point x="581" y="410" type="line" smooth="yes"/>
      <point x="518" y="410"/>
      <point x="505" y="437"/>
      <point x="505" y="514" type="curve" smooth="yes"/>
      <point x="505" y="550"/>
      <point x="509" y="599"/>
      <point x="517" y="665" type="curve"/>
      <point x="565" y="665" type="line" smooth="yes"/>
      <point x="606" y="665"/>
      <point x="629" y="644"/>
      <point x="629" y="583" type="curve" smooth="yes"/>
      <point x="629" y="552"/>
      <point x="624" y="517"/>
      <point x="613" y="483" type="curve" smooth="yes"/>
      <point x="589" y="410" type="line"/>
    </contour>
  </outline>
</glyph>
<glyph name="me-ethiopic" format="2">
  <advance width="753"/>
  <unicode hex="121D"/>
  <note>
uni121D
</note>
  <anchor x="378" y="714" name="top"/>
  <outline>
    <contour>
      <point x="182" y="280" type="curve" smooth="yes"/>
      <point x="256" y="280"/>
      <point x="311" y="307"/>
      <point x="349" y="331" type="curve"/>
      <point x="349" y="664" type="line"/>
      <point x="428" y="664" type="line"/>
      <point x="428" y="363" type="line"/>
      <point x="570" y="363" type="line" smooth="yes"/>
      <point x="685" y="363"/>
      <point x="734" y="442"/>
      <point x="734" y="548" type="curve" smooth="yes"/>
      <point x="734" y="647"/>
      <point x="677" y="714"/>
      <point x="569" y="714" type="curve" smooth="yes"/>
      <point x="237" y="714" type="line" smooth="yes"/>
      <point x="102" y="714"/>
      <point x="23" y="622"/>
      <point x="23" y="477" type="curve" smooth="yes"/>
      <point x="23" y="349"/>
      <point x="88" y="280"/>
    </contour>
    <contour>
      <point x="176" y="-5" type="curve"/>
      <point x="306" y="4" type="line"/>
      <point x="306" y="42" type="line"/>
      <point x="285" y="42"/>
      <point x="274" y="51"/>
      <point x="274" y="73" type="curve" smooth="yes"/>
      <point x="274" y="87"/>
      <point x="278" y="106"/>
      <point x="286" y="131" type="curve" smooth="yes"/>
      <point x="349" y="331" type="line"/>
      <point x="249" y="312" type="line"/>
      <point x="188" y="129" type="line" smooth="yes"/>
      <point x="175" y="89"/>
      <point x="170" y="60"/>
      <point x="170" y="36" type="curve" smooth="yes"/>
      <point x="170" y="20"/>
      <point x="172" y="7"/>
    </contour>
    <contour>
      <point x="200" y="331" type="curve" smooth="yes"/>
      <point x="145" y="331"/>
      <point x="116" y="381"/>
      <point x="116" y="475" type="curve" smooth="yes"/>
      <point x="116" y="598"/>
      <point x="163" y="664"/>
      <point x="238" y="664" type="curve" smooth="yes"/>
      <point x="254" y="664" type="line"/>
      <point x="254" y="345" type="line"/>
      <point x="240" y="337"/>
      <point x="224" y="331"/>
    </contour>
    <contour>
      <point x="525" y="413" type="line"/>
      <point x="525" y="664" type="line"/>
      <point x="565" y="664" type="line" smooth="yes"/>
      <point x="620" y="664"/>
      <point x="637" y="599"/>
      <point x="637" y="543" type="curve" smooth="yes"/>
      <point x="637" y="479"/>
      <point x="618" y="413"/>
      <point x="560" y="413" type="curve" smooth="yes"/>
    </contour>
  </outline>
</glyph>
<glyph name="mo-ethiopic" format="2">
  <advance width="753"/>
  <unicode hex="121E"/>
  <note>
uni121E
</note>
  <anchor x="378" y="714" name="top"/>
  <outline>
    <contour>
      <point x="188" y="280" type="curve" smooth="yes"/>
      <point x="258" y="280"/>
      <point x="311" y="308"/>
      <point x="349" y="336" type="curve"/>
      <point x="349" y="664" type="line"/>
      <point x="428" y="664" type="line"/>
      <point x="428" y="363" type="line"/>
      <point x="560" y="363" type="line" smooth="yes"/>
      <point x="685" y="363"/>
      <point x="734" y="442"/>
      <point x="734" y="548" type="curve" smooth="yes"/>
      <point x="734" y="647"/>
      <point x="677" y="714"/>
      <point x="559" y="714" type="curve" smooth="yes"/>
      <point x="237" y="714" type="line" smooth="yes"/>
      <point x="102" y="714"/>
      <point x="23" y="622"/>
      <point x="23" y="477" type="curve" smooth="yes"/>
      <point x="23" y="349"/>
      <point x="85" y="280"/>
    </contour>
    <contour>
      <point x="277" y="-5" type="curve"/>
      <point x="388" y="4" type="line"/>
      <point x="388" y="43" type="line"/>
      <point x="364" y="43"/>
      <point x="349" y="56"/>
      <point x="349" y="110" type="curve" smooth="yes"/>
      <point x="349" y="354" type="line"/>
      <point x="254" y="318" type="line"/>
      <point x="254" y="73" type="line" smooth="yes"/>
      <point x="254" y="35"/>
      <point x="263" y="12"/>
    </contour>
    <contour>
      <point x="200" y="331" type="curve" smooth="yes"/>
      <point x="145" y="331"/>
      <point x="116" y="381"/>
      <point x="116" y="475" type="curve" smooth="yes"/>
      <point x="116" y="598"/>
      <point x="163" y="664"/>
      <point x="238" y="664" type="curve" smooth="yes"/>
      <point x="254" y="664" type="line"/>
      <point x="254" y="345" type="line"/>
      <point x="240" y="337"/>
      <point x="224" y="331"/>
    </contour>
    <contour>
      <point x="525" y="413" type="line"/>
      <point x="525" y="664" type="line"/>
      <point x="555" y="664" type="line" smooth="yes"/>
      <point x="620" y="664"/>
      <point x="637" y="599"/>
      <point x="637" y="543" type="curve" smooth="yes"/>
      <point x="637" y="479"/>
      <point x="618" y="413"/>
      <point x="550" y="413" type="curve" smooth="yes"/>
    </contour>
  </outline>
</glyph>
<glyph name="mwa-ethiopic" format="2">
  <advance width="807"/>
  <unicode hex="121F"/>
  <note>
uni121F
</note>
  <anchor x="407" y="714" name="top"/>
  <outline>
    <contour>
      <point x="485" y="4" type="curve"/>
      <point x="618" y="4" type="line"/>
      <point x="618" y="50" type="line"/>
      <point x="598" y="50"/>
      <point x="586" y="57"/>
      <point x="586" y="74" type="curve" smooth="yes"/>
      <point x="586" y="90"/>
      <point x="591" y="110"/>
      <point x="601" y="140" type="curve" smooth="yes"/>
      <point x="681" y="385" type="line" smooth="yes"/>
      <point x="714" y="485"/>
      <point x="724" y="530"/>
      <point x="724" y="582" type="curve" smooth="yes"/>
      <point x="724" y="670"/>
      <point x="677" y="714"/>
      <point x="576" y="714" type="curve" smooth="yes"/>
      <point x="237" y="714" type="line" smooth="yes"/>
      <point x="100" y="714"/>
      <point x="23" y="622"/>
      <point x="23" y="477" type="curve" smooth="yes"/>
      <point x="23" y="349"/>
      <point x="84" y="280"/>
      <point x="183" y="280" type="curve" smooth="yes"/>
      <point x="253" y="280"/>
      <point x="311" y="313"/>
      <point x="349" y="352" type="curve"/>
      <point x="349" y="665" type="line"/>
      <point x="427" y="665" type="line"/>
      <point x="419" y="604"/>
      <point x="414" y="539"/>
      <point x="414" y="507" type="curve" smooth="yes"/>
      <point x="414" y="409"/>
      <point x="453" y="362"/>
      <point x="544" y="362" type="curve" smooth="yes"/>
      <point x="573" y="362" type="line"/>
      <point x="499" y="134" type="line" smooth="yes"/>
      <point x="485" y="91"/>
      <point x="478" y="66"/>
      <point x="478" y="41" type="curve" smooth="yes"/>
      <point x="478" y="23"/>
      <point x="481" y="14"/>
    </contour>
    <contour>
      <point x="196" y="331" type="curve" smooth="yes"/>
      <point x="142" y="331"/>
      <point x="116" y="381"/>
      <point x="116" y="475" type="curve" smooth="yes"/>
      <point x="116" y="598"/>
      <point x="162" y="665"/>
      <point x="237" y="665" type="curve" smooth="yes"/>
      <point x="254" y="665" type="line"/>
      <point x="254" y="348" type="line"/>
      <point x="244" y="340"/>
      <point x="226" y="331"/>
    </contour>
    <contour>
      <point x="581" y="410" type="line" smooth="yes"/>
      <point x="518" y="410"/>
      <point x="505" y="437"/>
      <point x="505" y="514" type="curve" smooth="yes"/>
      <point x="505" y="550"/>
      <point x="509" y="599"/>
      <point x="517" y="665" type="curve"/>
      <point x="565" y="665" type="line" smooth="yes"/>
      <point x="606" y="665"/>
      <point x="630" y="640"/>
      <point x="630" y="592" type="curve" smooth="yes"/>
      <point x="630" y="554"/>
      <point x="623" y="513"/>
      <point x="609" y="470" type="curve" smooth="yes"/>
      <point x="589" y="410" type="line"/>
    </contour>
    <component base="footright" xOffset="265"/>
  </outline>
</glyph>
<glyph name="sza-ethiopic" format="2">
  <advance width="745"/>
  <unicode hex="1220"/>
  <note>
uni1220
</note>
  <anchor x="357" y="720" name="top"/>
  <outline>
    <contour>
      <point x="235" y="-5" type="curve" smooth="yes"/>
      <point x="340" y="-5"/>
      <point x="380" y="64"/>
      <point x="395" y="138" type="curve"/>
      <point x="410" y="122"/>
      <point x="442" y="104"/>
      <point x="497" y="104" type="curve" smooth="yes"/>
      <point x="614" y="104"/>
      <point x="679" y="204"/>
      <point x="679" y="331" type="curve" smooth="yes"/>
      <point x="679" y="642" type="line" smooth="yes"/>
      <point x="679" y="680"/>
      <point x="672" y="703"/>
      <point x="659" y="720" type="curve"/>
      <point x="539" y="711" type="line"/>
      <point x="539" y="672" type="line"/>
      <point x="566" y="672"/>
      <point x="580" y="659"/>
      <point x="580" y="605" type="curve" smooth="yes"/>
      <point x="580" y="314" type="line" smooth="yes"/>
      <point x="580" y="217"/>
      <point x="562" y="154"/>
      <point x="499" y="154" type="curve" smooth="yes"/>
      <point x="448" y="154"/>
      <point x="428" y="185"/>
      <point x="428" y="263" type="curve" smooth="yes"/>
      <point x="428" y="642" type="line" smooth="yes"/>
      <point x="428" y="680"/>
      <point x="421" y="703"/>
      <point x="408" y="720" type="curve"/>
      <point x="288" y="711" type="line"/>
      <point x="288" y="672" type="line"/>
      <point x="315" y="672"/>
      <point x="329" y="659"/>
      <point x="329" y="605" type="curve" smooth="yes"/>
      <point x="329" y="171" type="line" smooth="yes"/>
      <point x="329" y="106"/>
      <point x="308" y="48"/>
      <point x="249" y="48" type="curve" smooth="yes"/>
      <point x="190" y="48"/>
      <point x="173" y="100"/>
      <point x="173" y="161" type="curve" smooth="yes"/>
      <point x="173" y="325"/>
      <point x="176" y="524"/>
      <point x="176" y="642" type="curve" smooth="yes"/>
      <point x="176" y="680"/>
      <point x="168" y="703"/>
      <point x="155" y="720" type="curve"/>
      <point x="35" y="711" type="line"/>
      <point x="35" y="672" type="line"/>
      <point x="62" y="672"/>
      <point x="76" y="659"/>
      <point x="76" y="605" type="curve" smooth="yes"/>
      <point x="76" y="497"/>
      <point x="74" y="310"/>
      <point x="74" y="192" type="curve" smooth="yes"/>
      <point x="74" y="74"/>
      <point x="107" y="-5"/>
    </contour>
  </outline>
</glyph>
<glyph name="szi-ethiopic" format="2">
  <advance width="747"/>
  <unicode hex="1222"/>
  <note>
uni1222
</note>
  <anchor x="383" y="720" name="top"/>
  <outline>
    <contour>
      <point x="417" y="0" type="curve"/>
      <point x="545" y="0" type="line"/>
      <point x="545" y="50" type="line"/>
      <point x="524" y="50"/>
      <point x="515" y="59"/>
      <point x="515" y="80" type="curve" smooth="yes"/>
      <point x="515" y="92"/>
      <point x="519" y="110"/>
      <point x="525" y="132" type="curve" smooth="yes"/>
      <point x="629" y="488" type="line" smooth="yes"/>
      <point x="639" y="524"/>
      <point x="646" y="565"/>
      <point x="646" y="612" type="curve" smooth="yes"/>
      <point x="646" y="642" type="line" smooth="yes"/>
      <point x="646" y="680"/>
      <point x="638" y="703"/>
      <point x="625" y="720" type="curve"/>
      <point x="505" y="711" type="line"/>
      <point x="505" y="672" type="line"/>
      <point x="532" y="672"/>
      <point x="546" y="659"/>
      <point x="546" y="605" type="curve" smooth="yes"/>
      <point x="546" y="584" type="line" smooth="yes"/>
      <point x="546" y="493"/>
      <point x="528" y="420"/>
      <point x="474" y="420" type="curve" smooth="yes"/>
      <point x="432" y="420"/>
      <point x="412" y="455"/>
      <point x="412" y="559" type="curve" smooth="yes"/>
      <point x="412" y="642" type="line" smooth="yes"/>
      <point x="412" y="680"/>
      <point x="404" y="703"/>
      <point x="391" y="720" type="curve"/>
      <point x="271" y="711" type="line"/>
      <point x="271" y="672" type="line"/>
      <point x="298" y="672"/>
      <point x="312" y="659"/>
      <point x="312" y="605" type="curve" smooth="yes"/>
      <point x="312" y="457" type="line" smooth="yes"/>
      <point x="312" y="372"/>
      <point x="291" y="314"/>
      <point x="240" y="314" type="curve" smooth="yes"/>
      <point x="188" y="314"/>
      <point x="173" y="376"/>
      <point x="173" y="457" type="curve" smooth="yes"/>
      <point x="173" y="505"/>
      <point x="176" y="604"/>
      <point x="176" y="642" type="curve" smooth="yes"/>
      <point x="176" y="680"/>
      <point x="168" y="703"/>
      <point x="155" y="720" type="curve"/>
      <point x="35" y="711" type="line"/>
      <point x="35" y="672" type="line"/>
      <point x="62" y="672"/>
      <point x="76" y="659"/>
      <point x="76" y="605" type="curve" smooth="yes"/>
      <point x="76" y="577"/>
      <point x="74" y="490"/>
      <point x="74" y="462" type="curve" smooth="yes"/>
      <point x="74" y="350"/>
      <point x="107" y="261"/>
      <point x="227" y="261" type="curve" smooth="yes"/>
      <point x="323" y="261"/>
      <point x="364" y="330"/>
      <point x="378" y="404" type="curve"/>
      <point x="393" y="388"/>
      <point x="424" y="370"/>
      <point x="467" y="370" type="curve" smooth="yes"/>
      <point x="479" y="370"/>
      <point x="489" y="372"/>
      <point x="499" y="375" type="curve"/>
      <point x="429" y="129" type="line" smooth="yes"/>
      <point x="416" y="83"/>
      <point x="412" y="54"/>
      <point x="412" y="31" type="curve" smooth="yes"/>
      <point x="412" y="20"/>
      <point x="414" y="10"/>
    </contour>
    <component base="rightdoubleflag" xOffset="509"/>
  </outline>
</glyph>
<glyph name="szaa-ethiopic" format="2">
  <advance width="681"/>
  <unicode hex="1223"/>
  <note>
uni1223
</note>
  <anchor x="340" y="720" name="top"/>
  <outline>
    <contour>
      <point x="426" y="-5" type="curve"/>
      <point x="549" y="4" type="line"/>
      <point x="549" y="42" type="line"/>
      <point x="529" y="42"/>
      <point x="518" y="50"/>
      <point x="518" y="73" type="curve" smooth="yes"/>
      <point x="518" y="87"/>
      <point x="522" y="106"/>
      <point x="529" y="131" type="curve" smooth="yes"/>
      <point x="634" y="496" type="line"/>
      <point x="519" y="410" type="line"/>
      <point x="438" y="129" type="line" smooth="yes"/>
      <point x="426" y="86"/>
      <point x="421" y="57"/>
      <point x="421" y="33" type="curve" smooth="yes"/>
      <point x="421" y="19"/>
      <point x="423" y="7"/>
    </contour>
    <component base="shorttoploops"/>
  </outline>
</glyph>
<glyph name="szee-ethiopic" format="2">
  <advance width="731"/>
  <unicode hex="1224"/>
  <note>
uni1224
</note>
  <anchor x="375" y="720" name="top"/>
  <outline>
    <contour>
      <point x="448" y="0" type="curve"/>
      <point x="591" y="0" type="line" smooth="yes"/>
      <point x="672" y="0"/>
      <point x="716" y="57"/>
      <point x="716" y="126" type="curve" smooth="yes"/>
      <point x="716" y="191"/>
      <point x="680" y="222"/>
      <point x="603" y="222" type="curve" smooth="yes"/>
      <point x="546" y="222" type="line"/>
      <point x="627" y="490" type="line"/>
      <point x="502" y="415" type="line"/>
      <point x="423" y="159" type="line" smooth="yes"/>
      <point x="413" y="127"/>
      <point x="409" y="100"/>
      <point x="409" y="78" type="curve" smooth="yes"/>
      <point x="409" y="37"/>
      <point x="424" y="12"/>
    </contour>
    <contour>
      <point x="537" y="42" type="line" smooth="yes"/>
      <point x="515" y="42"/>
      <point x="502" y="57"/>
      <point x="502" y="86" type="curve" smooth="yes"/>
      <point x="502" y="98"/>
      <point x="505" y="113"/>
      <point x="511" y="131" type="curve" smooth="yes"/>
      <point x="530" y="184" type="line"/>
      <point x="569" y="184" type="line" smooth="yes"/>
      <point x="607" y="184"/>
      <point x="624" y="166"/>
      <point x="624" y="122" type="curve" smooth="yes"/>
      <point x="624" y="66"/>
      <point x="596" y="42"/>
      <point x="553" y="42" type="curve" smooth="yes"/>
    </contour>
    <component base="shorttoploops"/>
  </outline>
</glyph>
<glyph name="sze-ethiopic" format="2">
  <advance width="764"/>
  <unicode hex="1225"/>
  <note>
uni1225
</note>
  <anchor x="370" y="720" name="top"/>
  <outline>
    <contour>
      <point x="32" y="-5" type="curve"/>
      <point x="160" y="4" type="line"/>
      <point x="160" y="42" type="line"/>
      <point x="141" y="42"/>
      <point x="131" y="50"/>
      <point x="131" y="71" type="curve" smooth="yes"/>
      <point x="131" y="85"/>
      <point x="135" y="104"/>
      <point x="144" y="131" type="curve" smooth="yes"/>
      <point x="210" y="335" type="line"/>
      <point x="151" y="432" type="line"/>
      <point x="49" y="129" type="line" smooth="yes"/>
      <point x="34" y="85"/>
      <point x="28" y="56"/>
      <point x="27" y="30" type="curve" smooth="yes"/>
      <point x="27" y="17"/>
      <point x="29" y="5"/>
    </contour>
    <component base="shorttoploops" xOffset="68"/>
  </outline>
</glyph>
<glyph name="szo-ethiopic" format="2">
  <advance width="696"/>
  <unicode hex="1226"/>
  <note>
uni1226
</note>
  <anchor x="340" y="720" name="top"/>
  <outline>
    <contour>
      <point x="223" y="-5" type="curve"/>
      <point x="347" y="4" type="line"/>
      <point x="347" y="42" type="line"/>
      <point x="326" y="42"/>
      <point x="316" y="51"/>
      <point x="316" y="73" type="curve" smooth="yes"/>
      <point x="316" y="87"/>
      <point x="319" y="106"/>
      <point x="327" y="131" type="curve" smooth="yes"/>
      <point x="419" y="438" type="line"/>
      <point x="373" y="438" type="line"/>
      <point x="297" y="324" type="line"/>
      <point x="235" y="129" type="line" smooth="yes"/>
      <point x="222" y="89"/>
      <point x="217" y="59"/>
      <point x="217" y="36" type="curve" smooth="yes"/>
      <point x="217" y="20"/>
      <point x="219" y="7"/>
    </contour>
    <component base="shorttoploops"/>
  </outline>
</glyph>
<glyph name="szwa-ethiopic" format="2">
  <advance width="737"/>
  <unicode hex="1227"/>
  <note>
uni1227
</note>
  <anchor x="378" y="720" name="top"/>
  <outline>
    <contour>
      <point x="426" y="4" type="curve"/>
      <point x="549" y="4" type="line"/>
      <point x="549" y="50" type="line"/>
      <point x="529" y="50"/>
      <point x="519" y="59"/>
      <point x="519" y="78" type="curve" smooth="yes"/>
      <point x="519" y="92"/>
      <point x="522" y="108"/>
      <point x="529" y="131" type="curve" smooth="yes"/>
      <point x="631" y="485" type="line" smooth="yes"/>
      <point x="640" y="515"/>
      <point x="646" y="549"/>
      <point x="646" y="586" type="curve" smooth="yes"/>
      <point x="646" y="642" type="line" smooth="yes"/>
      <point x="646" y="680"/>
      <point x="638" y="703"/>
      <point x="625" y="720" type="curve"/>
      <point x="505" y="711" type="line"/>
      <point x="505" y="672" type="line"/>
      <point x="532" y="672"/>
      <point x="546" y="659"/>
      <point x="546" y="605" type="curve" smooth="yes"/>
      <point x="546" y="552" type="line" smooth="yes"/>
      <point x="546" y="475"/>
      <point x="528" y="409"/>
      <point x="474" y="409" type="curve" smooth="yes"/>
      <point x="432" y="409"/>
      <point x="412" y="441"/>
      <point x="412" y="530" type="curve" smooth="yes"/>
      <point x="412" y="642" type="line" smooth="yes"/>
      <point x="412" y="680"/>
      <point x="404" y="703"/>
      <point x="391" y="720" type="curve"/>
      <point x="271" y="711" type="line"/>
      <point x="271" y="672" type="line"/>
      <point x="298" y="672"/>
      <point x="312" y="659"/>
      <point x="312" y="605" type="curve" smooth="yes"/>
      <point x="312" y="438" type="line" smooth="yes"/>
      <point x="312" y="366"/>
      <point x="291" y="314"/>
      <point x="240" y="314" type="curve" smooth="yes"/>
      <point x="188" y="314"/>
      <point x="175" y="370"/>
      <point x="175" y="438" type="curve" smooth="yes"/>
      <point x="175" y="506"/>
      <point x="175" y="574"/>
      <point x="175" y="642" type="curve" smooth="yes"/>
      <point x="175" y="680"/>
      <point x="168" y="703"/>
      <point x="155" y="720" type="curve"/>
      <point x="35" y="711" type="line"/>
      <point x="35" y="672" type="line"/>
      <point x="62" y="672"/>
      <point x="75" y="659"/>
      <point x="75" y="605" type="curve" smooth="yes"/>
      <point x="75" y="551"/>
      <point x="75" y="497"/>
      <point x="75" y="443" type="curve" smooth="yes"/>
      <point x="75" y="342"/>
      <point x="107" y="261"/>
      <point x="227" y="261" type="curve" smooth="yes"/>
      <point x="323" y="261"/>
      <point x="364" y="323"/>
      <point x="378" y="390" type="curve"/>
      <point x="394" y="375"/>
      <point x="422" y="359"/>
      <point x="468" y="359" type="curve" smooth="yes"/>
      <point x="481" y="359"/>
      <point x="494" y="360"/>
      <point x="505" y="363" type="curve"/>
      <point x="438" y="129" type="line" smooth="yes"/>
      <point x="426" y="86"/>
      <point x="421" y="61"/>
      <point x="421" y="39" type="curve" smooth="yes"/>
      <point x="421" y="26"/>
      <point x="423" y="15"/>
    </contour>
    <component base="footright" xOffset="195"/>
  </outline>
</glyph>
<glyph name="ra-ethiopic" format="2">
  <advance width="455"/>
  <unicode hex="1228"/>
  <note>
uni1228
</note>
  <anchor x="240" y="718" name="top"/>
  <outline>
    <contour>
      <point x="399" y="-67" type="curve" smooth="yes"/>
      <point x="418" y="-67"/>
      <point x="436" y="-59"/>
      <point x="444" y="-51" type="curve"/>
      <point x="430" y="-36"/>
      <point x="418" y="-13"/>
      <point x="418" y="23" type="curve" smooth="yes"/>
      <point x="418" y="57"/>
      <point x="427" y="80"/>
      <point x="444" y="101" type="curve"/>
      <point x="436" y="108"/>
      <point x="418" y="115"/>
      <point x="399" y="115" type="curve" smooth="yes"/>
      <point x="353" y="115"/>
      <point x="331" y="84"/>
      <point x="325" y="50" type="curve"/>
      <point x="248" y="50" type="line"/>
      <point x="248" y="0" type="line"/>
      <point x="325" y="0" type="line"/>
      <point x="332" y="-36"/>
      <point x="353" y="-67"/>
    </contour>
    <component base="nose"/>
  </outline>
</glyph>
<glyph name="ru-ethiopic" format="2">
  <advance width="532"/>
  <unicode hex="1229"/>
  <note>
uni1229
</note>
  <anchor x="265" y="718" name="top"/>
  <outline>
    <contour>
      <point x="188" y="197" type="curve" smooth="yes"/>
      <point x="329" y="197" type="line"/>
      <point x="329" y="247" type="line"/>
      <point x="202" y="247" type="line" smooth="yes"/>
      <point x="144" y="247"/>
      <point x="106" y="269"/>
      <point x="106" y="329" type="curve" smooth="yes"/>
      <point x="106" y="387"/>
      <point x="134" y="415"/>
      <point x="190" y="462" type="curve" smooth="yes"/>
      <point x="271" y="531"/>
      <point x="314" y="585"/>
      <point x="314" y="647" type="curve" smooth="yes"/>
      <point x="314" y="676"/>
      <point x="309" y="698"/>
      <point x="295" y="718" type="curve"/>
      <point x="159" y="709" type="line"/>
      <point x="159" y="672" type="line"/>
      <point x="205" y="670"/>
      <point x="214" y="655"/>
      <point x="214" y="633" type="curve" smooth="yes"/>
      <point x="214" y="596"/>
      <point x="186" y="566"/>
      <point x="125" y="515" type="curve" smooth="yes"/>
      <point x="56" y="457"/>
      <point x="14" y="415"/>
      <point x="14" y="334" type="curve" smooth="yes"/>
      <point x="14" y="249"/>
      <point x="67" y="197"/>
    </contour>
    <contour>
      <point x="241" y="-5" type="curve"/>
      <point x="365" y="4" type="line"/>
      <point x="365" y="46" type="line"/>
      <point x="332" y="46"/>
      <point x="317" y="60"/>
      <point x="317" y="119" type="curve" smooth="yes"/>
      <point x="317" y="221" type="line"/>
      <point x="222" y="221" type="line"/>
      <point x="222" y="93" type="line" smooth="yes"/>
      <point x="222" y="51"/>
      <point x="227" y="15"/>
    </contour>
    <component base="rightsingleflag" xOffset="277" yOffset="-157"/>
  </outline>
</glyph>
<glyph name="ri-ethiopic" format="2">
  <advance width="453"/>
  <unicode hex="122A"/>
  <note>
uni122A
</note>
  <anchor x="234" y="718" name="top"/>
  <outline>
    <contour>
      <point x="231" y="0" type="curve" smooth="yes"/>
      <point x="368" y="0"/>
      <point x="431" y="101"/>
      <point x="431" y="211" type="curve" smooth="yes"/>
      <point x="431" y="244"/>
      <point x="424" y="277"/>
      <point x="417" y="292" type="curve"/>
      <point x="295" y="283" type="line"/>
      <point x="295" y="241" type="line"/>
      <point x="326" y="241"/>
      <point x="340" y="230"/>
      <point x="340" y="191" type="curve" smooth="yes"/>
      <point x="340" y="98"/>
      <point x="302" y="50"/>
      <point x="234" y="50" type="curve" smooth="yes"/>
      <point x="163" y="50"/>
      <point x="132" y="102"/>
      <point x="132" y="189" type="curve" smooth="yes"/>
      <point x="132" y="285"/>
      <point x="164" y="338"/>
      <point x="252" y="428" type="curve" smooth="yes"/>
      <point x="339" y="517"/>
      <point x="379" y="565"/>
      <point x="379" y="646" type="curve" smooth="yes"/>
      <point x="379" y="679"/>
      <point x="370" y="703"/>
      <point x="361" y="718" type="curve"/>
      <point x="241" y="709" type="line"/>
      <point x="241" y="667" type="line"/>
      <point x="272" y="667"/>
      <point x="281" y="655"/>
      <point x="281" y="628" type="curve" smooth="yes"/>
      <point x="281" y="589"/>
      <point x="256" y="554"/>
      <point x="173" y="466" type="curve" smooth="yes"/>
      <point x="101" y="390"/>
      <point x="37" y="311"/>
      <point x="37" y="198" type="curve" smooth="yes"/>
      <point x="37" y="61"/>
      <point x="105" y="0"/>
    </contour>
  </outline>
</glyph>
<glyph name="raa-ethiopic" format="2">
  <advance width="580"/>
  <unicode hex="122B"/>
  <note>
uni122B
</note>
  <anchor x="301" y="718" name="top"/>
  <outline>
    <contour>
      <point x="226" y="0" type="curve" smooth="yes"/>
      <point x="337" y="0" type="line"/>
      <point x="337" y="27" type="line" smooth="yes"/>
      <point x="337" y="158"/>
      <point x="357" y="259"/>
      <point x="429" y="259" type="curve" smooth="yes"/>
      <point x="437" y="259" type="line"/>
      <point x="437" y="252"/>
      <point x="436" y="245"/>
      <point x="436" y="236" type="curve" smooth="yes"/>
      <point x="436" y="190"/>
      <point x="464" y="154"/>
      <point x="516" y="154" type="curve" smooth="yes"/>
      <point x="535" y="154"/>
      <point x="553" y="160"/>
      <point x="565" y="170" type="curve"/>
      <point x="548" y="187"/>
      <point x="538" y="217"/>
      <point x="538" y="253" type="curve" smooth="yes"/>
      <point x="538" y="277"/>
      <point x="542" y="300"/>
      <point x="546" y="309" type="curve"/>
      <point x="419" y="309" type="line" smooth="yes"/>
      <point x="303" y="309"/>
      <point x="242" y="222"/>
      <point x="241" y="48" type="curve"/>
      <point x="231" y="48" type="line" smooth="yes"/>
      <point x="159" y="48"/>
      <point x="132" y="115"/>
      <point x="132" y="194" type="curve" smooth="yes"/>
      <point x="132" y="285"/>
      <point x="164" y="338"/>
      <point x="252" y="428" type="curve" smooth="yes"/>
      <point x="339" y="517"/>
      <point x="379" y="565"/>
      <point x="379" y="646" type="curve" smooth="yes"/>
      <point x="379" y="679"/>
      <point x="370" y="703"/>
      <point x="361" y="718" type="curve"/>
      <point x="241" y="709" type="line"/>
      <point x="241" y="667" type="line"/>
      <point x="272" y="667"/>
      <point x="281" y="655"/>
      <point x="281" y="628" type="curve" smooth="yes"/>
      <point x="281" y="589"/>
      <point x="256" y="554"/>
      <point x="173" y="466" type="curve" smooth="yes"/>
      <point x="101" y="390"/>
      <point x="37" y="311"/>
      <point x="37" y="198" type="curve" smooth="yes"/>
      <point x="37" y="61"/>
      <point x="103" y="0"/>
    </contour>
  </outline>
</glyph>
<glyph name="ree-ethiopic" format="2">
  <advance width="544"/>
  <unicode hex="122C"/>
  <note>
uni122C
</note>
  <anchor x="283" y="718" name="top"/>
  <outline>
    <contour>
      <point x="252" y="0" type="line"/>
      <point x="376" y="0" type="line"/>
      <point x="376" y="16" type="line"/>
      <point x="304" y="50" type="line"/>
      <point x="252" y="50" type="line"/>
    </contour>
    <component base="nose"/>
    <component base="ballbig" xOffset="227" yOffset="-187"/>
  </outline>
</glyph>
<glyph name="re-ethiopic" format="2">
  <advance width="480"/>
  <unicode hex="122D"/>
  <note>
uni122D
</note>
  <anchor x="265" y="714" name="top"/>
  <outline>
    <contour>
      <point x="424" y="-67" type="curve" smooth="yes"/>
      <point x="443" y="-67"/>
      <point x="461" y="-59"/>
      <point x="469" y="-51" type="curve"/>
      <point x="455" y="-36"/>
      <point x="443" y="-13"/>
      <point x="443" y="23" type="curve" smooth="yes"/>
      <point x="443" y="57"/>
      <point x="452" y="80"/>
      <point x="469" y="101" type="curve"/>
      <point x="461" y="108"/>
      <point x="443" y="115"/>
      <point x="424" y="115" type="curve" smooth="yes"/>
      <point x="378" y="115"/>
      <point x="356" y="84"/>
      <point x="350" y="50" type="curve"/>
      <point x="311" y="50" type="line" smooth="yes"/>
      <point x="187" y="50"/>
      <point x="151" y="103"/>
      <point x="151" y="241" type="curve" smooth="yes"/>
      <point x="151" y="359" type="line" smooth="yes"/>
      <point x="151" y="567"/>
      <point x="217" y="664"/>
      <point x="319" y="664" type="curve" smooth="yes"/>
      <point x="348" y="664" type="line"/>
      <point x="348" y="657"/>
      <point x="347" y="650"/>
      <point x="347" y="641" type="curve" smooth="yes"/>
      <point x="347" y="595"/>
      <point x="375" y="559"/>
      <point x="427" y="559" type="curve" smooth="yes"/>
      <point x="446" y="559"/>
      <point x="464" y="565"/>
      <point x="476" y="575" type="curve"/>
      <point x="459" y="592"/>
      <point x="449" y="622"/>
      <point x="449" y="658" type="curve" smooth="yes"/>
      <point x="449" y="682"/>
      <point x="453" y="705"/>
      <point x="457" y="714" type="curve"/>
      <point x="309" y="714" type="line" smooth="yes"/>
      <point x="159" y="714"/>
      <point x="54" y="592"/>
      <point x="54" y="364" type="curve" smooth="yes"/>
      <point x="54" y="236" type="line" smooth="yes"/>
      <point x="54" y="81"/>
      <point x="104" y="0"/>
      <point x="259" y="0" type="curve" smooth="yes"/>
      <point x="350" y="0" type="line"/>
      <point x="357" y="-36"/>
      <point x="378" y="-67"/>
    </contour>
  </outline>
</glyph>
<glyph name="ro-ethiopic" format="2">
  <advance width="540"/>
  <unicode hex="122E"/>
  <note>
uni122E
</note>
  <anchor x="289" y="714" name="top"/>
  <outline>
    <contour>
      <point x="444" y="-67" type="curve" smooth="yes"/>
      <point x="463" y="-67"/>
      <point x="481" y="-59"/>
      <point x="489" y="-51" type="curve"/>
      <point x="475" y="-36"/>
      <point x="463" y="-13"/>
      <point x="463" y="23" type="curve" smooth="yes"/>
      <point x="463" y="57"/>
      <point x="472" y="80"/>
      <point x="489" y="101" type="curve"/>
      <point x="481" y="108"/>
      <point x="463" y="115"/>
      <point x="444" y="115" type="curve" smooth="yes"/>
      <point x="398" y="115"/>
      <point x="376" y="84"/>
      <point x="370" y="50" type="curve"/>
      <point x="311" y="50" type="line" smooth="yes"/>
      <point x="187" y="50"/>
      <point x="151" y="103"/>
      <point x="151" y="241" type="curve" smooth="yes"/>
      <point x="151" y="359" type="line" smooth="yes"/>
      <point x="151" y="567"/>
      <point x="217" y="674"/>
      <point x="319" y="674" type="curve" smooth="yes"/>
      <point x="348" y="674" type="line"/>
      <point x="407" y="714" type="line"/>
      <point x="309" y="714" type="line" smooth="yes"/>
      <point x="159" y="714"/>
      <point x="54" y="592"/>
      <point x="54" y="364" type="curve" smooth="yes"/>
      <point x="54" y="236" type="line" smooth="yes"/>
      <point x="54" y="81"/>
      <point x="104" y="0"/>
      <point x="259" y="0" type="curve" smooth="yes"/>
      <point x="370" y="0" type="line"/>
      <point x="377" y="-36"/>
      <point x="398" y="-67"/>
    </contour>
    <component base="ballsmall" xOffset="260" yOffset="298"/>
  </outline>
</glyph>
<glyph name="rwa-ethiopic" format="2">
  <advance width="580"/>
  <unicode hex="122F"/>
  <note>
uni122F
</note>
  <anchor x="301" y="819" name="top"/>
  <outline>
    <contour>
      <point x="226" y="0" type="curve" smooth="yes"/>
      <point x="337" y="0" type="line"/>
      <point x="337" y="27" type="line" smooth="yes"/>
      <point x="337" y="158"/>
      <point x="357" y="259"/>
      <point x="429" y="259" type="curve" smooth="yes"/>
      <point x="437" y="259" type="line"/>
      <point x="437" y="252"/>
      <point x="436" y="245"/>
      <point x="436" y="236" type="curve" smooth="yes"/>
      <point x="436" y="190"/>
      <point x="464" y="154"/>
      <point x="516" y="154" type="curve" smooth="yes"/>
      <point x="535" y="154"/>
      <point x="553" y="160"/>
      <point x="565" y="170" type="curve"/>
      <point x="548" y="187"/>
      <point x="538" y="217"/>
      <point x="538" y="253" type="curve" smooth="yes"/>
      <point x="538" y="277"/>
      <point x="542" y="300"/>
      <point x="546" y="309" type="curve"/>
      <point x="419" y="309" type="line" smooth="yes"/>
      <point x="303" y="309"/>
      <point x="242" y="222"/>
      <point x="241" y="48" type="curve"/>
      <point x="231" y="48" type="line" smooth="yes"/>
      <point x="159" y="48"/>
      <point x="132" y="115"/>
      <point x="132" y="194" type="curve" smooth="yes"/>
      <point x="132" y="285"/>
      <point x="164" y="338"/>
      <point x="252" y="428" type="curve" smooth="yes"/>
      <point x="339" y="517"/>
      <point x="379" y="562"/>
      <point x="379" y="643" type="curve" smooth="yes"/>
      <point x="379" y="676"/>
      <point x="370" y="691"/>
      <point x="361" y="706" type="curve"/>
      <point x="241" y="706" type="line"/>
      <point x="241" y="664" type="line"/>
      <point x="272" y="664"/>
      <point x="281" y="652"/>
      <point x="281" y="625" type="curve" smooth="yes"/>
      <point x="281" y="586"/>
      <point x="256" y="554"/>
      <point x="173" y="466" type="curve" smooth="yes"/>
      <point x="101" y="390"/>
      <point x="37" y="311"/>
      <point x="37" y="198" type="curve" smooth="yes"/>
      <point x="37" y="61"/>
      <point x="103" y="0"/>
    </contour>
    <contour>
      <point x="513" y="819" type="curve" smooth="yes"/>
      <point x="465" y="819"/>
      <point x="439" y="783"/>
      <point x="439" y="737" type="curve" smooth="yes"/>
      <point x="439" y="728"/>
      <point x="440" y="721"/>
      <point x="440" y="714" type="curve"/>
      <point x="164" y="714" type="line"/>
      <point x="165" y="721"/>
      <point x="165" y="728"/>
      <point x="165" y="737" type="curve" smooth="yes"/>
      <point x="165" y="783"/>
      <point x="139" y="819"/>
      <point x="91" y="819" type="curve" smooth="yes"/>
      <point x="74" y="819"/>
      <point x="57" y="813"/>
      <point x="46" y="803" type="curve"/>
      <point x="62" y="786"/>
      <point x="71" y="756"/>
      <point x="71" y="720" type="curve" smooth="yes"/>
      <point x="71" y="696"/>
      <point x="67" y="673"/>
      <point x="64" y="664" type="curve"/>
      <point x="540" y="664" type="line"/>
      <point x="537" y="673"/>
      <point x="533" y="696"/>
      <point x="533" y="720" type="curve" smooth="yes"/>
      <point x="533" y="756"/>
      <point x="542" y="786"/>
      <point x="558" y="803" type="curve"/>
      <point x="547" y="813"/>
      <point x="530" y="819"/>
    </contour>
  </outline>
</glyph>
<glyph name="sa-ethiopic" format="2">
  <advance width="523"/>
  <unicode hex="1230"/>
  <note>
uni1230
</note>
  <anchor x="276" y="765" name="top"/>
  <outline>
    <contour>
      <point x="219" y="585" type="line"/>
      <point x="314" y="585" type="line"/>
      <point x="314" y="682" type="line" smooth="yes"/>
      <point x="314" y="723"/>
      <point x="308" y="750"/>
      <point x="291" y="765" type="curve"/>
      <point x="182" y="756" type="line"/>
      <point x="182" y="718" type="line"/>
      <point x="206" y="717"/>
      <point x="219" y="698"/>
      <point x="219" y="649" type="curve" smooth="yes"/>
    </contour>
    <component base="shortnarch" xOffset="-2"/>
  </outline>
</glyph>
<glyph name="si-ethiopic" format="2">
  <advance width="662"/>
  <unicode hex="1232"/>
  <note>
uni1232
</note>
  <anchor x="355" y="765" name="top"/>
  <outline>
    <contour>
      <point x="83" y="-5" type="curve"/>
      <point x="212" y="4" type="line"/>
      <point x="212" y="46" type="line"/>
      <point x="179" y="46"/>
      <point x="164" y="60"/>
      <point x="164" y="119" type="curve" smooth="yes"/>
      <point x="164" y="299" type="line" smooth="yes"/>
      <point x="164" y="491"/>
      <point x="206" y="565"/>
      <point x="273" y="565" type="curve" smooth="yes"/>
      <point x="324" y="565"/>
      <point x="344" y="508"/>
      <point x="344" y="393" type="curve" smooth="yes"/>
      <point x="344" y="297"/>
      <point x="341" y="185"/>
      <point x="341" y="93" type="curve" smooth="yes"/>
      <point x="341" y="50"/>
      <point x="347" y="20"/>
      <point x="360" y="0" type="curve"/>
      <point x="489" y="0" type="line"/>
      <point x="489" y="50" type="line"/>
      <point x="456" y="50"/>
      <point x="442" y="64"/>
      <point x="442" y="119" type="curve" smooth="yes"/>
      <point x="442" y="195"/>
      <point x="445" y="323"/>
      <point x="445" y="386" type="curve" smooth="yes"/>
      <point x="445" y="536"/>
      <point x="405" y="613"/>
      <point x="286" y="613" type="curve" smooth="yes"/>
      <point x="153" y="613"/>
      <point x="64" y="515"/>
      <point x="64" y="324" type="curve" smooth="yes"/>
      <point x="64" y="93" type="line" smooth="yes"/>
      <point x="64" y="51"/>
      <point x="69" y="15"/>
    </contour>
    <contour>
      <point x="219" y="585" type="line"/>
      <point x="314" y="585" type="line"/>
      <point x="314" y="682" type="line" smooth="yes"/>
      <point x="314" y="723"/>
      <point x="308" y="750"/>
      <point x="291" y="765" type="curve"/>
      <point x="182" y="756" type="line"/>
      <point x="182" y="718" type="line"/>
      <point x="206" y="717"/>
      <point x="219" y="698"/>
      <point x="219" y="649" type="curve" smooth="yes"/>
    </contour>
    <component base="rightdoubleflag" xOffset="424"/>
  </outline>
</glyph>
<glyph name="saa-ethiopic" format="2">
	<advance width="511"/>
	<unicode hex="1233"/>
	<anchor x="264" y="765" name="top"/>
	<note>
		uni1233
	</note>
	<outline>
		<contour>
			<point x="202" y="585" type="line"/>
			<point x="297" y="585" type="line"/>
			<point x="297" y="682" type="line" smooth="yes"/>
			<point x="297" y="723"/>
			<point x="291" y="750"/>
			<point x="274" y="765" type="curve"/>
			<point x="165" y="756" type="line"/>
			<point x="165" y="718" type="line"/>
			<point x="189" y="717"/>
			<point x="202" y="698"/>
			<point x="202" y="649" type="curve" smooth="yes"/>
		</contour>
		<component base="baashort"/>
	</outline>
</glyph>
<glyph name="see-ethiopic" format="2">
  <advance width="659"/>
  <unicode hex="1234"/>
  <note>
uni1234
</note>
  <anchor x="354" y="765" name="top"/>
  <outline>
    <contour>
      <point x="83" y="-5" type="curve"/>
      <point x="212" y="4" type="line"/>
      <point x="212" y="46" type="line"/>
      <point x="179" y="46"/>
      <point x="164" y="60"/>
      <point x="164" y="119" type="curve" smooth="yes"/>
      <point x="164" y="299" type="line" smooth="yes"/>
      <point x="164" y="491"/>
      <point x="206" y="565"/>
      <point x="273" y="565" type="curve" smooth="yes"/>
      <point x="324" y="565"/>
      <point x="344" y="507"/>
      <point x="344" y="392" type="curve" smooth="yes"/>
      <point x="344" y="346"/>
      <point x="342" y="199"/>
      <point x="342" y="83" type="curve" smooth="yes"/>
      <point x="342" y="35"/>
      <point x="365" y="9"/>
      <point x="402" y="0" type="curve"/>
      <point x="519" y="0" type="line" smooth="yes"/>
      <point x="601" y="0"/>
      <point x="644" y="57"/>
      <point x="644" y="126" type="curve" smooth="yes"/>
      <point x="644" y="191"/>
      <point x="608" y="222"/>
      <point x="531" y="222" type="curve" smooth="yes"/>
      <point x="443" y="222" type="line"/>
      <point x="443" y="258"/>
      <point x="445" y="346"/>
      <point x="445" y="385" type="curve" smooth="yes"/>
      <point x="445" y="527"/>
      <point x="411" y="604"/>
      <point x="314" y="612" type="curve"/>
      <point x="314" y="682" type="line" smooth="yes"/>
      <point x="314" y="723"/>
      <point x="307" y="750"/>
      <point x="290" y="765" type="curve"/>
      <point x="182" y="756" type="line"/>
      <point x="182" y="718" type="line"/>
      <point x="205" y="717"/>
      <point x="218" y="698"/>
      <point x="218" y="649" type="curve" smooth="yes"/>
      <point x="218" y="604" type="line"/>
      <point x="124" y="576"/>
      <point x="64" y="481"/>
      <point x="64" y="324" type="curve" smooth="yes"/>
      <point x="64" y="93" type="line" smooth="yes"/>
      <point x="64" y="51"/>
      <point x="69" y="15"/>
    </contour>
    <contour>
      <point x="491" y="35" type="curve" smooth="yes"/>
      <point x="459" y="35"/>
      <point x="443" y="47"/>
      <point x="443" y="90" type="curve" smooth="yes"/>
      <point x="443" y="184" type="line"/>
      <point x="497" y="184" type="line" smooth="yes"/>
      <point x="535" y="184"/>
      <point x="552" y="166"/>
      <point x="552" y="122" type="curve" smooth="yes"/>
      <point x="552" y="66"/>
      <point x="531" y="35"/>
    </contour>
  </outline>
</glyph>
<glyph name="se-ethiopic" format="2">
  <advance width="523"/>
  <unicode hex="1235"/>
  <note>
uni1235
</note>
  <anchor x="276" y="763" name="top"/>
  <outline>
    <contour>
      <point x="227" y="585" type="line"/>
      <point x="322" y="585" type="line"/>
      <point x="286" y="668" type="line" smooth="yes"/>
      <point x="282" y="677"/>
      <point x="280" y="685"/>
      <point x="280" y="693" type="curve" smooth="yes"/>
      <point x="281" y="709"/>
      <point x="288" y="722"/>
      <point x="305" y="725" type="curve"/>
      <point x="305" y="763" type="line"/>
      <point x="192" y="760" type="line"/>
      <point x="184" y="751"/>
      <point x="179" y="737"/>
      <point x="179" y="720" type="curve" smooth="yes"/>
      <point x="179" y="707"/>
      <point x="182" y="693"/>
      <point x="188" y="678" type="curve" smooth="yes"/>
    </contour>
    <component base="shortnarch" xOffset="-2"/>
  </outline>
</glyph>
<glyph name="so-ethiopic" format="2">
	<advance width="500"/>
	<unicode hex="1236"/>
	<anchor x="276" y="765" name="top"/>
	<note>
		uni1236
	</note>
	<outline>
		<contour>
			<point x="214" y="585" type="line"/>
			<point x="309" y="585" type="line"/>
			<point x="309" y="682" type="line" smooth="yes"/>
			<point x="309" y="723"/>
			<point x="303" y="750"/>
			<point x="286" y="765" type="curve"/>
			<point x="177" y="756" type="line"/>
			<point x="177" y="718" type="line"/>
			<point x="201" y="717"/>
			<point x="214" y="698"/>
			<point x="214" y="649" type="curve" smooth="yes"/>
		</contour>
		<component base="boshort" xOffset="-2"/>
	</outline>
</glyph>
<glyph name="swa-ethiopic" format="2">
  <advance width="616"/>
  <unicode hex="1237"/>
  <note>
uni1237
</note>
  <anchor x="308" y="765" name="top"/>
  <outline>
    <contour>
      <point x="350" y="3" type="curve"/>
      <point x="479" y="5" type="line"/>
      <point x="479" y="50" type="line"/>
      <point x="446" y="50"/>
      <point x="432" y="64"/>
      <point x="432" y="120" type="curve" smooth="yes"/>
      <point x="432" y="196"/>
      <point x="435" y="343"/>
      <point x="435" y="416" type="curve" smooth="yes"/>
      <point x="435" y="546"/>
      <point x="384" y="613"/>
      <point x="272" y="613" type="curve" smooth="yes"/>
      <point x="136" y="613"/>
      <point x="54" y="524"/>
      <point x="54" y="383" type="curve" smooth="yes"/>
      <point x="54" y="327" type="line" smooth="yes"/>
      <point x="54" y="285"/>
      <point x="59" y="249"/>
      <point x="73" y="229" type="curve"/>
      <point x="202" y="238" type="line"/>
      <point x="202" y="280" type="line"/>
      <point x="169" y="280"/>
      <point x="154" y="294"/>
      <point x="154" y="343" type="curve" smooth="yes"/>
      <point x="154" y="382" type="line" smooth="yes"/>
      <point x="154" y="516"/>
      <point x="192" y="565"/>
      <point x="257" y="565" type="curve" smooth="yes"/>
      <point x="308" y="565"/>
      <point x="334" y="530"/>
      <point x="334" y="419" type="curve" smooth="yes"/>
      <point x="334" y="317"/>
      <point x="331" y="186"/>
      <point x="331" y="94" type="curve" smooth="yes"/>
      <point x="331" y="46"/>
      <point x="337" y="23"/>
    </contour>
    <contour>
      <point x="218" y="585" type="line"/>
      <point x="314" y="585" type="line"/>
      <point x="314" y="682" type="line" smooth="yes"/>
      <point x="314" y="723"/>
      <point x="307" y="750"/>
      <point x="290" y="765" type="curve"/>
      <point x="182" y="756" type="line"/>
      <point x="182" y="718" type="line"/>
      <point x="205" y="717"/>
      <point x="218" y="698"/>
      <point x="218" y="649" type="curve" smooth="yes"/>
    </contour>
    <component base="footlong"/>
  </outline>
</glyph>
<glyph name="sha-ethiopic" format="2">
	<advance width="555"/>
	<unicode hex="1238"/>
	<anchor x="282" y="826" name="top"/>
	<note>
		uni1238
	</note>
	<outline>
		<contour>
			<point x="239" y="585" type="line"/>
			<point x="328" y="585" type="line"/>
			<point x="328" y="726" type="line"/>
			<point x="239" y="726" type="line"/>
		</contour>
		<component base="shortnarch" xOffset="12"/>
		<component base="bonemiddle" xOffset="35"/>
	</outline>
</glyph>
<glyph name="shi-ethiopic" format="2">
  <advance width="675"/>
  <unicode hex="123A"/>
  <note>
uni123A
</note>
  <anchor x="355" y="826" name="top"/>
  <outline>
    <contour>
      <point x="98" y="-5" type="curve"/>
      <point x="227" y="4" type="line"/>
      <point x="227" y="46" type="line"/>
      <point x="194" y="46"/>
      <point x="179" y="60"/>
      <point x="179" y="119" type="curve" smooth="yes"/>
      <point x="179" y="299" type="line" smooth="yes"/>
      <point x="179" y="491"/>
      <point x="221" y="565"/>
      <point x="288" y="565" type="curve" smooth="yes"/>
      <point x="339" y="565"/>
      <point x="359" y="508"/>
      <point x="359" y="393" type="curve" smooth="yes"/>
      <point x="359" y="297"/>
      <point x="356" y="185"/>
      <point x="356" y="93" type="curve" smooth="yes"/>
      <point x="356" y="45"/>
      <point x="362" y="20"/>
      <point x="375" y="0" type="curve"/>
      <point x="504" y="0" type="line"/>
      <point x="504" y="50" type="line"/>
      <point x="471" y="50"/>
      <point x="457" y="64"/>
      <point x="457" y="119" type="curve" smooth="yes"/>
      <point x="457" y="195"/>
      <point x="460" y="323"/>
      <point x="460" y="386" type="curve" smooth="yes"/>
      <point x="460" y="536"/>
      <point x="420" y="613"/>
      <point x="301" y="613" type="curve" smooth="yes"/>
      <point x="168" y="613"/>
      <point x="79" y="515"/>
      <point x="79" y="324" type="curve" smooth="yes"/>
      <point x="79" y="93" type="line" smooth="yes"/>
      <point x="79" y="51"/>
      <point x="84" y="15"/>
    </contour>
    <contour>
      <point x="615" y="-67" type="curve" smooth="yes"/>
      <point x="634" y="-67"/>
      <point x="652" y="-59"/>
      <point x="660" y="-51" type="curve"/>
      <point x="646" y="-36"/>
      <point x="634" y="-13"/>
      <point x="634" y="23" type="curve" smooth="yes"/>
      <point x="634" y="57"/>
      <point x="643" y="80"/>
      <point x="660" y="101" type="curve"/>
      <point x="652" y="108"/>
      <point x="634" y="115"/>
      <point x="615" y="115" type="curve" smooth="yes"/>
      <point x="569" y="115"/>
      <point x="547" y="84"/>
      <point x="541" y="50" type="curve"/>
      <point x="427" y="50" type="line"/>
      <point x="427" y="0" type="line"/>
      <point x="541" y="0" type="line"/>
      <point x="548" y="-36"/>
      <point x="569" y="-67"/>
    </contour>
    <contour>
      <point x="240" y="585" type="line"/>
      <point x="329" y="585" type="line"/>
      <point x="329" y="726" type="line"/>
      <point x="240" y="726" type="line"/>
    </contour>
    <component base="bonemiddle" xOffset="35"/>
  </outline>
</glyph>
<glyph name="shaa-ethiopic" format="2">
	<advance width="545"/>
	<unicode hex="123B"/>
	<anchor x="272" y="826" name="top"/>
	<note>
		uni123B
	</note>
	<outline>
		<contour>
			<point x="228" y="585" type="line"/>
			<point x="317" y="585" type="line"/>
			<point x="317" y="726" type="line"/>
			<point x="228" y="726" type="line"/>
		</contour>
		<component base="bonemiddle" xOffset="25"/>
		<component base="baashort" xOffset="27"/>
	</outline>
</glyph>
<glyph name="shee-ethiopic" format="2">
  <advance width="674"/>
  <unicode hex="123C"/>
  <note>
uni123C
</note>
  <anchor x="354" y="826" name="top"/>
  <outline>
    <contour>
      <point x="99" y="-5" type="curve"/>
      <point x="228" y="4" type="line"/>
      <point x="228" y="46" type="line"/>
      <point x="195" y="46"/>
      <point x="180" y="60"/>
      <point x="180" y="119" type="curve" smooth="yes"/>
      <point x="180" y="299" type="line" smooth="yes"/>
      <point x="180" y="491"/>
      <point x="222" y="565"/>
      <point x="289" y="565" type="curve" smooth="yes"/>
      <point x="340" y="565"/>
      <point x="360" y="508"/>
      <point x="360" y="393" type="curve" smooth="yes"/>
      <point x="360" y="325"/>
      <point x="358" y="280"/>
      <point x="358" y="209" type="curve"/>
      <point x="458" y="194" type="line"/>
      <point x="458" y="262"/>
      <point x="460" y="341"/>
      <point x="460" y="386" type="curve" smooth="yes"/>
      <point x="460" y="536"/>
      <point x="421" y="613"/>
      <point x="302" y="613" type="curve" smooth="yes"/>
      <point x="169" y="613"/>
      <point x="80" y="515"/>
      <point x="80" y="324" type="curve" smooth="yes"/>
      <point x="80" y="93" type="line" smooth="yes"/>
      <point x="80" y="51"/>
      <point x="85" y="15"/>
    </contour>
    <contour>
      <point x="239" y="585" type="line"/>
      <point x="328" y="585" type="line"/>
      <point x="328" y="726" type="line"/>
      <point x="239" y="726" type="line"/>
    </contour>
    <component base="bonemiddle" xOffset="35"/>
    <component base="baselinebowl" xOffset="339"/>
  </outline>
</glyph>
<glyph name="sho-ethiopic" format="2">
  <advance width="555"/>
  <unicode hex="123E"/>
  <note>
uni123E
</note>
  <anchor x="282" y="826" name="top"/>
  <outline>
    <contour>
      <point x="238" y="585" type="line"/>
      <point x="327" y="585" type="line"/>
      <point x="327" y="726" type="line"/>
      <point x="238" y="726" type="line"/>
    </contour>
    <component base="boshort" xOffset="8"/>
    <component base="bonemiddle" xOffset="35"/>
  </outline>
</glyph>
<glyph name="shwa-ethiopic" format="2">
  <advance width="616"/>
  <unicode hex="123F"/>
  <note>
uni123F
</note>
  <anchor x="308" y="826" name="top"/>
  <outline>
    <contour>
      <point x="358" y="5" type="curve"/>
      <point x="487" y="5" type="line"/>
      <point x="487" y="50" type="line"/>
      <point x="454" y="50"/>
      <point x="440" y="64"/>
      <point x="440" y="120" type="curve" smooth="yes"/>
      <point x="440" y="196"/>
      <point x="443" y="343"/>
      <point x="443" y="416" type="curve" smooth="yes"/>
      <point x="443" y="546"/>
      <point x="392" y="613"/>
      <point x="280" y="613" type="curve" smooth="yes"/>
      <point x="144" y="613"/>
      <point x="62" y="524"/>
      <point x="62" y="383" type="curve" smooth="yes"/>
      <point x="62" y="327" type="line" smooth="yes"/>
      <point x="62" y="285"/>
      <point x="67" y="249"/>
      <point x="81" y="229" type="curve"/>
      <point x="210" y="238" type="line"/>
      <point x="210" y="280" type="line"/>
      <point x="177" y="280"/>
      <point x="162" y="294"/>
      <point x="162" y="343" type="curve" smooth="yes"/>
      <point x="162" y="382" type="line" smooth="yes"/>
      <point x="162" y="516"/>
      <point x="200" y="565"/>
      <point x="265" y="565" type="curve" smooth="yes"/>
      <point x="316" y="565"/>
      <point x="342" y="530"/>
      <point x="342" y="419" type="curve" smooth="yes"/>
      <point x="342" y="317"/>
      <point x="339" y="186"/>
      <point x="339" y="94" type="curve" smooth="yes"/>
      <point x="339" y="46"/>
      <point x="345" y="25"/>
    </contour>
    <contour>
      <point x="221" y="585" type="line"/>
      <point x="310" y="585" type="line"/>
      <point x="310" y="726" type="line"/>
      <point x="221" y="726" type="line"/>
    </contour>
    <component base="footlong"/>
    <component base="bonemiddle" xOffset="15"/>
  </outline>
</glyph>
<glyph name="qi-ethiopic" format="2">
  <advance width="523"/>
  <unicode hex="1242"/>
  <note>
uni1242
</note>
  <anchor x="261" y="718" name="top"/>
  <outline>
    <contour>
      <point x="226" y="0" type="curve"/>
      <point x="355" y="0" type="line"/>
      <point x="355" y="50" type="line"/>
      <point x="322" y="50"/>
      <point x="307" y="64"/>
      <point x="307" y="123" type="curve"/>
      <point x="307" y="647" type="line" smooth="yes"/>
      <point x="307" y="678"/>
      <point x="297" y="707"/>
      <point x="283" y="718" type="curve"/>
      <point x="170" y="709" type="line"/>
      <point x="170" y="669" type="line"/>
      <point x="193" y="669"/>
      <point x="207" y="649"/>
      <point x="207" y="610" type="curve" smooth="yes"/>
      <point x="207" y="98" type="line" smooth="yes"/>
      <point x="207" y="50"/>
      <point x="212" y="20"/>
    </contour>
    <component base="rightdoubleflag" xOffset="286"/>
    <component base="midring" yOffset="1"/>
  </outline>
</glyph>
<glyph name="qee-ethiopic" format="2">
  <advance width="518"/>
  <unicode hex="1244"/>
  <note>
uni1244
</note>
  <anchor x="259" y="718" name="top"/>
  <outline>
    <contour>
      <point x="290" y="0" type="curve"/>
      <point x="380" y="0" type="line" smooth="yes"/>
      <point x="461" y="0"/>
      <point x="504" y="52"/>
      <point x="504" y="115" type="curve" smooth="yes"/>
      <point x="504" y="175"/>
      <point x="468" y="203"/>
      <point x="392" y="203" type="curve" smooth="yes"/>
      <point x="307" y="203" type="line"/>
      <point x="307" y="647" type="line" smooth="yes"/>
      <point x="307" y="678"/>
      <point x="298" y="707"/>
      <point x="284" y="718" type="curve"/>
      <point x="171" y="709" type="line"/>
      <point x="171" y="669" type="line"/>
      <point x="194" y="669"/>
      <point x="208" y="649"/>
      <point x="208" y="610" type="curve" smooth="yes"/>
      <point x="208" y="103" type="line" smooth="yes"/>
      <point x="208" y="41"/>
      <point x="236" y="12"/>
    </contour>
    <contour>
      <point x="353" y="35" type="curve" smooth="yes"/>
      <point x="323" y="35"/>
      <point x="307" y="54"/>
      <point x="307" y="110" type="curve" smooth="yes"/>
      <point x="307" y="167" type="line"/>
      <point x="359" y="167" type="line" smooth="yes"/>
      <point x="396" y="167"/>
      <point x="412" y="151"/>
      <point x="412" y="112" type="curve" smooth="yes"/>
      <point x="412" y="62"/>
      <point x="391" y="35"/>
    </contour>
    <component base="midringshort" yOffset="42"/>
  </outline>
</glyph>
<glyph name="qe-ethiopic" format="2">
	<advance width="521"/>
	<unicode hex="1245"/>
	<anchor x="260" y="819" name="top"/>
	<note>
		uni1245
	</note>
	<outline>
		<contour>
			<point x="235" y="-5" type="curve"/>
			<point x="350" y="4" type="line"/>
			<point x="350" y="44" type="line"/>
			<point x="326" y="44"/>
			<point x="311" y="57"/>
			<point x="311" y="111" type="curve"/>
			<point x="311" y="649" type="line" smooth="yes"/>
			<point x="311" y="676"/>
			<point x="304" y="703"/>
			<point x="288" y="714" type="curve"/>
			<point x="132" y="714" type="line"/>
			<point x="132" y="721"/>
			<point x="133" y="728"/>
			<point x="133" y="737" type="curve" smooth="yes"/>
			<point x="133" y="783"/>
			<point x="107" y="819"/>
			<point x="59" y="819" type="curve" smooth="yes"/>
			<point x="42" y="819"/>
			<point x="25" y="813"/>
			<point x="14" y="803" type="curve"/>
			<point x="30" y="786"/>
			<point x="39" y="756"/>
			<point x="39" y="720" type="curve" smooth="yes"/>
			<point x="39" y="696"/>
			<point x="35" y="673"/>
			<point x="32" y="664" type="curve"/>
			<point x="175" y="664" type="line" smooth="yes"/>
			<point x="202" y="664"/>
			<point x="212" y="649"/>
			<point x="212" y="610" type="curve" smooth="yes"/>
			<point x="212" y="73" type="line"/>
			<point x="212" y="35"/>
			<point x="221" y="12"/>
		</contour>
		<component base="midring" xOffset="2" yOffset="9"/>
	</outline>
</glyph>
<glyph name="qoa-ethiopic" format="2">
  <advance width="514"/>
  <unicode hex="1247"/>
  <note>
uni1247
</note>
  <anchor x="257" y="770" name="top"/>
  <outline>
    <contour>
      <point x="92" y="-67" type="curve" smooth="yes"/>
      <point x="138" y="-67"/>
      <point x="160" y="-36"/>
      <point x="166" y="0" type="curve"/>
      <point x="281" y="0" type="line"/>
      <point x="295" y="11"/>
      <point x="304" y="38"/>
      <point x="304" y="71" type="curve" smooth="yes"/>
      <point x="304" y="485" type="line" smooth="yes"/>
      <point x="304" y="515"/>
      <point x="307" y="526"/>
      <point x="323" y="543" type="curve" smooth="yes"/>
      <point x="354" y="575"/>
      <point x="383" y="596"/>
      <point x="383" y="659" type="curve" smooth="yes"/>
      <point x="383" y="737"/>
      <point x="340" y="770"/>
      <point x="258" y="770" type="curve" smooth="yes"/>
      <point x="179" y="770"/>
      <point x="132" y="736"/>
      <point x="132" y="653" type="curve" smooth="yes"/>
      <point x="132" y="582"/>
      <point x="171" y="552"/>
      <point x="225" y="543" type="curve"/>
      <point x="213" y="527"/>
      <point x="209" y="506"/>
      <point x="209" y="483" type="curve" smooth="yes"/>
      <point x="209" y="104" type="line" smooth="yes"/>
      <point x="209" y="65"/>
      <point x="199" y="50"/>
      <point x="174" y="50" type="curve" smooth="yes"/>
      <point x="166" y="50" type="line"/>
      <point x="160" y="84"/>
      <point x="138" y="115"/>
      <point x="92" y="115" type="curve" smooth="yes"/>
      <point x="73" y="115"/>
      <point x="56" y="108"/>
      <point x="47" y="101" type="curve"/>
      <point x="64" y="80"/>
      <point x="73" y="57"/>
      <point x="73" y="23" type="curve" smooth="yes"/>
      <point x="73" y="-13"/>
      <point x="61" y="-36"/>
      <point x="47" y="-51" type="curve"/>
      <point x="56" y="-59"/>
      <point x="73" y="-67"/>
    </contour>
    <contour>
      <point x="264" y="577" type="curve"/>
      <point x="231" y="584"/>
      <point x="215" y="608"/>
      <point x="215" y="654" type="curve" smooth="yes"/>
      <point x="215" y="701"/>
      <point x="230" y="724"/>
      <point x="258" y="724" type="curve" smooth="yes"/>
      <point x="285" y="724"/>
      <point x="300" y="703"/>
      <point x="300" y="658" type="curve" smooth="yes"/>
      <point x="300" y="620"/>
      <point x="287" y="598"/>
    </contour>
    <component base="midringshort" yOffset="-81"/>
  </outline>
</glyph>
<glyph name="qwaa-ethiopic" format="2">
  <advance width="534"/>
  <unicode hex="124B"/>
  <note>
uni124B
</note>
  <anchor x="267" y="718" name="top"/>
  <outline>
    <contour>
      <point x="220" y="154" type="line"/>
      <point x="319" y="154" type="line"/>
      <point x="319" y="647" type="line" smooth="yes"/>
      <point x="319" y="678"/>
      <point x="310" y="707"/>
      <point x="296" y="718" type="curve"/>
      <point x="183" y="709" type="line"/>
      <point x="183" y="669" type="line"/>
      <point x="206" y="669"/>
      <point x="220" y="649"/>
      <point x="220" y="610" type="curve" smooth="yes"/>
    </contour>
    <contour>
      <point x="193" y="129" type="line"/>
      <point x="480" y="129" type="line"/>
      <point x="480" y="179" type="line"/>
      <point x="193" y="179" type="line"/>
    </contour>
    <contour>
      <point x="404" y="-5" type="curve"/>
      <point x="520" y="4" type="line"/>
      <point x="520" y="44" type="line"/>
      <point x="495" y="44"/>
      <point x="480" y="57"/>
      <point x="480" y="111" type="curve" smooth="yes"/>
      <point x="480" y="174" type="line"/>
      <point x="381" y="174" type="line"/>
      <point x="381" y="73" type="line" smooth="yes"/>
      <point x="381" y="35"/>
      <point x="390" y="12"/>
    </contour>
    <component base="midring" xOffset="10" yOffset="25"/>
    <component base="leftsingleflag" xOffset="-1" yOffset="-225"/>
  </outline>
</glyph>
<glyph name="qwee-ethiopic" format="2">
  <advance width="518"/>
  <unicode hex="124C"/>
  <note>
uni1244
</note>
  <anchor x="259" y="718" name="top"/>
  <outline>
    <contour>
      <point x="79" y="-105" type="curve" smooth="yes"/>
      <point x="131" y="-105"/>
      <point x="159" y="-69"/>
      <point x="159" y="-23" type="curve" smooth="yes"/>
      <point x="159" y="-14"/>
      <point x="158" y="-7"/>
      <point x="157" y="0" type="curve"/>
      <point x="330" y="0" type="line"/>
      <point x="280" y="50" type="line"/>
      <point x="49" y="50" type="line"/>
      <point x="53" y="41"/>
      <point x="57" y="18"/>
      <point x="57" y="-6" type="curve" smooth="yes"/>
      <point x="57" y="-42"/>
      <point x="47" y="-72"/>
      <point x="30" y="-89" type="curve"/>
      <point x="42" y="-99"/>
      <point x="60" y="-105"/>
    </contour>
    <component base="qee-ethiopic"/>
  </outline>
</glyph>
<glyph name="qha-ethiopic" format="2">
  <advance width="539"/>
  <unicode hex="1250"/>
  <note>
uni1250
</note>
  <anchor x="269" y="826" name="top"/>
  <outline>
    <contour>
      <point x="243" y="-5" type="curve"/>
      <point x="358" y="4" type="line"/>
      <point x="358" y="44" type="line"/>
      <point x="333" y="44"/>
      <point x="319" y="57"/>
      <point x="319" y="111" type="curve" smooth="yes"/>
      <point x="319" y="738" type="line"/>
      <point x="220" y="738" type="line"/>
      <point x="220" y="73" type="line" smooth="yes"/>
      <point x="220" y="35"/>
      <point x="229" y="12"/>
    </contour>
    <component base="midring" xOffset="10" yOffset="21"/>
    <component base="bonemiddle" xOffset="19"/>
  </outline>
</glyph>
<glyph name="qhi-ethiopic" format="2">
  <advance width="547"/>
  <unicode hex="1252"/>
  <note>
uni1252
</note>
  <anchor x="273" y="826" name="top"/>
  <outline>
    <contour>
      <point x="240" y="0" type="curve"/>
      <point x="368" y="0" type="line"/>
      <point x="368" y="50" type="line"/>
      <point x="336" y="50"/>
      <point x="321" y="64"/>
      <point x="321" y="123" type="curve" smooth="yes"/>
      <point x="321" y="738" type="line"/>
      <point x="222" y="738" type="line"/>
      <point x="222" y="98" type="line" smooth="yes"/>
      <point x="222" y="50"/>
      <point x="226" y="20"/>
    </contour>
    <component base="midring" xOffset="10" yOffset="19"/>
    <component base="bonemiddle" xOffset="23"/>
    <component base="rightdoubleflag" xOffset="300"/>
  </outline>
</glyph>
<glyph name="qhaa-ethiopic" format="2">
  <advance width="549"/>
  <unicode hex="1253"/>
  <note>
uni1253
</note>
  <anchor x="270" y="826" name="top"/>
  <outline>
    <contour>
      <point x="55" y="-99" type="curve" smooth="yes"/>
      <point x="99" y="-99"/>
      <point x="125" y="-61"/>
      <point x="125" y="-21" type="curve" smooth="yes"/>
      <point x="125" y="-16"/>
      <point x="125" y="-13"/>
      <point x="124" y="-5" type="curve"/>
      <point x="128" y="-5" type="line" smooth="yes"/>
      <point x="255" y="-5"/>
      <point x="328" y="93"/>
      <point x="328" y="243" type="curve" smooth="yes"/>
      <point x="328" y="732" type="line"/>
      <point x="232" y="732" type="line"/>
      <point x="232" y="248" type="line" smooth="yes"/>
      <point x="232" y="111"/>
      <point x="192" y="43"/>
      <point x="86" y="43" type="curve" smooth="yes"/>
      <point x="28" y="43" type="line"/>
      <point x="31" y="31"/>
      <point x="33" y="16"/>
      <point x="33" y="-2" type="curve" smooth="yes"/>
      <point x="33" y="-36"/>
      <point x="27" y="-68"/>
      <point x="15" y="-88" type="curve"/>
      <point x="24" y="-93"/>
      <point x="37" y="-99"/>
    </contour>
    <component base="midring" xOffset="20"/>
    <component base="bonemiddle" xOffset="33"/>
  </outline>
</glyph>
<glyph name="qhee-ethiopic" format="2">
  <advance width="530"/>
  <unicode hex="1254"/>
  <note>
uni1254
</note>
  <anchor x="269" y="826" name="top"/>
  <outline>
    <contour>
      <point x="302" y="0" type="curve"/>
      <point x="391" y="0" type="line" smooth="yes"/>
      <point x="472" y="0"/>
      <point x="515" y="52"/>
      <point x="515" y="115" type="curve" smooth="yes"/>
      <point x="515" y="175"/>
      <point x="479" y="203"/>
      <point x="403" y="203" type="curve" smooth="yes"/>
      <point x="318" y="203" type="line"/>
      <point x="318" y="751" type="line"/>
      <point x="219" y="751" type="line"/>
      <point x="219" y="103" type="line" smooth="yes"/>
      <point x="219" y="41"/>
      <point x="247" y="12"/>
    </contour>
    <contour>
      <point x="364" y="35" type="curve" smooth="yes"/>
      <point x="334" y="35"/>
      <point x="318" y="54"/>
      <point x="318" y="110" type="curve" smooth="yes"/>
      <point x="318" y="167" type="line"/>
      <point x="370" y="167" type="line" smooth="yes"/>
      <point x="407" y="167"/>
      <point x="423" y="151"/>
      <point x="423" y="112" type="curve" smooth="yes"/>
      <point x="423" y="62"/>
      <point x="403" y="35"/>
    </contour>
    <component base="midringshort" xOffset="10" yOffset="52"/>
    <component base="bonemiddle" xOffset="18"/>
  </outline>
</glyph>
<glyph name="qhe-ethiopic" format="2">
  <advance width="577"/>
  <unicode hex="1255"/>
  <note>
uni1255
</note>
  <anchor x="289" y="825" name="top"/>
  <outline>
    <contour>
      <point x="274" y="-5" type="curve"/>
      <point x="392" y="4" type="line"/>
      <point x="392" y="44" type="line"/>
      <point x="362" y="44"/>
      <point x="349" y="63"/>
      <point x="349" y="98" type="curve" smooth="yes"/>
      <point x="349" y="152"/>
      <point x="397" y="470"/>
      <point x="397" y="517" type="curve" smooth="yes"/>
      <point x="397" y="559"/>
      <point x="378" y="588"/>
      <point x="327" y="588" type="curve" smooth="yes"/>
      <point x="272" y="588" type="line"/>
      <point x="272" y="730" type="line"/>
      <point x="173" y="730" type="line"/>
      <point x="173" y="535" type="line"/>
      <point x="247" y="535" type="line" smooth="yes"/>
      <point x="281" y="535"/>
      <point x="297" y="523"/>
      <point x="297" y="484" type="curve" smooth="yes"/>
      <point x="297" y="424"/>
      <point x="249" y="136"/>
      <point x="249" y="70" type="curve" smooth="yes"/>
      <point x="249" y="31"/>
      <point x="258" y="9"/>
    </contour>
    <component base="midringshort" xOffset="63" yOffset="-106"/>
    <component base="bone" yOffset="-5"/>
  </outline>
</glyph>
<glyph name="qho-ethiopic" format="2">
  <advance width="555"/>
  <unicode hex="1256"/>
  <note>
uni1256
</note>
  <anchor x="277" y="825" name="top"/>
  <outline>
    <contour>
      <point x="257" y="-5" type="curve"/>
      <point x="368" y="4" type="line"/>
      <point x="368" y="43" type="line"/>
      <point x="344" y="43"/>
      <point x="329" y="56"/>
      <point x="329" y="110" type="curve" smooth="yes"/>
      <point x="329" y="375" type="line" smooth="yes"/>
      <point x="329" y="405"/>
      <point x="332" y="416"/>
      <point x="348" y="433" type="curve" smooth="yes"/>
      <point x="380" y="466"/>
      <point x="414" y="486"/>
      <point x="414" y="561" type="curve" smooth="yes"/>
      <point x="414" y="647"/>
      <point x="366" y="680"/>
      <point x="283" y="680" type="curve" smooth="yes"/>
      <point x="203" y="680"/>
      <point x="150" y="646"/>
      <point x="150" y="555" type="curve" smooth="yes"/>
      <point x="150" y="472"/>
      <point x="195" y="442"/>
      <point x="250" y="433" type="curve"/>
      <point x="238" y="417"/>
      <point x="234" y="396"/>
      <point x="234" y="373" type="curve" smooth="yes"/>
      <point x="234" y="73" type="line" smooth="yes"/>
      <point x="234" y="35"/>
      <point x="243" y="12"/>
    </contour>
    <contour>
      <point x="289" y="467" type="curve"/>
      <point x="256" y="474"/>
      <point x="233" y="498"/>
      <point x="233" y="556" type="curve" smooth="yes"/>
      <point x="233" y="611"/>
      <point x="255" y="634"/>
      <point x="283" y="634" type="curve" smooth="yes"/>
      <point x="311" y="634"/>
      <point x="331" y="613"/>
      <point x="331" y="560" type="curve" smooth="yes"/>
      <point x="331" y="510"/>
      <point x="312" y="488"/>
    </contour>
    <contour>
      <point x="234" y="653" type="line"/>
      <point x="329" y="653" type="line"/>
      <point x="329" y="734" type="line"/>
      <point x="234" y="734" type="line"/>
    </contour>
    <component base="bonelong" xOffset="9" yOffset="-2"/>
    <component base="midringshort" xOffset="26" yOffset="-138"/>
  </outline>
</glyph>
<glyph name="qhwa-ethiopic" format="2">
  <advance width="683"/>
  <unicode hex="1258"/>
  <note>
uni1258
</note>
  <anchor x="346" y="826" name="top"/>
  <outline>
    <contour>
      <point x="240" y="-5" type="curve"/>
      <point x="355" y="4" type="line"/>
      <point x="355" y="43" type="line"/>
      <point x="331" y="43"/>
      <point x="316" y="56"/>
      <point x="316" y="110" type="curve" smooth="yes"/>
      <point x="316" y="738" type="line"/>
      <point x="217" y="738" type="line"/>
      <point x="217" y="73" type="line" smooth="yes"/>
      <point x="217" y="35"/>
      <point x="226" y="12"/>
    </contour>
    <component base="rightbulbsmall" xOffset="304" yOffset="-158"/>
    <component base="midringshort" xOffset="10" yOffset="64"/>
    <component base="bonemiddle" xOffset="18"/>
  </outline>
</glyph>
<glyph name="qhwaa-ethiopic" format="2">
  <advance width="557"/>
  <unicode hex="125B"/>
  <note>
uni125B
</note>
  <anchor x="278" y="826" name="top"/>
  <outline>
    <contour>
      <point x="230" y="171" type="line"/>
      <point x="329" y="171" type="line"/>
      <point x="329" y="738" type="line"/>
      <point x="230" y="738" type="line"/>
    </contour>
    <contour>
      <point x="191" y="143" type="line"/>
      <point x="484" y="143" type="line"/>
      <point x="484" y="193" type="line"/>
      <point x="191" y="193" type="line"/>
    </contour>
    <contour>
      <point x="416" y="-5" type="curve"/>
      <point x="523" y="4" type="line"/>
      <point x="523" y="43" type="line"/>
      <point x="498" y="43"/>
      <point x="484" y="56"/>
      <point x="484" y="110" type="curve" smooth="yes"/>
      <point x="484" y="193" type="line"/>
      <point x="393" y="193" type="line"/>
      <point x="393" y="73" type="line" smooth="yes"/>
      <point x="393" y="35"/>
      <point x="402" y="12"/>
    </contour>
    <component base="midringshort" xOffset="20" yOffset="49"/>
    <component base="leftsingleflag" xOffset="30" yOffset="-211"/>
    <component base="bonemiddle" xOffset="29"/>
  </outline>
</glyph>
<glyph name="qhwee-ethiopic" format="2">
  <advance width="559"/>
  <unicode hex="125C"/>
  <note>
uni125C
</note>
  <anchor x="279" y="826" name="top"/>
  <outline>
    <contour>
      <point x="185" y="0" type="line"/>
      <point x="334" y="0" type="line"/>
      <point x="334" y="50" type="line"/>
      <point x="185" y="50" type="line"/>
    </contour>
    <component base="qhee-ethiopic" xOffset="10"/>
    <component base="leftsingleflag" xOffset="20" yOffset="-354"/>
  </outline>
</glyph>
<glyph name="bu-ethiopic" format="2">
  <advance width="663"/>
  <unicode hex="1261"/>
  <note>
uni1261
</note>
  <anchor x="361" y="726" name="top"/>
  <outline>
    <contour>
      <point x="85" y="-4" type="curve"/>
      <point x="214" y="5" type="line"/>
      <point x="214" y="47" type="line"/>
      <point x="181" y="47"/>
      <point x="167" y="61"/>
      <point x="167" y="120" type="curve" smooth="yes"/>
      <point x="167" y="430" type="line" smooth="yes"/>
      <point x="167" y="610"/>
      <point x="208" y="678"/>
      <point x="276" y="678" type="curve" smooth="yes"/>
      <point x="329" y="678"/>
      <point x="348" y="627"/>
      <point x="348" y="532" type="curve" smooth="yes"/>
      <point x="348" y="408"/>
      <point x="346" y="246"/>
      <point x="346" y="94" type="curve" smooth="yes"/>
      <point x="346" y="46"/>
      <point x="351" y="16"/>
      <point x="365" y="-4" type="curve"/>
      <point x="494" y="5" type="line"/>
      <point x="494" y="47" type="line"/>
      <point x="461" y="47"/>
      <point x="447" y="61"/>
      <point x="447" y="120" type="curve" smooth="yes"/>
      <point x="447" y="256"/>
      <point x="450" y="434"/>
      <point x="450" y="525" type="curve" smooth="yes"/>
      <point x="450" y="655"/>
      <point x="410" y="726"/>
      <point x="290" y="726" type="curve" smooth="yes"/>
      <point x="155" y="726"/>
      <point x="66" y="623"/>
      <point x="66" y="445" type="curve" smooth="yes"/>
      <point x="66" y="94" type="line" smooth="yes"/>
      <point x="66" y="52"/>
      <point x="71" y="16"/>
    </contour>
    <component base="rightdoubleflag" xOffset="435" yOffset="299"/>
  </outline>
</glyph>
<glyph name="bi-ethiopic" format="2">
  <advance width="673"/>
  <unicode hex="1262"/>
  <note>
uni1262
</note>
  <anchor x="362" y="726" name="top"/>
  <outline>
    <contour>
      <point x="613" y="-67" type="curve" smooth="yes"/>
      <point x="632" y="-67"/>
      <point x="650" y="-59"/>
      <point x="658" y="-51" type="curve"/>
      <point x="644" y="-36"/>
      <point x="632" y="-13"/>
      <point x="632" y="23" type="curve" smooth="yes"/>
      <point x="632" y="57"/>
      <point x="641" y="80"/>
      <point x="658" y="101" type="curve"/>
      <point x="650" y="108"/>
      <point x="632" y="115"/>
      <point x="613" y="115" type="curve" smooth="yes"/>
      <point x="567" y="115"/>
      <point x="545" y="84"/>
      <point x="539" y="50" type="curve"/>
      <point x="494" y="50" type="line" smooth="yes"/>
      <point x="461" y="50"/>
      <point x="447" y="64"/>
      <point x="447" y="120" type="curve" smooth="yes"/>
      <point x="447" y="256"/>
      <point x="450" y="434"/>
      <point x="450" y="525" type="curve" smooth="yes"/>
      <point x="450" y="655"/>
      <point x="410" y="726"/>
      <point x="290" y="726" type="curve" smooth="yes"/>
      <point x="155" y="726"/>
      <point x="66" y="623"/>
      <point x="66" y="445" type="curve" smooth="yes"/>
      <point x="66" y="94" type="line" smooth="yes"/>
      <point x="66" y="52"/>
      <point x="71" y="16"/>
      <point x="85" y="-4" type="curve"/>
      <point x="214" y="5" type="line"/>
      <point x="214" y="47" type="line"/>
      <point x="181" y="47"/>
      <point x="167" y="61"/>
      <point x="167" y="120" type="curve" smooth="yes"/>
      <point x="167" y="430" type="line" smooth="yes"/>
      <point x="167" y="610"/>
      <point x="208" y="678"/>
      <point x="276" y="678" type="curve" smooth="yes"/>
      <point x="329" y="678"/>
      <point x="348" y="627"/>
      <point x="348" y="532" type="curve" smooth="yes"/>
      <point x="348" y="408"/>
      <point x="346" y="246"/>
      <point x="346" y="94" type="curve" smooth="yes"/>
      <point x="346" y="50"/>
      <point x="351" y="20"/>
      <point x="365" y="0" type="curve"/>
      <point x="539" y="0" type="line"/>
      <point x="546" y="-36"/>
      <point x="567" y="-67"/>
    </contour>
  </outline>
</glyph>
<glyph name="baa-ethiopic" format="2">
  <advance width="515"/>
  <unicode hex="1263"/>
  <note>
uni1263
</note>
  <anchor x="266" y="726" name="top"/>
  <outline>
    <contour>
      <point x="351" y="-4" type="curve"/>
      <point x="480" y="5" type="line"/>
      <point x="480" y="47" type="line"/>
      <point x="447" y="47"/>
      <point x="433" y="61"/>
      <point x="433" y="120" type="curve" smooth="yes"/>
      <point x="433" y="256"/>
      <point x="436" y="434"/>
      <point x="436" y="525" type="curve" smooth="yes"/>
      <point x="436" y="655"/>
      <point x="396" y="726"/>
      <point x="276" y="726" type="curve" smooth="yes"/>
      <point x="141" y="726"/>
      <point x="52" y="623"/>
      <point x="52" y="445" type="curve" smooth="yes"/>
      <point x="52" y="337" type="line" smooth="yes"/>
      <point x="52" y="295"/>
      <point x="57" y="259"/>
      <point x="71" y="239" type="curve"/>
      <point x="200" y="248" type="line"/>
      <point x="200" y="290" type="line"/>
      <point x="167" y="290"/>
      <point x="153" y="304"/>
      <point x="153" y="363" type="curve" smooth="yes"/>
      <point x="153" y="430" type="line" smooth="yes"/>
      <point x="153" y="610"/>
      <point x="194" y="678"/>
      <point x="262" y="678" type="curve" smooth="yes"/>
      <point x="315" y="678"/>
      <point x="334" y="627"/>
      <point x="334" y="532" type="curve" smooth="yes"/>
      <point x="334" y="408"/>
      <point x="332" y="246"/>
      <point x="332" y="94" type="curve" smooth="yes"/>
      <point x="332" y="46"/>
      <point x="337" y="16"/>
    </contour>
  </outline>
</glyph>
<glyph name="bee-ethiopic" format="2">
  <advance width="663"/>
  <unicode hex="1264"/>
  <note>
uni1264
</note>
  <anchor x="357" y="726" name="top"/>
  <outline>
    <contour>
      <point x="85" y="-4" type="curve"/>
      <point x="214" y="5" type="line"/>
      <point x="214" y="47" type="line"/>
      <point x="181" y="47"/>
      <point x="167" y="61"/>
      <point x="167" y="120" type="curve" smooth="yes"/>
      <point x="167" y="430" type="line" smooth="yes"/>
      <point x="167" y="610"/>
      <point x="208" y="678"/>
      <point x="276" y="678" type="curve" smooth="yes"/>
      <point x="329" y="678"/>
      <point x="348" y="627"/>
      <point x="348" y="532" type="curve" smooth="yes"/>
      <point x="348" y="433"/>
      <point x="346" y="248"/>
      <point x="346" y="83" type="curve" smooth="yes"/>
      <point x="346" y="35"/>
      <point x="369" y="9"/>
      <point x="406" y="0" type="curve"/>
      <point x="522" y="0" type="line" smooth="yes"/>
      <point x="604" y="0"/>
      <point x="648" y="57"/>
      <point x="648" y="126" type="curve" smooth="yes"/>
      <point x="648" y="191"/>
      <point x="612" y="222"/>
      <point x="535" y="222" type="curve" smooth="yes"/>
      <point x="446" y="222" type="line"/>
      <point x="446" y="290"/>
      <point x="450" y="442"/>
      <point x="450" y="525" type="curve" smooth="yes"/>
      <point x="450" y="655"/>
      <point x="410" y="726"/>
      <point x="290" y="726" type="curve" smooth="yes"/>
      <point x="155" y="726"/>
      <point x="66" y="623"/>
      <point x="66" y="445" type="curve" smooth="yes"/>
      <point x="66" y="94" type="line" smooth="yes"/>
      <point x="66" y="52"/>
      <point x="71" y="16"/>
    </contour>
    <contour>
      <point x="495" y="35" type="curve" smooth="yes"/>
      <point x="463" y="35"/>
      <point x="446" y="47"/>
      <point x="446" y="90" type="curve" smooth="yes"/>
      <point x="446" y="184" type="line"/>
      <point x="501" y="184" type="line" smooth="yes"/>
      <point x="539" y="184"/>
      <point x="556" y="166"/>
      <point x="556" y="122" type="curve" smooth="yes"/>
      <point x="556" y="66"/>
      <point x="534" y="35"/>
    </contour>
  </outline>
</glyph>
<glyph name="bo-ethiopic" format="2">
  <advance width="516"/>
  <unicode hex="1266"/>
  <note>
uni1266
</note>
  <anchor x="280" y="726" name="top"/>
  <outline>
    <contour>
      <point x="85" y="-4" type="curve"/>
      <point x="214" y="5" type="line"/>
      <point x="214" y="47" type="line"/>
      <point x="181" y="47"/>
      <point x="167" y="61"/>
      <point x="167" y="120" type="curve" smooth="yes"/>
      <point x="167" y="430" type="line" smooth="yes"/>
      <point x="167" y="610"/>
      <point x="208" y="678"/>
      <point x="276" y="678" type="curve" smooth="yes"/>
      <point x="329" y="678"/>
      <point x="348" y="627"/>
      <point x="348" y="532" type="curve" smooth="yes"/>
      <point x="348" y="468"/>
      <point x="347" y="389"/>
      <point x="347" y="327" type="curve" smooth="yes"/>
      <point x="347" y="279"/>
      <point x="352" y="249"/>
      <point x="366" y="229" type="curve"/>
      <point x="495" y="238" type="line"/>
      <point x="495" y="280" type="line"/>
      <point x="462" y="280"/>
      <point x="448" y="294"/>
      <point x="448" y="353" type="curve" smooth="yes"/>
      <point x="448" y="419"/>
      <point x="450" y="494"/>
      <point x="450" y="525" type="curve" smooth="yes"/>
      <point x="450" y="655"/>
      <point x="410" y="726"/>
      <point x="290" y="726" type="curve" smooth="yes"/>
      <point x="155" y="726"/>
      <point x="66" y="623"/>
      <point x="66" y="445" type="curve" smooth="yes"/>
      <point x="66" y="94" type="line" smooth="yes"/>
      <point x="66" y="52"/>
      <point x="71" y="16"/>
    </contour>
  </outline>
</glyph>
<glyph name="bwa-ethiopic" format="2">
  <advance width="621"/>
  <unicode hex="1267"/>
  <note>
uni1267
</note>
  <anchor x="313" y="726" name="top"/>
  <outline>
    <contour>
      <point x="343" y="21" type="line"/>
      <point x="445" y="21" type="line"/>
      <point x="445" y="525" type="line" smooth="yes"/>
      <point x="445" y="655"/>
      <point x="406" y="726"/>
      <point x="286" y="726" type="curve" smooth="yes"/>
      <point x="151" y="726"/>
      <point x="62" y="623"/>
      <point x="62" y="445" type="curve" smooth="yes"/>
      <point x="62" y="337" type="line" smooth="yes"/>
      <point x="62" y="295"/>
      <point x="67" y="259"/>
      <point x="81" y="239" type="curve"/>
      <point x="210" y="248" type="line"/>
      <point x="210" y="290" type="line"/>
      <point x="177" y="290"/>
      <point x="163" y="304"/>
      <point x="163" y="363" type="curve" smooth="yes"/>
      <point x="163" y="430" type="line" smooth="yes"/>
      <point x="163" y="610"/>
      <point x="204" y="678"/>
      <point x="272" y="678" type="curve" smooth="yes"/>
      <point x="325" y="678"/>
      <point x="343" y="627"/>
      <point x="343" y="532" type="curve" smooth="yes"/>
    </contour>
    <component base="footlong" xOffset="5"/>
  </outline>
</glyph>
<glyph name="vi-ethiopic" format="2">
  <advance width="668"/>
  <unicode hex="126A"/>
  <note>
uni126A
</note>
  <anchor x="359" y="825" name="top"/>
  <outline>
    <contour>
      <point x="85" y="-5" type="curve"/>
      <point x="214" y="4" type="line"/>
      <point x="214" y="46" type="line"/>
      <point x="181" y="46"/>
      <point x="166" y="60"/>
      <point x="166" y="119" type="curve" smooth="yes"/>
      <point x="166" y="299" type="line" smooth="yes"/>
      <point x="166" y="491"/>
      <point x="208" y="565"/>
      <point x="275" y="565" type="curve" smooth="yes"/>
      <point x="326" y="565"/>
      <point x="346" y="508"/>
      <point x="346" y="393" type="curve" smooth="yes"/>
      <point x="346" y="297"/>
      <point x="343" y="185"/>
      <point x="343" y="93" type="curve" smooth="yes"/>
      <point x="343" y="45"/>
      <point x="349" y="20"/>
      <point x="362" y="0" type="curve"/>
      <point x="491" y="0" type="line"/>
      <point x="491" y="50" type="line"/>
      <point x="458" y="50"/>
      <point x="444" y="64"/>
      <point x="444" y="119" type="curve" smooth="yes"/>
      <point x="444" y="195"/>
      <point x="447" y="323"/>
      <point x="447" y="386" type="curve" smooth="yes"/>
      <point x="447" y="536"/>
      <point x="407" y="613"/>
      <point x="288" y="613" type="curve" smooth="yes"/>
      <point x="155" y="613"/>
      <point x="66" y="515"/>
      <point x="66" y="324" type="curve" smooth="yes"/>
      <point x="66" y="93" type="line" smooth="yes"/>
      <point x="66" y="51"/>
      <point x="71" y="15"/>
    </contour>
    <component base="bone" xOffset="56" yOffset="-5"/>
    <component base="rightdoubleflag" xOffset="430"/>
  </outline>
</glyph>
<glyph name="vee-ethiopic" format="2">
  <advance width="661"/>
  <unicode hex="126C"/>
  <note>
uni126C
</note>
  <anchor x="356" y="825" name="top"/>
  <outline>
    <contour>
      <point x="85" y="-5" type="curve"/>
      <point x="214" y="4" type="line"/>
      <point x="214" y="46" type="line"/>
      <point x="181" y="46"/>
      <point x="166" y="60"/>
      <point x="166" y="119" type="curve" smooth="yes"/>
      <point x="166" y="299" type="line" smooth="yes"/>
      <point x="166" y="491"/>
      <point x="208" y="565"/>
      <point x="275" y="565" type="curve" smooth="yes"/>
      <point x="326" y="565"/>
      <point x="346" y="508"/>
      <point x="346" y="393" type="curve" smooth="yes"/>
      <point x="346" y="347"/>
      <point x="344" y="199"/>
      <point x="344" y="83" type="curve" smooth="yes"/>
      <point x="344" y="35"/>
      <point x="367" y="9"/>
      <point x="404" y="0" type="curve"/>
      <point x="521" y="0" type="line" smooth="yes"/>
      <point x="603" y="0"/>
      <point x="646" y="57"/>
      <point x="646" y="126" type="curve" smooth="yes"/>
      <point x="646" y="191"/>
      <point x="610" y="222"/>
      <point x="533" y="222" type="curve" smooth="yes"/>
      <point x="445" y="222" type="line"/>
      <point x="445" y="258"/>
      <point x="447" y="347"/>
      <point x="447" y="386" type="curve" smooth="yes"/>
      <point x="447" y="536"/>
      <point x="407" y="613"/>
      <point x="288" y="613" type="curve" smooth="yes"/>
      <point x="155" y="613"/>
      <point x="66" y="515"/>
      <point x="66" y="324" type="curve" smooth="yes"/>
      <point x="66" y="93" type="line" smooth="yes"/>
      <point x="66" y="51"/>
      <point x="71" y="15"/>
    </contour>
    <contour>
      <point x="493" y="35" type="curve" smooth="yes"/>
      <point x="461" y="35"/>
      <point x="445" y="47"/>
      <point x="445" y="90" type="curve" smooth="yes"/>
      <point x="445" y="184" type="line"/>
      <point x="499" y="184" type="line" smooth="yes"/>
      <point x="537" y="184"/>
      <point x="554" y="166"/>
      <point x="554" y="122" type="curve" smooth="yes"/>
      <point x="554" y="66"/>
      <point x="533" y="35"/>
    </contour>
    <component base="bone" xOffset="66" yOffset="-5"/>
  </outline>
</glyph>
<glyph name="vwa-ethiopic" format="2">
  <advance width="616"/>
  <unicode hex="126F"/>
  <note>
uni126F
</note>
  <anchor x="308" y="826" name="top"/>
  <outline>
    <contour>
      <point x="347" y="24" type="curve"/>
      <point x="448" y="24" type="line"/>
      <point x="448" y="113"/>
      <point x="451" y="323"/>
      <point x="451" y="396" type="curve" smooth="yes"/>
      <point x="451" y="536"/>
      <point x="411" y="613"/>
      <point x="289" y="613" type="curve" smooth="yes"/>
      <point x="153" y="613"/>
      <point x="70" y="514"/>
      <point x="70" y="373" type="curve" smooth="yes"/>
      <point x="70" y="327" type="line" smooth="yes"/>
      <point x="70" y="285"/>
      <point x="75" y="249"/>
      <point x="89" y="229" type="curve"/>
      <point x="218" y="238" type="line"/>
      <point x="218" y="280" type="line"/>
      <point x="185" y="280"/>
      <point x="170" y="294"/>
      <point x="170" y="343" type="curve" smooth="yes"/>
      <point x="170" y="362" type="line" smooth="yes"/>
      <point x="170" y="494"/>
      <point x="207" y="565"/>
      <point x="276" y="565" type="curve" smooth="yes"/>
      <point x="332" y="565"/>
      <point x="350" y="508"/>
      <point x="350" y="399" type="curve" smooth="yes"/>
      <point x="350" y="297"/>
      <point x="347" y="103"/>
    </contour>
    <component base="footlong"/>
    <component base="bonemiddle" xOffset="34"/>
  </outline>
</glyph>
<glyph name="ti-ethiopic" format="2">
  <advance width="533"/>
  <unicode hex="1272"/>
  <note>
uni1272
</note>
  <anchor x="261" y="718" name="top"/>
  <outline>
    <contour>
      <point x="473" y="-67" type="curve" smooth="yes"/>
      <point x="492" y="-67"/>
      <point x="510" y="-59"/>
      <point x="518" y="-51" type="curve"/>
      <point x="504" y="-36"/>
      <point x="492" y="-13"/>
      <point x="492" y="23" type="curve" smooth="yes"/>
      <point x="492" y="57"/>
      <point x="501" y="80"/>
      <point x="518" y="101" type="curve"/>
      <point x="510" y="108"/>
      <point x="492" y="115"/>
      <point x="473" y="115" type="curve" smooth="yes"/>
      <point x="427" y="115"/>
      <point x="405" y="84"/>
      <point x="399" y="50" type="curve"/>
      <point x="349" y="50" type="line" smooth="yes"/>
      <point x="324" y="50"/>
      <point x="310" y="63"/>
      <point x="310" y="111" type="curve" smooth="yes"/>
      <point x="310" y="647" type="line" smooth="yes"/>
      <point x="310" y="678"/>
      <point x="301" y="707"/>
      <point x="287" y="718" type="curve"/>
      <point x="174" y="709" type="line"/>
      <point x="174" y="669" type="line"/>
      <point x="197" y="669"/>
      <point x="211" y="649"/>
      <point x="211" y="610" type="curve" smooth="yes"/>
      <point x="211" y="73" type="line" smooth="yes"/>
      <point x="211" y="40"/>
      <point x="220" y="17"/>
      <point x="234" y="0" type="curve"/>
      <point x="399" y="0" type="line"/>
      <point x="406" y="-36"/>
      <point x="427" y="-67"/>
    </contour>
    <component base="footmiddle" xOffset="-10" yOffset="486"/>
  </outline>
</glyph>
<glyph name="tee-ethiopic" format="2">
  <advance width="532"/>
  <unicode hex="1274"/>
  <note>
uni1274
</note>
  <anchor x="261" y="718" name="top"/>
  <outline>
    <contour>
      <point x="293" y="0" type="curve"/>
      <point x="383" y="0" type="line" smooth="yes"/>
      <point x="464" y="0"/>
      <point x="507" y="52"/>
      <point x="507" y="115" type="curve" smooth="yes"/>
      <point x="507" y="175"/>
      <point x="471" y="203"/>
      <point x="395" y="203" type="curve" smooth="yes"/>
      <point x="310" y="203" type="line"/>
      <point x="310" y="647" type="line" smooth="yes"/>
      <point x="310" y="678"/>
      <point x="301" y="707"/>
      <point x="287" y="718" type="curve"/>
      <point x="174" y="709" type="line"/>
      <point x="174" y="669" type="line"/>
      <point x="197" y="669"/>
      <point x="211" y="649"/>
      <point x="211" y="610" type="curve" smooth="yes"/>
      <point x="211" y="103" type="line" smooth="yes"/>
      <point x="211" y="41"/>
      <point x="239" y="12"/>
    </contour>
    <contour>
      <point x="356" y="35" type="curve" smooth="yes"/>
      <point x="326" y="35"/>
      <point x="310" y="54"/>
      <point x="310" y="110" type="curve" smooth="yes"/>
      <point x="310" y="167" type="line"/>
      <point x="362" y="167" type="line" smooth="yes"/>
      <point x="399" y="167"/>
      <point x="415" y="151"/>
      <point x="415" y="112" type="curve" smooth="yes"/>
      <point x="415" y="62"/>
      <point x="394" y="35"/>
    </contour>
    <component base="footmiddle" xOffset="-10" yOffset="486"/>
  </outline>
</glyph>
<glyph name="te-ethiopic" format="2">
  <advance width="532"/>
  <unicode hex="1275"/>
  <note>
uni1275
</note>
  <anchor x="271" y="819" name="top"/>
  <outline>
    <contour>
      <point x="246" y="-5" type="curve"/>
      <point x="361" y="4" type="line"/>
      <point x="361" y="44" type="line"/>
      <point x="337" y="44"/>
      <point x="322" y="57"/>
      <point x="322" y="111" type="curve"/>
      <point x="322" y="649" type="line" smooth="yes"/>
      <point x="322" y="676"/>
      <point x="315" y="703"/>
      <point x="299" y="714" type="curve"/>
      <point x="143" y="714" type="line"/>
      <point x="143" y="721"/>
      <point x="144" y="728"/>
      <point x="144" y="737" type="curve" smooth="yes"/>
      <point x="144" y="783"/>
      <point x="118" y="819"/>
      <point x="70" y="819" type="curve" smooth="yes"/>
      <point x="53" y="819"/>
      <point x="36" y="813"/>
      <point x="25" y="803" type="curve"/>
      <point x="41" y="786"/>
      <point x="50" y="756"/>
      <point x="50" y="720" type="curve" smooth="yes"/>
      <point x="50" y="696"/>
      <point x="46" y="673"/>
      <point x="43" y="664" type="curve"/>
      <point x="186" y="664" type="line" smooth="yes"/>
      <point x="213" y="664"/>
      <point x="223" y="649"/>
      <point x="223" y="610" type="curve" smooth="yes"/>
      <point x="223" y="73" type="line"/>
      <point x="223" y="35"/>
      <point x="232" y="12"/>
    </contour>
    <component base="footmiddle" yOffset="406"/>
  </outline>
</glyph>
<glyph name="twa-ethiopic" format="2">
  <advance width="567"/>
  <unicode hex="1277"/>
  <note>
uni1277
</note>
  <anchor x="283" y="718" name="top"/>
  <outline>
    <contour>
      <point x="256" y="3" type="curve"/>
      <point x="372" y="10" type="line"/>
      <point x="372" y="50" type="line"/>
      <point x="347" y="50"/>
      <point x="333" y="63"/>
      <point x="333" y="111" type="curve" smooth="yes"/>
      <point x="333" y="647" type="line" smooth="yes"/>
      <point x="333" y="678"/>
      <point x="324" y="707"/>
      <point x="310" y="718" type="curve"/>
      <point x="197" y="709" type="line"/>
      <point x="197" y="669" type="line"/>
      <point x="220" y="669"/>
      <point x="234" y="649"/>
      <point x="234" y="610" type="curve" smooth="yes"/>
      <point x="234" y="79" type="line" smooth="yes"/>
      <point x="234" y="41"/>
      <point x="243" y="20"/>
    </contour>
    <component base="footmiddle" xOffset="10" yOffset="463"/>
    <component base="footmiddle" xOffset="15"/>
  </outline>
</glyph>
<glyph name="ca-ethiopic" format="2">
  <advance width="562"/>
  <unicode hex="1278"/>
  <note>
uni1278
</note>
  <anchor x="281" y="826" name="top"/>
  <outline>
    <contour>
      <point x="257" y="-5" type="curve"/>
      <point x="372" y="4" type="line"/>
      <point x="372" y="44" type="line"/>
      <point x="348" y="44"/>
      <point x="333" y="57"/>
      <point x="333" y="111" type="curve" smooth="yes"/>
      <point x="333" y="732" type="line"/>
      <point x="234" y="732" type="line"/>
      <point x="234" y="73" type="line" smooth="yes"/>
      <point x="234" y="35"/>
      <point x="243" y="12"/>
    </contour>
    <component base="bonemiddle" xOffset="32"/>
    <component base="footmiddle" xOffset="10" yOffset="471"/>
  </outline>
</glyph>
<glyph name="ci-ethiopic" format="2">
  <advance width="583"/>
  <unicode hex="127A"/>
  <note>
uni127A
</note>
  <anchor x="291" y="826" name="top"/>
  <outline>
    <contour>
      <point x="503" y="-67" type="curve" smooth="yes"/>
      <point x="522" y="-67"/>
      <point x="540" y="-59"/>
      <point x="548" y="-51" type="curve"/>
      <point x="534" y="-36"/>
      <point x="522" y="-13"/>
      <point x="522" y="23" type="curve" smooth="yes"/>
      <point x="522" y="57"/>
      <point x="531" y="80"/>
      <point x="548" y="101" type="curve"/>
      <point x="540" y="108"/>
      <point x="522" y="115"/>
      <point x="503" y="115" type="curve" smooth="yes"/>
      <point x="457" y="115"/>
      <point x="435" y="84"/>
      <point x="429" y="50" type="curve"/>
      <point x="379" y="50" type="line" smooth="yes"/>
      <point x="354" y="50"/>
      <point x="340" y="63"/>
      <point x="340" y="111" type="curve" smooth="yes"/>
      <point x="340" y="739" type="line"/>
      <point x="241" y="739" type="line"/>
      <point x="241" y="73" type="line" smooth="yes"/>
      <point x="241" y="40"/>
      <point x="250" y="17"/>
      <point x="264" y="0" type="curve"/>
      <point x="429" y="0" type="line"/>
      <point x="436" y="-36"/>
      <point x="457" y="-67"/>
    </contour>
    <component base="bonemiddle" xOffset="40"/>
    <component base="footmiddle" xOffset="20" yOffset="471"/>
  </outline>
</glyph>
<glyph name="caa-ethiopic" format="2">
  <advance width="569"/>
  <unicode hex="127B"/>
  <note>
uni127B
</note>
  <anchor x="294" y="826" name="top"/>
  <outline>
    <contour>
      <point x="75" y="-99" type="curve" smooth="yes"/>
      <point x="119" y="-99"/>
      <point x="145" y="-61"/>
      <point x="145" y="-21" type="curve" smooth="yes"/>
      <point x="145" y="-16"/>
      <point x="145" y="-13"/>
      <point x="144" y="-5" type="curve"/>
      <point x="148" y="-5" type="line" smooth="yes"/>
      <point x="275" y="-5"/>
      <point x="348" y="93"/>
      <point x="348" y="243" type="curve" smooth="yes"/>
      <point x="348" y="738" type="line"/>
      <point x="252" y="738" type="line"/>
      <point x="252" y="248" type="line" smooth="yes"/>
      <point x="252" y="111"/>
      <point x="212" y="43"/>
      <point x="106" y="43" type="curve" smooth="yes"/>
      <point x="48" y="43" type="line"/>
      <point x="51" y="31"/>
      <point x="53" y="16"/>
      <point x="53" y="-2" type="curve" smooth="yes"/>
      <point x="53" y="-36"/>
      <point x="47" y="-68"/>
      <point x="35" y="-88" type="curve"/>
      <point x="44" y="-93"/>
      <point x="57" y="-99"/>
    </contour>
    <component base="footmiddle" xOffset="27" yOffset="466"/>
    <component base="bonemiddle" xOffset="51"/>
  </outline>
</glyph>
<glyph name="cee-ethiopic" format="2">
  <advance width="582"/>
  <unicode hex="127C"/>
  <note>
uni127C
</note>
  <anchor x="291" y="826" name="top"/>
  <outline>
    <contour>
      <point x="328" y="0" type="curve"/>
      <point x="417" y="0" type="line" smooth="yes"/>
      <point x="498" y="0"/>
      <point x="541" y="52"/>
      <point x="541" y="115" type="curve" smooth="yes"/>
      <point x="541" y="175"/>
      <point x="505" y="203"/>
      <point x="429" y="203" type="curve" smooth="yes"/>
      <point x="344" y="203" type="line"/>
      <point x="344" y="751" type="line"/>
      <point x="245" y="751" type="line"/>
      <point x="245" y="103" type="line" smooth="yes"/>
      <point x="245" y="41"/>
      <point x="273" y="12"/>
    </contour>
    <contour>
      <point x="390" y="35" type="curve" smooth="yes"/>
      <point x="360" y="35"/>
      <point x="344" y="54"/>
      <point x="344" y="110" type="curve" smooth="yes"/>
      <point x="344" y="167" type="line"/>
      <point x="396" y="167" type="line" smooth="yes"/>
      <point x="433" y="167"/>
      <point x="449" y="151"/>
      <point x="449" y="112" type="curve" smooth="yes"/>
      <point x="449" y="62"/>
      <point x="429" y="35"/>
    </contour>
    <component base="bonemiddle" xOffset="45"/>
    <component base="footmiddle" xOffset="20" yOffset="471"/>
  </outline>
</glyph>
<glyph name="ce-ethiopic" format="2">
  <advance width="584"/>
  <unicode hex="127D"/>
  <note>
uni127D
</note>
  <anchor x="274" y="826" name="top"/>
  <outline>
    <contour>
      <point x="262" y="-5" type="curve"/>
      <point x="381" y="4" type="line"/>
      <point x="381" y="44" type="line"/>
      <point x="351" y="44"/>
      <point x="338" y="63"/>
      <point x="338" y="98" type="curve" smooth="yes"/>
      <point x="338" y="152"/>
      <point x="386" y="453"/>
      <point x="386" y="500" type="curve" smooth="yes"/>
      <point x="386" y="542"/>
      <point x="366" y="571"/>
      <point x="316" y="571" type="curve" smooth="yes"/>
      <point x="261" y="571" type="line"/>
      <point x="261" y="760" type="line"/>
      <point x="162" y="760" type="line"/>
      <point x="162" y="518" type="line"/>
      <point x="235" y="518" type="line" smooth="yes"/>
      <point x="269" y="518"/>
      <point x="286" y="506"/>
      <point x="286" y="467" type="curve" smooth="yes"/>
      <point x="286" y="407"/>
      <point x="237" y="136"/>
      <point x="237" y="70" type="curve" smooth="yes"/>
      <point x="237" y="31"/>
      <point x="246" y="9"/>
    </contour>
    <component base="footmiddle" xOffset="42" yOffset="334"/>
    <component base="bone.alt" yOffset="-5"/>
  </outline>
</glyph>
<glyph name="co-ethiopic" format="2">
  <advance width="549"/>
  <unicode hex="127E"/>
  <note>
uni127E
</note>
  <anchor x="274" y="881" name="top"/>
  <outline>
    <contour>
      <point x="191" y="726" type="line"/>
      <point x="349" y="726" type="line"/>
      <point x="349" y="776" type="line"/>
      <point x="191" y="776" type="line"/>
    </contour>
    <contour>
      <point x="482" y="881" type="curve" smooth="yes"/>
      <point x="430" y="881"/>
      <point x="402" y="845"/>
      <point x="402" y="799" type="curve" smooth="yes"/>
      <point x="402" y="790"/>
      <point x="403" y="783"/>
      <point x="404" y="776" type="curve"/>
      <point x="281" y="776" type="line"/>
      <point x="281" y="726" type="line"/>
      <point x="512" y="726" type="line"/>
      <point x="508" y="735"/>
      <point x="504" y="758"/>
      <point x="504" y="782" type="curve" smooth="yes"/>
      <point x="504" y="818"/>
      <point x="514" y="848"/>
      <point x="531" y="865" type="curve"/>
      <point x="519" y="875"/>
      <point x="501" y="881"/>
    </contour>
    <component base="to-ethiopic" xOffset="7"/>
    <component base="leftdoubleflag" yOffset="726"/>
  </outline>
</glyph>
<glyph name="cwa-ethiopic" format="2">
  <advance width="579"/>
  <unicode hex="127F"/>
  <note>
uni127F
</note>
  <anchor x="289" y="826" name="top"/>
  <outline>
    <contour>
      <point x="267" y="5" type="curve"/>
      <point x="382" y="10" type="line"/>
      <point x="382" y="50" type="line"/>
      <point x="358" y="50"/>
      <point x="343" y="63"/>
      <point x="343" y="117" type="curve" smooth="yes"/>
      <point x="343" y="733" type="line"/>
      <point x="244" y="733" type="line"/>
      <point x="244" y="73" type="line" smooth="yes"/>
      <point x="244" y="35"/>
      <point x="253" y="22"/>
    </contour>
    <component base="bonemiddle" xOffset="45"/>
    <component base="footmiddle" xOffset="22" yOffset="461"/>
    <component base="footmiddle" xOffset="15"/>
  </outline>
</glyph>
<glyph name="xaa-ethiopic" format="2">
  <advance width="505"/>
  <unicode hex="1283"/>
  <note>
uni1283
</note>
  <anchor x="222" y="718" name="top"/>
  <outline>
    <contour>
      <point x="145" y="-99" type="curve" smooth="yes"/>
      <point x="189" y="-99"/>
      <point x="215" y="-61"/>
      <point x="215" y="-21" type="curve" smooth="yes"/>
      <point x="215" y="-16"/>
      <point x="215" y="-13"/>
      <point x="214" y="-5" type="curve"/>
      <point x="218" y="-5" type="line" smooth="yes"/>
      <point x="347" y="-5"/>
      <point x="439" y="93"/>
      <point x="439" y="273" type="curve" smooth="yes"/>
      <point x="439" y="460" type="line" smooth="yes"/>
      <point x="439" y="502"/>
      <point x="420" y="531"/>
      <point x="369" y="531" type="curve" smooth="yes"/>
      <point x="314" y="531" type="line"/>
      <point x="314" y="635" type="line" smooth="yes"/>
      <point x="314" y="676"/>
      <point x="308" y="702"/>
      <point x="291" y="718" type="curve"/>
      <point x="178" y="709" type="line"/>
      <point x="178" y="669" type="line"/>
      <point x="203" y="669"/>
      <point x="215" y="652"/>
      <point x="215" y="607" type="curve" smooth="yes"/>
      <point x="215" y="478" type="line"/>
      <point x="289" y="478" type="line" smooth="yes"/>
      <point x="323" y="478"/>
      <point x="339" y="466"/>
      <point x="339" y="427" type="curve" smooth="yes"/>
      <point x="339" y="278" type="line" smooth="yes"/>
      <point x="339" y="111"/>
      <point x="284" y="43"/>
      <point x="176" y="43" type="curve" smooth="yes"/>
      <point x="118" y="43" type="line"/>
      <point x="121" y="31"/>
      <point x="123" y="16"/>
      <point x="123" y="-2" type="curve" smooth="yes"/>
      <point x="123" y="-36"/>
      <point x="117" y="-68"/>
      <point x="105" y="-88" type="curve"/>
      <point x="114" y="-93"/>
      <point x="127" y="-99"/>
    </contour>
    <component base="leftsingleflag" xOffset="-10" yOffset="205"/>
  </outline>
</glyph>
<glyph name="xe-ethiopic" format="2">
  <advance width="477"/>
  <unicode hex="1285"/>
  <note>
uni1285
</note>
  <anchor x="217" y="718" name="top"/>
  <outline>
    <contour>
      <point x="37" y="305" type="curve"/>
      <point x="154" y="314" type="line"/>
      <point x="154" y="354" type="line"/>
      <point x="119" y="354"/>
      <point x="111" y="383"/>
      <point x="111" y="418" type="curve" smooth="yes"/>
      <point x="111" y="497"/>
      <point x="148" y="560"/>
      <point x="205" y="574" type="curve"/>
      <point x="203" y="622" type="line"/>
      <point x="104" y="602"/>
      <point x="19" y="515"/>
      <point x="19" y="391" type="curve" smooth="yes"/>
      <point x="19" y="353"/>
      <point x="28" y="323"/>
    </contour>
    <component base="na-ethiopic" xOffset="140"/>
  </outline>
</glyph>
<glyph name="xwaa-ethiopic" format="2">
  <advance width="584"/>
  <unicode hex="128B"/>
  <note>
uni128B
</note>
  <anchor x="287" y="718" name="top"/>
  <outline>
    <contour>
      <point x="337" y="148" type="curve"/>
      <point x="455" y="157" type="line"/>
      <point x="455" y="197" type="line"/>
      <point x="425" y="197"/>
      <point x="412" y="216"/>
      <point x="412" y="251" type="curve" smooth="yes"/>
      <point x="412" y="283"/>
      <point x="443" y="432"/>
      <point x="443" y="460" type="curve" smooth="yes"/>
      <point x="443" y="502"/>
      <point x="423" y="531"/>
      <point x="373" y="531" type="curve" smooth="yes"/>
      <point x="318" y="531" type="line"/>
      <point x="318" y="635" type="line" smooth="yes"/>
      <point x="318" y="676"/>
      <point x="312" y="702"/>
      <point x="295" y="718" type="curve"/>
      <point x="182" y="709" type="line"/>
      <point x="182" y="669" type="line"/>
      <point x="206" y="669"/>
      <point x="219" y="652"/>
      <point x="219" y="607" type="curve" smooth="yes"/>
      <point x="219" y="478" type="line"/>
      <point x="292" y="478" type="line" smooth="yes"/>
      <point x="326" y="478"/>
      <point x="343" y="466"/>
      <point x="343" y="427" type="curve" smooth="yes"/>
      <point x="343" y="392"/>
      <point x="312" y="261"/>
      <point x="312" y="223" type="curve" smooth="yes"/>
      <point x="312" y="184"/>
      <point x="321" y="162"/>
    </contour>
    <contour>
      <point x="215" y="147" type="line"/>
      <point x="532" y="147" type="line"/>
      <point x="532" y="197" type="line"/>
      <point x="215" y="197" type="line"/>
    </contour>
    <contour>
      <point x="470" y="-5" type="curve"/>
      <point x="569" y="4" type="line"/>
      <point x="569" y="44" type="line"/>
      <point x="544" y="44"/>
      <point x="532" y="61"/>
      <point x="532" y="106" type="curve" smooth="yes"/>
      <point x="532" y="197" type="line"/>
      <point x="447" y="197" type="line"/>
      <point x="447" y="78" type="line" smooth="yes"/>
      <point x="447" y="37"/>
      <point x="453" y="11"/>
    </contour>
    <component base="leftsingleflag" xOffset="52" yOffset="-207"/>
    <component base="leftsingleflag" xOffset="-10" yOffset="214"/>
  </outline>
</glyph>
<glyph name="na-ethiopic" format="2">
  <advance width="337"/>
  <unicode hex="1290"/>
  <note>
uni1290
</note>
  <anchor x="144" y="718" name="top"/>
  <outline>
    <contour>
      <point x="151" y="-5" type="curve"/>
      <point x="270" y="4" type="line"/>
      <point x="270" y="44" type="line"/>
      <point x="240" y="44"/>
      <point x="227" y="63"/>
      <point x="227" y="98" type="curve" smooth="yes"/>
      <point x="227" y="152"/>
      <point x="275" y="413"/>
      <point x="275" y="460" type="curve" smooth="yes"/>
      <point x="275" y="502"/>
      <point x="255" y="531"/>
      <point x="205" y="531" type="curve" smooth="yes"/>
      <point x="150" y="531" type="line"/>
      <point x="150" y="635" type="line" smooth="yes"/>
      <point x="150" y="676"/>
      <point x="144" y="702"/>
      <point x="127" y="718" type="curve"/>
      <point x="14" y="709" type="line"/>
      <point x="14" y="669" type="line"/>
      <point x="38" y="669"/>
      <point x="51" y="652"/>
      <point x="51" y="607" type="curve" smooth="yes"/>
      <point x="51" y="478" type="line"/>
      <point x="124" y="478" type="line" smooth="yes"/>
      <point x="158" y="478"/>
      <point x="175" y="466"/>
      <point x="175" y="427" type="curve" smooth="yes"/>
      <point x="175" y="367"/>
      <point x="126" y="136"/>
      <point x="126" y="70" type="curve" smooth="yes"/>
      <point x="126" y="31"/>
      <point x="135" y="9"/>
    </contour>
  </outline>
</glyph>
<glyph name="ni-ethiopic" format="2">
  <advance width="456"/>
  <unicode hex="1292"/>
  <note>
uni1292
</note>
  <anchor x="227" y="718" name="top"/>
  <outline>
    <contour>
      <point x="151" y="0" type="curve"/>
      <point x="270" y="0" type="line"/>
      <point x="270" y="50" type="line"/>
      <point x="240" y="50"/>
      <point x="227" y="69"/>
      <point x="227" y="98" type="curve" smooth="yes"/>
      <point x="227" y="152"/>
      <point x="275" y="413"/>
      <point x="275" y="460" type="curve" smooth="yes"/>
      <point x="275" y="502"/>
      <point x="255" y="531"/>
      <point x="205" y="531" type="curve" smooth="yes"/>
      <point x="150" y="531" type="line"/>
      <point x="150" y="635" type="line" smooth="yes"/>
      <point x="150" y="676"/>
      <point x="144" y="702"/>
      <point x="127" y="718" type="curve"/>
      <point x="14" y="709" type="line"/>
      <point x="14" y="669" type="line"/>
      <point x="38" y="669"/>
      <point x="51" y="652"/>
      <point x="51" y="607" type="curve" smooth="yes"/>
      <point x="51" y="478" type="line"/>
      <point x="124" y="478" type="line" smooth="yes"/>
      <point x="158" y="478"/>
      <point x="175" y="466"/>
      <point x="175" y="427" type="curve" smooth="yes"/>
      <point x="175" y="367"/>
      <point x="127" y="136"/>
      <point x="127" y="70" type="curve" smooth="yes"/>
      <point x="127" y="31"/>
      <point x="137" y="14"/>
    </contour>
    <component base="rightdoubleflag" xOffset="218"/>
  </outline>
</glyph>
<glyph name="naa-ethiopic" format="2">
  <advance width="441"/>
  <unicode hex="1293"/>
  <note>
uni1293
</note>
  <anchor x="223" y="714" name="top"/>
  <outline>
    <contour>
      <point x="246" y="-5" type="curve"/>
      <point x="365" y="4" type="line"/>
      <point x="365" y="43" type="line"/>
      <point x="338" y="43"/>
      <point x="323" y="56"/>
      <point x="323" y="110" type="curve" smooth="yes"/>
      <point x="323" y="201" type="line" smooth="yes"/>
      <point x="323" y="285"/>
      <point x="281" y="331"/>
      <point x="202" y="331" type="curve" smooth="yes"/>
      <point x="121" y="331" type="line"/>
      <point x="123" y="578"/>
      <point x="195" y="664"/>
      <point x="289" y="664" type="curve" smooth="yes"/>
      <point x="299" y="664" type="line"/>
      <point x="298" y="656"/>
      <point x="297" y="648"/>
      <point x="297" y="643" type="curve" smooth="yes"/>
      <point x="297" y="596"/>
      <point x="322" y="559"/>
      <point x="379" y="559" type="curve" smooth="yes"/>
      <point x="397" y="559"/>
      <point x="415" y="565"/>
      <point x="426" y="575" type="curve"/>
      <point x="408" y="595"/>
      <point x="399" y="621"/>
      <point x="399" y="662" type="curve" smooth="yes"/>
      <point x="399" y="684"/>
      <point x="402" y="700"/>
      <point x="407" y="714" type="curve"/>
      <point x="285" y="714" type="line" smooth="yes"/>
      <point x="132" y="714"/>
      <point x="20" y="604"/>
      <point x="20" y="313" type="curve" smooth="yes"/>
      <point x="20" y="284" type="line"/>
      <point x="149" y="284" type="line" smooth="yes"/>
      <point x="202" y="284"/>
      <point x="224" y="250"/>
      <point x="224" y="184" type="curve" smooth="yes"/>
      <point x="224" y="73" type="line" smooth="yes"/>
      <point x="224" y="35"/>
      <point x="232" y="12"/>
    </contour>
  </outline>
</glyph>
<glyph name="nee-ethiopic" format="2">
  <advance width="414"/>
  <unicode hex="1294"/>
  <note>
uni1294
</note>
  <anchor x="206" y="718" name="top"/>
  <outline>
    <contour>
      <point x="188" y="0" type="curve"/>
      <point x="274" y="0" type="line" smooth="yes"/>
      <point x="356" y="0"/>
      <point x="399" y="57"/>
      <point x="399" y="126" type="curve" smooth="yes"/>
      <point x="399" y="191"/>
      <point x="351" y="222"/>
      <point x="264" y="222" type="curve" smooth="yes"/>
      <point x="213" y="222" type="line"/>
      <point x="235" y="283" type="line" smooth="yes"/>
      <point x="262" y="357"/>
      <point x="278" y="402"/>
      <point x="278" y="448" type="curve" smooth="yes"/>
      <point x="278" y="490"/>
      <point x="255" y="531"/>
      <point x="198" y="531" type="curve" smooth="yes"/>
      <point x="150" y="531" type="line"/>
      <point x="150" y="635" type="line" smooth="yes"/>
      <point x="150" y="676"/>
      <point x="144" y="702"/>
      <point x="127" y="718" type="curve"/>
      <point x="14" y="709" type="line"/>
      <point x="14" y="669" type="line"/>
      <point x="38" y="669"/>
      <point x="51" y="652"/>
      <point x="51" y="607" type="curve" smooth="yes"/>
      <point x="51" y="478" type="line"/>
      <point x="125" y="478" type="line" smooth="yes"/>
      <point x="159" y="478"/>
      <point x="178" y="466"/>
      <point x="178" y="433" type="curve" smooth="yes"/>
      <point x="178" y="400"/>
      <point x="164" y="363"/>
      <point x="150" y="326" type="curve" smooth="yes"/>
      <point x="132" y="277" type="line" smooth="yes"/>
      <point x="109" y="214"/>
      <point x="93" y="168"/>
      <point x="93" y="119" type="curve" smooth="yes"/>
      <point x="93" y="44"/>
      <point x="132" y="10"/>
    </contour>
    <contour>
      <point x="246" y="35" type="curve" smooth="yes"/>
      <point x="213" y="35"/>
      <point x="189" y="57"/>
      <point x="189" y="116" type="curve" smooth="yes"/>
      <point x="189" y="141"/>
      <point x="195" y="165"/>
      <point x="201" y="184" type="curve"/>
      <point x="234" y="184" type="line" smooth="yes"/>
      <point x="282" y="184"/>
      <point x="307" y="166"/>
      <point x="307" y="122" type="curve" smooth="yes"/>
      <point x="307" y="66"/>
      <point x="285" y="35"/>
    </contour>
  </outline>
</glyph>
<glyph name="ne-ethiopic" format="2">
  <advance width="479"/>
  <unicode hex="1295"/>
  <note>
uni1295
</note>
  <anchor x="216" y="714" name="top"/>
  <outline>
    <contour>
      <point x="294" y="-5" type="curve"/>
      <point x="412" y="4" type="line"/>
      <point x="412" y="44" type="line"/>
      <point x="382" y="44"/>
      <point x="369" y="63"/>
      <point x="369" y="98" type="curve" smooth="yes"/>
      <point x="369" y="152"/>
      <point x="417" y="413"/>
      <point x="417" y="460" type="curve" smooth="yes"/>
      <point x="417" y="502"/>
      <point x="398" y="531"/>
      <point x="347" y="531" type="curve" smooth="yes"/>
      <point x="292" y="531" type="line"/>
      <point x="292" y="599" type="line" smooth="yes"/>
      <point x="292" y="669"/>
      <point x="260" y="714"/>
      <point x="182" y="714" type="curve" smooth="yes"/>
      <point x="33" y="714" type="line"/>
      <point x="36" y="705"/>
      <point x="40" y="682"/>
      <point x="40" y="658" type="curve" smooth="yes"/>
      <point x="40" y="622"/>
      <point x="31" y="592"/>
      <point x="15" y="575" type="curve"/>
      <point x="26" y="565"/>
      <point x="43" y="559"/>
      <point x="60" y="559" type="curve" smooth="yes"/>
      <point x="108" y="559"/>
      <point x="134" y="595"/>
      <point x="134" y="641" type="curve" smooth="yes"/>
      <point x="134" y="650"/>
      <point x="133" y="657"/>
      <point x="133" y="664" type="curve"/>
      <point x="143" y="664" type="line" smooth="yes"/>
      <point x="175" y="664"/>
      <point x="193" y="642"/>
      <point x="193" y="588" type="curve" smooth="yes"/>
      <point x="193" y="478" type="line"/>
      <point x="267" y="478" type="line" smooth="yes"/>
      <point x="301" y="478"/>
      <point x="317" y="466"/>
      <point x="317" y="427" type="curve" smooth="yes"/>
      <point x="317" y="367"/>
      <point x="269" y="136"/>
      <point x="269" y="70" type="curve" smooth="yes"/>
      <point x="269" y="31"/>
      <point x="278" y="9"/>
    </contour>
  </outline>
</glyph>
<glyph name="no-ethiopic" format="2">
  <advance width="486"/>
  <unicode hex="1296"/>
  <note>
uni1296
</note>
  <anchor x="245" y="714" name="top"/>
  <outline>
    <contour>
      <point x="240" y="-4" type="curve"/>
      <point x="365" y="5" type="line"/>
      <point x="365" y="47" type="line"/>
      <point x="332" y="47"/>
      <point x="317" y="61"/>
      <point x="317" y="120" type="curve" smooth="yes"/>
      <point x="317" y="213" type="line" smooth="yes"/>
      <point x="317" y="307"/>
      <point x="269" y="338"/>
      <point x="203" y="338" type="curve" smooth="yes"/>
      <point x="119" y="338" type="line"/>
      <point x="119" y="359" type="line" smooth="yes"/>
      <point x="119" y="567"/>
      <point x="180" y="676"/>
      <point x="281" y="676" type="curve" smooth="yes"/>
      <point x="289" y="676" type="line"/>
      <point x="365" y="714" type="line"/>
      <point x="275" y="714" type="line" smooth="yes"/>
      <point x="125" y="714"/>
      <point x="20" y="592"/>
      <point x="20" y="338" type="curve" smooth="yes"/>
      <point x="20" y="283" type="line"/>
      <point x="148" y="283" type="line" smooth="yes"/>
      <point x="201" y="283"/>
      <point x="221" y="254"/>
      <point x="221" y="188" type="curve" smooth="yes"/>
      <point x="221" y="94" type="line" smooth="yes"/>
      <point x="221" y="46"/>
      <point x="227" y="16"/>
    </contour>
    <component base="ballsmall" xOffset="206" yOffset="298"/>
  </outline>
</glyph>
<glyph name="nwa-ethiopic" format="2">
  <advance width="567"/>
  <unicode hex="1297"/>
  <note>
uni1297
</note>
  <anchor x="296" y="714" name="top"/>
  <outline>
    <contour>
      <point x="265" y="33" type="line"/>
      <point x="364" y="33" type="line"/>
      <point x="364" y="201" type="line" smooth="yes"/>
      <point x="364" y="285"/>
      <point x="322" y="331"/>
      <point x="243" y="331" type="curve" smooth="yes"/>
      <point x="162" y="331" type="line"/>
      <point x="164" y="578"/>
      <point x="236" y="664"/>
      <point x="330" y="664" type="curve" smooth="yes"/>
      <point x="340" y="664" type="line"/>
      <point x="339" y="656"/>
      <point x="338" y="648"/>
      <point x="338" y="643" type="curve" smooth="yes"/>
      <point x="338" y="596"/>
      <point x="363" y="559"/>
      <point x="420" y="559" type="curve" smooth="yes"/>
      <point x="438" y="559"/>
      <point x="456" y="565"/>
      <point x="467" y="575" type="curve"/>
      <point x="449" y="595"/>
      <point x="440" y="621"/>
      <point x="440" y="662" type="curve" smooth="yes"/>
      <point x="440" y="684"/>
      <point x="443" y="700"/>
      <point x="448" y="714" type="curve"/>
      <point x="326" y="714" type="line" smooth="yes"/>
      <point x="173" y="714"/>
      <point x="61" y="604"/>
      <point x="61" y="313" type="curve" smooth="yes"/>
      <point x="61" y="284" type="line"/>
      <point x="190" y="284" type="line" smooth="yes"/>
      <point x="243" y="284"/>
      <point x="265" y="250"/>
      <point x="265" y="184" type="curve" smooth="yes"/>
    </contour>
    <component base="footmiddle" xOffset="25"/>
  </outline>
</glyph>
<glyph name="nya-ethiopic" format="2">
  <advance width="514"/>
  <unicode hex="1298"/>
  <note>
uni1298
</note>
  <anchor x="247" y="780" name="top"/>
  <outline>
    <contour>
      <point x="299" y="-5" type="curve"/>
      <point x="418" y="4" type="line"/>
      <point x="418" y="44" type="line"/>
      <point x="388" y="44"/>
      <point x="375" y="63"/>
      <point x="375" y="98" type="curve" smooth="yes"/>
      <point x="375" y="152"/>
      <point x="423" y="403"/>
      <point x="423" y="450" type="curve" smooth="yes"/>
      <point x="423" y="492"/>
      <point x="403" y="521"/>
      <point x="353" y="521" type="curve" smooth="yes"/>
      <point x="298" y="521" type="line"/>
      <point x="298" y="682" type="line"/>
      <point x="199" y="682" type="line"/>
      <point x="199" y="468" type="line"/>
      <point x="272" y="468" type="line" smooth="yes"/>
      <point x="306" y="468"/>
      <point x="323" y="456"/>
      <point x="323" y="417" type="curve" smooth="yes"/>
      <point x="323" y="357"/>
      <point x="274" y="136"/>
      <point x="274" y="70" type="curve" smooth="yes"/>
      <point x="274" y="31"/>
      <point x="283" y="9"/>
    </contour>
    <component base="bonemiddle" yOffset="-46"/>
  </outline>
</glyph>
<glyph name="nyi-ethiopic" format="2">
  <advance width="594"/>
  <unicode hex="129A"/>
  <note>
uni129A
</note>
  <anchor x="297" y="780" name="top"/>
  <outline>
    <contour>
      <point x="296" y="0" type="curve"/>
      <point x="415" y="0" type="line"/>
      <point x="415" y="50" type="line"/>
      <point x="385" y="50"/>
      <point x="372" y="69"/>
      <point x="372" y="104" type="curve" smooth="yes"/>
      <point x="372" y="158"/>
      <point x="420" y="403"/>
      <point x="420" y="450" type="curve" smooth="yes"/>
      <point x="420" y="492"/>
      <point x="400" y="521"/>
      <point x="350" y="521" type="curve" smooth="yes"/>
      <point x="295" y="521" type="line"/>
      <point x="295" y="682" type="line"/>
      <point x="196" y="682" type="line"/>
      <point x="196" y="468" type="line"/>
      <point x="269" y="468" type="line" smooth="yes"/>
      <point x="303" y="468"/>
      <point x="320" y="456"/>
      <point x="320" y="417" type="curve" smooth="yes"/>
      <point x="320" y="358"/>
      <point x="271" y="140"/>
      <point x="271" y="75" type="curve" smooth="yes"/>
      <point x="271" y="36"/>
      <point x="280" y="14"/>
    </contour>
    <component base="rightdoubleflag" xOffset="356"/>
    <component base="bonemiddle" yOffset="-46"/>
  </outline>
</glyph>
<glyph name="nyaa-ethiopic" format="2">
  <advance width="499"/>
  <unicode hex="129B"/>
  <note>
uni129B
</note>
  <anchor x="252" y="780" name="top"/>
  <outline>
    <contour>
      <point x="249" y="-5" type="curve"/>
      <point x="369" y="4" type="line"/>
      <point x="369" y="43" type="line"/>
      <point x="342" y="43"/>
      <point x="327" y="56"/>
      <point x="327" y="110" type="curve" smooth="yes"/>
      <point x="327" y="158" type="line" smooth="yes"/>
      <point x="327" y="232"/>
      <point x="282" y="271"/>
      <point x="215" y="271" type="curve" smooth="yes"/>
      <point x="134" y="271" type="line"/>
      <point x="136" y="411"/>
      <point x="197" y="511"/>
      <point x="297" y="511" type="curve" smooth="yes"/>
      <point x="303" y="511" type="line"/>
      <point x="302" y="504"/>
      <point x="301" y="497"/>
      <point x="301" y="488" type="curve" smooth="yes"/>
      <point x="301" y="442"/>
      <point x="329" y="406"/>
      <point x="381" y="406" type="curve" smooth="yes"/>
      <point x="400" y="406"/>
      <point x="418" y="412"/>
      <point x="430" y="422" type="curve"/>
      <point x="413" y="439"/>
      <point x="403" y="469"/>
      <point x="403" y="505" type="curve" smooth="yes"/>
      <point x="403" y="529"/>
      <point x="407" y="552"/>
      <point x="411" y="561" type="curve"/>
      <point x="293" y="561" type="line" smooth="yes"/>
      <point x="122" y="561"/>
      <point x="33" y="435"/>
      <point x="33" y="250" type="curve" smooth="yes"/>
      <point x="33" y="224" type="line"/>
      <point x="162" y="224" type="line" smooth="yes"/>
      <point x="208" y="224"/>
      <point x="228" y="196"/>
      <point x="228" y="139" type="curve" smooth="yes"/>
      <point x="228" y="73" type="line" smooth="yes"/>
      <point x="228" y="35"/>
      <point x="236" y="12"/>
    </contour>
    <contour>
      <point x="207" y="526" type="line"/>
      <point x="298" y="535" type="line"/>
      <point x="298" y="714" type="line"/>
      <point x="207" y="714" type="line"/>
    </contour>
    <component base="bonemiddle" xOffset="5" yOffset="-46"/>
  </outline>
</glyph>
<glyph name="nyee-ethiopic" format="2">
  <advance width="562"/>
  <unicode hex="129C"/>
  <note>
uni129C
</note>
  <anchor x="281" y="780" name="top"/>
  <outline>
    <contour>
      <point x="336" y="0" type="curve"/>
      <point x="422" y="0" type="line" smooth="yes"/>
      <point x="504" y="0"/>
      <point x="547" y="57"/>
      <point x="547" y="126" type="curve" smooth="yes"/>
      <point x="547" y="191"/>
      <point x="513" y="222"/>
      <point x="436" y="222" type="curve" smooth="yes"/>
      <point x="368" y="222" type="line"/>
      <point x="387" y="284" type="line" smooth="yes"/>
      <point x="409" y="355"/>
      <point x="424" y="400"/>
      <point x="424" y="443" type="curve" smooth="yes"/>
      <point x="424" y="485"/>
      <point x="403" y="521"/>
      <point x="346" y="521" type="curve" smooth="yes"/>
      <point x="298" y="521" type="line"/>
      <point x="298" y="695" type="line"/>
      <point x="199" y="695" type="line"/>
      <point x="199" y="468" type="line"/>
      <point x="274" y="468" type="line" smooth="yes"/>
      <point x="308" y="468"/>
      <point x="324" y="456"/>
      <point x="324" y="423" type="curve" smooth="yes"/>
      <point x="324" y="393"/>
      <point x="310" y="358"/>
      <point x="298" y="324" type="curve" smooth="yes"/>
      <point x="281" y="277" type="line" smooth="yes"/>
      <point x="262" y="223"/>
      <point x="249" y="173"/>
      <point x="249" y="129" type="curve" smooth="yes"/>
      <point x="249" y="54"/>
      <point x="281" y="10"/>
    </contour>
    <contour>
      <point x="394" y="35" type="curve" smooth="yes"/>
      <point x="361" y="35"/>
      <point x="342" y="57"/>
      <point x="342" y="116" type="curve" smooth="yes"/>
      <point x="342" y="141"/>
      <point x="347" y="165"/>
      <point x="353" y="184" type="curve"/>
      <point x="400" y="184" type="line" smooth="yes"/>
      <point x="438" y="184"/>
      <point x="455" y="166"/>
      <point x="455" y="122" type="curve" smooth="yes"/>
      <point x="455" y="66"/>
      <point x="433" y="35"/>
    </contour>
    <component base="bonemiddle" yOffset="-46"/>
  </outline>
</glyph>
<glyph name="nye-ethiopic" format="2">
  <advance width="500"/>
  <unicode hex="129D"/>
  <note>
uni129D
</note>
  <anchor x="226" y="819" name="top"/>
  <outline>
    <contour>
      <point x="320" y="-5" type="curve"/>
      <point x="438" y="4" type="line"/>
      <point x="438" y="44" type="line"/>
      <point x="408" y="44"/>
      <point x="395" y="63"/>
      <point x="395" y="98" type="curve" smooth="yes"/>
      <point x="395" y="132"/>
      <point x="431" y="274"/>
      <point x="431" y="321" type="curve" smooth="yes"/>
      <point x="431" y="363"/>
      <point x="412" y="392"/>
      <point x="361" y="392" type="curve" smooth="yes"/>
      <point x="306" y="392" type="line"/>
      <point x="306" y="418" type="line" smooth="yes"/>
      <point x="306" y="488"/>
      <point x="274" y="533"/>
      <point x="196" y="533" type="curve" smooth="yes"/>
      <point x="47" y="533" type="line"/>
      <point x="50" y="524"/>
      <point x="54" y="501"/>
      <point x="54" y="477" type="curve" smooth="yes"/>
      <point x="54" y="441"/>
      <point x="45" y="411"/>
      <point x="29" y="394" type="curve"/>
      <point x="40" y="384"/>
      <point x="57" y="378"/>
      <point x="74" y="378" type="curve" smooth="yes"/>
      <point x="122" y="378"/>
      <point x="148" y="414"/>
      <point x="148" y="460" type="curve" smooth="yes"/>
      <point x="148" y="469"/>
      <point x="147" y="476"/>
      <point x="147" y="483" type="curve"/>
      <point x="157" y="483" type="line" smooth="yes"/>
      <point x="189" y="483"/>
      <point x="207" y="461"/>
      <point x="207" y="407" type="curve" smooth="yes"/>
      <point x="207" y="339" type="line"/>
      <point x="281" y="339" type="line" smooth="yes"/>
      <point x="315" y="339"/>
      <point x="331" y="327"/>
      <point x="331" y="288" type="curve" smooth="yes"/>
      <point x="331" y="248"/>
      <point x="295" y="116"/>
      <point x="295" y="70" type="curve" smooth="yes"/>
      <point x="295" y="31"/>
      <point x="305" y="9"/>
    </contour>
    <contour>
      <point x="161" y="508" type="line"/>
      <point x="254" y="508" type="line"/>
      <point x="254" y="673" type="line"/>
      <point x="161" y="673" type="line"/>
    </contour>
    <contour>
      <point x="357" y="819" type="curve" smooth="yes"/>
      <point x="309" y="819"/>
      <point x="283" y="783"/>
      <point x="283" y="737" type="curve" smooth="yes"/>
      <point x="283" y="728"/>
      <point x="284" y="721"/>
      <point x="284" y="714" type="curve"/>
      <point x="133" y="714" type="line"/>
      <point x="134" y="721"/>
      <point x="134" y="728"/>
      <point x="134" y="737" type="curve" smooth="yes"/>
      <point x="134" y="783"/>
      <point x="108" y="819"/>
      <point x="60" y="819" type="curve" smooth="yes"/>
      <point x="43" y="819"/>
      <point x="26" y="813"/>
      <point x="15" y="803" type="curve"/>
      <point x="31" y="786"/>
      <point x="40" y="756"/>
      <point x="40" y="720" type="curve" smooth="yes"/>
      <point x="40" y="696"/>
      <point x="36" y="673"/>
      <point x="33" y="664" type="curve"/>
      <point x="384" y="664" type="line"/>
      <point x="381" y="673"/>
      <point x="377" y="696"/>
      <point x="377" y="720" type="curve" smooth="yes"/>
      <point x="377" y="756"/>
      <point x="386" y="786"/>
      <point x="402" y="803" type="curve"/>
      <point x="391" y="813"/>
      <point x="374" y="819"/>
    </contour>
  </outline>
</glyph>
<glyph name="nyo-ethiopic" format="2">
  <advance width="516"/>
  <unicode hex="129E"/>
  <note>
uni129E
</note>
  <anchor x="260" y="826" name="top"/>
  <outline>
    <contour>
      <point x="240" y="-4" type="curve"/>
      <point x="365" y="5" type="line"/>
      <point x="365" y="47" type="line"/>
      <point x="332" y="47"/>
      <point x="317" y="61"/>
      <point x="317" y="108" type="curve" smooth="yes"/>
      <point x="317" y="149" type="line" smooth="yes"/>
      <point x="317" y="223"/>
      <point x="292" y="244"/>
      <point x="241" y="244" type="curve" smooth="yes"/>
      <point x="119" y="244" type="line"/>
      <point x="119" y="355"/>
      <point x="170" y="479"/>
      <point x="280" y="479" type="curve"/>
      <point x="389" y="530" type="line"/>
      <point x="314" y="530" type="line" smooth="yes"/>
      <point x="95" y="530"/>
      <point x="20" y="397"/>
      <point x="20" y="219" type="curve" smooth="yes"/>
      <point x="20" y="189" type="line"/>
      <point x="171" y="189" type="line" smooth="yes"/>
      <point x="208" y="189"/>
      <point x="221" y="170"/>
      <point x="221" y="124" type="curve" smooth="yes"/>
      <point x="221" y="84" type="line" smooth="yes"/>
      <point x="221" y="43"/>
      <point x="227" y="16"/>
    </contour>
    <contour>
      <point x="224" y="494" type="line"/>
      <point x="315" y="494" type="line"/>
      <point x="315" y="731" type="line"/>
      <point x="224" y="731" type="line"/>
    </contour>
    <component base="bonemiddle" xOffset="22"/>
    <component base="ballsmall" xOffset="236" yOffset="114"/>
  </outline>
</glyph>
<glyph name="nywa-ethiopic" format="2">
  <advance width="567"/>
  <unicode hex="129F"/>
  <note>
uni129F
</note>
  <anchor x="293" y="826" name="top"/>
  <outline>
    <contour>
      <point x="273" y="2" type="curve"/>
      <point x="393" y="11" type="line"/>
      <point x="393" y="50" type="line"/>
      <point x="366" y="50"/>
      <point x="351" y="63"/>
      <point x="351" y="117" type="curve" smooth="yes"/>
      <point x="351" y="148" type="line" smooth="yes"/>
      <point x="351" y="232"/>
      <point x="300" y="271"/>
      <point x="214" y="271" type="curve" smooth="yes"/>
      <point x="148" y="271" type="line"/>
      <point x="150" y="411"/>
      <point x="211" y="511"/>
      <point x="311" y="511" type="curve" smooth="yes"/>
      <point x="326" y="511" type="line"/>
      <point x="325" y="503"/>
      <point x="325" y="500"/>
      <point x="325" y="495" type="curve" smooth="yes"/>
      <point x="325" y="455"/>
      <point x="351" y="419"/>
      <point x="395" y="419" type="curve" smooth="yes"/>
      <point x="413" y="419"/>
      <point x="426" y="425"/>
      <point x="435" y="430" type="curve"/>
      <point x="423" y="450"/>
      <point x="417" y="483"/>
      <point x="417" y="517" type="curve" smooth="yes"/>
      <point x="417" y="535"/>
      <point x="419" y="549"/>
      <point x="422" y="561" type="curve"/>
      <point x="307" y="561" type="line" smooth="yes"/>
      <point x="136" y="561"/>
      <point x="47" y="435"/>
      <point x="47" y="250" type="curve" smooth="yes"/>
      <point x="47" y="224" type="line"/>
      <point x="161" y="224" type="line" smooth="yes"/>
      <point x="226" y="224"/>
      <point x="252" y="196"/>
      <point x="252" y="129" type="curve" smooth="yes"/>
      <point x="252" y="80" type="line" smooth="yes"/>
      <point x="252" y="42"/>
      <point x="260" y="19"/>
    </contour>
    <contour>
      <point x="221" y="526" type="line"/>
      <point x="312" y="535" type="line"/>
      <point x="312" y="734" type="line"/>
      <point x="221" y="734" type="line"/>
    </contour>
    <component base="bonemiddle" xOffset="20"/>
    <component base="footmiddle" xOffset="25"/>
  </outline>
</glyph>
<glyph name="aGlottal-ethiopic" format="2">
  <advance width="482"/>
  <unicode hex="12A0"/>
  <note>
uni12A0
</note>
  <anchor x="242" y="718" name="top"/>
  <outline>
    <contour>
      <point x="80" y="-5" type="curve"/>
      <point x="202" y="4" type="line"/>
      <point x="202" y="42" type="line"/>
      <point x="181" y="42"/>
      <point x="165" y="53"/>
      <point x="165" y="88" type="curve" smooth="yes"/>
      <point x="165" y="109"/>
      <point x="170" y="133"/>
      <point x="184" y="183" type="curve" smooth="yes"/>
      <point x="226" y="328" type="line" smooth="yes"/>
      <point x="247" y="399"/>
      <point x="257" y="436"/>
      <point x="257" y="466" type="curve" smooth="yes"/>
      <point x="257" y="509"/>
      <point x="232" y="536"/>
      <point x="194" y="536" type="curve" smooth="yes"/>
      <point x="163" y="536" type="line"/>
      <point x="163" y="633" type="line" smooth="yes"/>
      <point x="163" y="671"/>
      <point x="159" y="697"/>
      <point x="146" y="718" type="curve"/>
      <point x="22" y="709" type="line"/>
      <point x="22" y="667" type="line"/>
      <point x="58" y="667"/>
      <point x="66" y="647"/>
      <point x="66" y="593" type="curve" smooth="yes"/>
      <point x="66" y="479" type="line"/>
      <point x="113" y="479" type="line" smooth="yes"/>
      <point x="144" y="479"/>
      <point x="156" y="469"/>
      <point x="156" y="442" type="curve" smooth="yes"/>
      <point x="156" y="413"/>
      <point x="145" y="380"/>
      <point x="134" y="344" type="curve" smooth="yes"/>
      <point x="90" y="198" type="line" smooth="yes"/>
      <point x="73" y="143"/>
      <point x="65" y="104"/>
      <point x="65" y="66" type="curve" smooth="yes"/>
      <point x="65" y="36"/>
      <point x="70" y="17"/>
    </contour>
    <contour>
      <point x="345" y="-5" type="curve"/>
      <point x="463" y="4" type="line"/>
      <point x="463" y="42" type="line"/>
      <point x="431" y="42"/>
      <point x="418" y="61"/>
      <point x="410" y="129" type="curve" smooth="yes"/>
      <point x="392" y="283"/>
      <point x="369" y="348"/>
      <point x="236" y="378" type="curve"/>
      <point x="221" y="330" type="line"/>
      <point x="293" y="305"/>
      <point x="299" y="237"/>
      <point x="316" y="95" type="curve" smooth="yes"/>
      <point x="322" y="47"/>
      <point x="330" y="18"/>
    </contour>
  </outline>
</glyph>
<glyph name="iGlottal-ethiopic" format="2">
  <advance width="619"/>
  <unicode hex="12A2"/>
  <note>
uni12A2
</note>
  <anchor x="311" y="718" name="top"/>
  <outline>
    <contour>
      <point x="79" y="-5" type="curve"/>
      <point x="199" y="4" type="line"/>
      <point x="199" y="42" type="line"/>
      <point x="178" y="42"/>
      <point x="162" y="53"/>
      <point x="162" y="88" type="curve" smooth="yes"/>
      <point x="162" y="109"/>
      <point x="167" y="133"/>
      <point x="181" y="183" type="curve" smooth="yes"/>
      <point x="223" y="328" type="line" smooth="yes"/>
      <point x="244" y="399"/>
      <point x="254" y="436"/>
      <point x="254" y="466" type="curve" smooth="yes"/>
      <point x="254" y="509"/>
      <point x="229" y="536"/>
      <point x="191" y="536" type="curve" smooth="yes"/>
      <point x="160" y="536" type="line"/>
      <point x="160" y="633" type="line" smooth="yes"/>
      <point x="160" y="671"/>
      <point x="156" y="697"/>
      <point x="143" y="718" type="curve"/>
      <point x="19" y="709" type="line"/>
      <point x="19" y="667" type="line"/>
      <point x="55" y="667"/>
      <point x="63" y="647"/>
      <point x="63" y="593" type="curve" smooth="yes"/>
      <point x="63" y="479" type="line"/>
      <point x="112" y="479" type="line" smooth="yes"/>
      <point x="143" y="479"/>
      <point x="155" y="469"/>
      <point x="155" y="442" type="curve" smooth="yes"/>
      <point x="155" y="413"/>
      <point x="143" y="380"/>
      <point x="132" y="344" type="curve" smooth="yes"/>
      <point x="89" y="199" type="line" smooth="yes"/>
      <point x="73" y="144"/>
      <point x="63" y="104"/>
      <point x="63" y="66" type="curve" smooth="yes"/>
      <point x="63" y="36"/>
      <point x="69" y="17"/>
    </contour>
    <contour>
      <point x="341" y="0" type="curve"/>
      <point x="457" y="0" type="line"/>
      <point x="457" y="50" type="line"/>
      <point x="426" y="50"/>
      <point x="411" y="66"/>
      <point x="404" y="129" type="curve" smooth="yes"/>
      <point x="387" y="283"/>
      <point x="362" y="348"/>
      <point x="233" y="378" type="curve"/>
      <point x="218" y="330" type="line"/>
      <point x="290" y="305"/>
      <point x="296" y="235"/>
      <point x="313" y="93" type="curve" smooth="yes"/>
      <point x="319" y="45"/>
      <point x="328" y="22"/>
    </contour>
    <component base="rightdoubleflag" xOffset="381"/>
  </outline>
</glyph>
<glyph name="aaGlottal-ethiopic" format="2">
  <advance width="480"/>
  <unicode hex="12A3"/>
  <note>
uni12A3
</note>
  <anchor x="241" y="718" name="top"/>
  <outline>
    <contour>
      <point x="91" y="135" type="curve"/>
      <point x="216" y="144" type="line"/>
      <point x="216" y="182" type="line"/>
      <point x="195" y="182"/>
      <point x="180" y="193"/>
      <point x="180" y="218" type="curve" smooth="yes"/>
      <point x="180" y="239"/>
      <point x="189" y="259"/>
      <point x="213" y="318" type="curve" smooth="yes"/>
      <point x="244" y="394"/>
      <point x="264" y="430"/>
      <point x="264" y="468" type="curve" smooth="yes"/>
      <point x="264" y="512"/>
      <point x="230" y="536"/>
      <point x="188" y="536" type="curve" smooth="yes"/>
      <point x="163" y="536" type="line"/>
      <point x="163" y="633" type="line" smooth="yes"/>
      <point x="163" y="671"/>
      <point x="159" y="697"/>
      <point x="146" y="718" type="curve"/>
      <point x="22" y="709" type="line"/>
      <point x="22" y="667" type="line"/>
      <point x="58" y="667"/>
      <point x="66" y="647"/>
      <point x="66" y="593" type="curve" smooth="yes"/>
      <point x="66" y="479" type="line"/>
      <point x="113" y="479" type="line" smooth="yes"/>
      <point x="145" y="479"/>
      <point x="158" y="470"/>
      <point x="158" y="447" type="curve" smooth="yes"/>
      <point x="158" y="424"/>
      <point x="146" y="395"/>
      <point x="121" y="337" type="curve" smooth="yes"/>
      <point x="93" y="271"/>
      <point x="79" y="234"/>
      <point x="79" y="202" type="curve" smooth="yes"/>
      <point x="79" y="175"/>
      <point x="83" y="157"/>
    </contour>
    <contour>
      <point x="343" y="-5" type="curve"/>
      <point x="461" y="4" type="line"/>
      <point x="461" y="42" type="line"/>
      <point x="430" y="42"/>
      <point x="416" y="61"/>
      <point x="408" y="129" type="curve" smooth="yes"/>
      <point x="390" y="283"/>
      <point x="369" y="348"/>
      <point x="227" y="378" type="curve"/>
      <point x="207" y="333" type="line"/>
      <point x="292" y="305"/>
      <point x="298" y="235"/>
      <point x="315" y="93" type="curve" smooth="yes"/>
      <point x="321" y="45"/>
      <point x="328" y="18"/>
    </contour>
  </outline>
</glyph>
<glyph name="eeGlottal-ethiopic" format="2">
  <advance width="623"/>
  <unicode hex="12A4"/>
  <note>
uni12A4
</note>
  <anchor x="313" y="718" name="top"/>
  <outline>
    <contour>
      <point x="79" y="-5" type="curve"/>
      <point x="199" y="4" type="line"/>
      <point x="199" y="42" type="line"/>
      <point x="178" y="42"/>
      <point x="162" y="53"/>
      <point x="162" y="88" type="curve" smooth="yes"/>
      <point x="162" y="109"/>
      <point x="167" y="133"/>
      <point x="181" y="183" type="curve" smooth="yes"/>
      <point x="221" y="329" type="line"/>
      <point x="291" y="304"/>
      <point x="298" y="239"/>
      <point x="312" y="107" type="curve" smooth="yes"/>
      <point x="318" y="49"/>
      <point x="334" y="16"/>
      <point x="354" y="0" type="curve"/>
      <point x="482" y="0" type="line" smooth="yes"/>
      <point x="564" y="0"/>
      <point x="608" y="57"/>
      <point x="608" y="126" type="curve" smooth="yes"/>
      <point x="608" y="191"/>
      <point x="571" y="222"/>
      <point x="495" y="222" type="curve" smooth="yes"/>
      <point x="391" y="222" type="line"/>
      <point x="370" y="310"/>
      <point x="331" y="354"/>
      <point x="238" y="377" type="curve"/>
      <point x="249" y="418"/>
      <point x="254" y="444"/>
      <point x="254" y="466" type="curve" smooth="yes"/>
      <point x="254" y="509"/>
      <point x="229" y="536"/>
      <point x="191" y="536" type="curve" smooth="yes"/>
      <point x="160" y="536" type="line"/>
      <point x="160" y="633" type="line" smooth="yes"/>
      <point x="160" y="671"/>
      <point x="156" y="697"/>
      <point x="143" y="718" type="curve"/>
      <point x="19" y="709" type="line"/>
      <point x="19" y="667" type="line"/>
      <point x="55" y="667"/>
      <point x="63" y="647"/>
      <point x="63" y="593" type="curve" smooth="yes"/>
      <point x="63" y="479" type="line"/>
      <point x="112" y="479" type="line" smooth="yes"/>
      <point x="143" y="479"/>
      <point x="155" y="469"/>
      <point x="155" y="442" type="curve" smooth="yes"/>
      <point x="155" y="413"/>
      <point x="143" y="380"/>
      <point x="132" y="344" type="curve" smooth="yes"/>
      <point x="89" y="199" type="line" smooth="yes"/>
      <point x="73" y="144"/>
      <point x="63" y="104"/>
      <point x="63" y="66" type="curve" smooth="yes"/>
      <point x="63" y="36"/>
      <point x="69" y="17"/>
    </contour>
    <contour>
      <point x="460" y="37" type="curve" smooth="yes"/>
      <point x="427" y="37"/>
      <point x="412" y="61"/>
      <point x="406" y="113" type="curve" smooth="yes"/>
      <point x="402" y="149"/>
      <point x="400" y="167"/>
      <point x="396" y="184" type="curve"/>
      <point x="461" y="184" type="line" smooth="yes"/>
      <point x="499" y="184"/>
      <point x="516" y="166"/>
      <point x="516" y="122" type="curve" smooth="yes"/>
      <point x="516" y="66"/>
      <point x="497" y="37"/>
    </contour>
  </outline>
</glyph>
<glyph name="eGlottal-ethiopic" format="2">
  <advance width="460"/>
  <unicode hex="12A5"/>
  <note>
uni12A5
</note>
  <anchor x="206" y="718" name="top"/>
  <outline>
    <contour>
      <point x="65" y="-5" type="curve"/>
      <point x="185" y="4" type="line"/>
      <point x="185" y="42" type="line"/>
      <point x="164" y="42"/>
      <point x="145" y="54"/>
      <point x="145" y="93" type="curve" smooth="yes"/>
      <point x="145" y="114"/>
      <point x="149" y="142"/>
      <point x="162" y="184" type="curve" smooth="yes"/>
      <point x="207" y="329" type="line"/>
      <point x="276" y="304"/>
      <point x="281" y="235"/>
      <point x="297" y="93" type="curve" smooth="yes"/>
      <point x="302" y="45"/>
      <point x="310" y="18"/>
      <point x="326" y="-5" type="curve"/>
      <point x="441" y="4" type="line"/>
      <point x="441" y="42" type="line"/>
      <point x="410" y="42"/>
      <point x="396" y="61"/>
      <point x="388" y="129" type="curve" smooth="yes"/>
      <point x="370" y="281"/>
      <point x="348" y="346"/>
      <point x="225" y="377" type="curve"/>
      <point x="256" y="474" type="line"/>
      <point x="256" y="508" type="line"/>
      <point x="183" y="508" type="line"/>
      <point x="205" y="577" type="line"/>
      <point x="205" y="608" type="line"/>
      <point x="140" y="608" type="line"/>
      <point x="152" y="646" type="line" smooth="yes"/>
      <point x="161" y="674"/>
      <point x="158" y="706"/>
      <point x="147" y="718" type="curve"/>
      <point x="27" y="709" type="line"/>
      <point x="27" y="667" type="line"/>
      <point x="61" y="667"/>
      <point x="75" y="646"/>
      <point x="62" y="606" type="curve" smooth="yes"/>
      <point x="46" y="555" type="line"/>
      <point x="115" y="555" type="line"/>
      <point x="82" y="454" type="line"/>
      <point x="152" y="454" type="line"/>
      <point x="71" y="202" type="line" smooth="yes"/>
      <point x="57" y="158"/>
      <point x="47" y="112"/>
      <point x="47" y="74" type="curve" smooth="yes"/>
      <point x="47" y="44"/>
      <point x="54" y="17"/>
    </contour>
  </outline>
</glyph>
<glyph name="oGlottal-ethiopic" format="2">
  <advance width="485"/>
  <unicode hex="12A6"/>
  <note>
uni12A6
</note>
  <anchor x="248" y="718" name="top"/>
  <outline>
    <contour>
      <point x="88" y="-5" type="curve"/>
      <point x="208" y="4" type="line"/>
      <point x="208" y="42" type="line"/>
      <point x="187" y="42"/>
      <point x="171" y="53"/>
      <point x="171" y="88" type="curve" smooth="yes"/>
      <point x="171" y="109"/>
      <point x="176" y="133"/>
      <point x="190" y="183" type="curve" smooth="yes"/>
      <point x="232" y="328" type="line" smooth="yes"/>
      <point x="253" y="399"/>
      <point x="263" y="436"/>
      <point x="263" y="466" type="curve" smooth="yes"/>
      <point x="263" y="509"/>
      <point x="238" y="536"/>
      <point x="200" y="536" type="curve" smooth="yes"/>
      <point x="169" y="536" type="line"/>
      <point x="169" y="633" type="line" smooth="yes"/>
      <point x="169" y="671"/>
      <point x="165" y="697"/>
      <point x="152" y="718" type="curve"/>
      <point x="28" y="709" type="line"/>
      <point x="28" y="667" type="line"/>
      <point x="64" y="667"/>
      <point x="72" y="647"/>
      <point x="72" y="593" type="curve" smooth="yes"/>
      <point x="72" y="479" type="line"/>
      <point x="121" y="479" type="line" smooth="yes"/>
      <point x="152" y="479"/>
      <point x="164" y="469"/>
      <point x="164" y="442" type="curve" smooth="yes"/>
      <point x="164" y="413"/>
      <point x="153" y="380"/>
      <point x="142" y="344" type="curve" smooth="yes"/>
      <point x="98" y="199" type="line" smooth="yes"/>
      <point x="81" y="143"/>
      <point x="72" y="104"/>
      <point x="72" y="66" type="curve" smooth="yes"/>
      <point x="72" y="36"/>
      <point x="77" y="17"/>
    </contour>
    <contour>
      <point x="352" y="135" type="curve"/>
      <point x="469" y="144" type="line"/>
      <point x="469" y="182" type="line"/>
      <point x="439" y="182"/>
      <point x="430" y="199"/>
      <point x="423" y="232" type="curve" smooth="yes"/>
      <point x="405" y="318"/>
      <point x="363" y="369"/>
      <point x="242" y="378" type="curve"/>
      <point x="227" y="330" type="line"/>
      <point x="300" y="317"/>
      <point x="318" y="279"/>
      <point x="330" y="199" type="curve" smooth="yes"/>
      <point x="334" y="175"/>
      <point x="340" y="150"/>
    </contour>
  </outline>
</glyph>
<glyph name="waGlottal-ethiopic" format="2">
  <advance width="586"/>
  <unicode hex="12A7"/>
  <note>
uni12A7
</note>
  <anchor x="291" y="784" name="top"/>
  <outline>
    <contour>
      <point x="186" y="-5" type="curve"/>
      <point x="306" y="4" type="line"/>
      <point x="306" y="42" type="line"/>
      <point x="285" y="42"/>
      <point x="269" y="53"/>
      <point x="269" y="88" type="curve" smooth="yes"/>
      <point x="269" y="109"/>
      <point x="274" y="133"/>
      <point x="288" y="183" type="curve" smooth="yes"/>
      <point x="330" y="328" type="line" smooth="yes"/>
      <point x="351" y="399"/>
      <point x="361" y="436"/>
      <point x="361" y="466" type="curve" smooth="yes"/>
      <point x="361" y="509"/>
      <point x="336" y="536"/>
      <point x="298" y="536" type="curve" smooth="yes"/>
      <point x="267" y="536" type="line"/>
      <point x="267" y="695" type="line"/>
      <point x="170" y="695" type="line"/>
      <point x="170" y="479" type="line"/>
      <point x="219" y="479" type="line" smooth="yes"/>
      <point x="250" y="479"/>
      <point x="262" y="469"/>
      <point x="262" y="442" type="curve" smooth="yes"/>
      <point x="262" y="413"/>
      <point x="251" y="380"/>
      <point x="240" y="344" type="curve" smooth="yes"/>
      <point x="196" y="199" type="line" smooth="yes"/>
      <point x="179" y="143"/>
      <point x="170" y="104"/>
      <point x="170" y="66" type="curve" smooth="yes"/>
      <point x="170" y="36"/>
      <point x="176" y="17"/>
    </contour>
    <contour>
      <point x="449" y="-5" type="curve"/>
      <point x="567" y="4" type="line"/>
      <point x="567" y="42" type="line"/>
      <point x="536" y="42"/>
      <point x="523" y="61"/>
      <point x="515" y="129" type="curve" smooth="yes"/>
      <point x="497" y="283"/>
      <point x="469" y="348"/>
      <point x="340" y="378" type="curve"/>
      <point x="326" y="330" type="line"/>
      <point x="397" y="305"/>
      <point x="405" y="235"/>
      <point x="421" y="93" type="curve" smooth="yes"/>
      <point x="426" y="45"/>
      <point x="434" y="18"/>
    </contour>
    <component base="bone" xOffset="1" yOffset="-46"/>
  </outline>
</glyph>
<glyph name="ki-ethiopic" format="2">
  <advance width="686"/>
  <unicode hex="12AA"/>
  <note>
uni12AA
</note>
  <anchor x="352" y="768" name="top"/>
  <outline>
    <contour>
      <point x="626" y="-67" type="curve" smooth="yes"/>
      <point x="645" y="-67"/>
      <point x="662" y="-59"/>
      <point x="671" y="-51" type="curve"/>
      <point x="657" y="-36"/>
      <point x="645" y="-13"/>
      <point x="645" y="23" type="curve" smooth="yes"/>
      <point x="645" y="57"/>
      <point x="654" y="80"/>
      <point x="671" y="101" type="curve"/>
      <point x="662" y="108"/>
      <point x="645" y="115"/>
      <point x="626" y="115" type="curve" smooth="yes"/>
      <point x="580" y="115"/>
      <point x="558" y="84"/>
      <point x="552" y="50" type="curve"/>
      <point x="546" y="50" type="line" smooth="yes"/>
      <point x="513" y="50"/>
      <point x="499" y="64"/>
      <point x="499" y="123" type="curve" smooth="yes"/>
      <point x="499" y="199"/>
      <point x="501" y="323"/>
      <point x="501" y="386" type="curve" smooth="yes"/>
      <point x="501" y="536"/>
      <point x="462" y="613"/>
      <point x="343" y="613" type="curve" smooth="yes"/>
      <point x="209" y="613"/>
      <point x="121" y="515"/>
      <point x="121" y="324" type="curve" smooth="yes"/>
      <point x="121" y="93" type="line" smooth="yes"/>
      <point x="121" y="51"/>
      <point x="126" y="15"/>
      <point x="139" y="-5" type="curve"/>
      <point x="268" y="4" type="line"/>
      <point x="268" y="46" type="line"/>
      <point x="235" y="46"/>
      <point x="221" y="60"/>
      <point x="221" y="119" type="curve" smooth="yes"/>
      <point x="221" y="299" type="line" smooth="yes"/>
      <point x="221" y="491"/>
      <point x="262" y="565"/>
      <point x="329" y="565" type="curve" smooth="yes"/>
      <point x="381" y="565"/>
      <point x="400" y="508"/>
      <point x="400" y="393" type="curve" smooth="yes"/>
      <point x="400" y="297"/>
      <point x="398" y="190"/>
      <point x="398" y="98" type="curve" smooth="yes"/>
      <point x="398" y="50"/>
      <point x="403" y="20"/>
      <point x="417" y="0" type="curve"/>
      <point x="552" y="0" type="line"/>
      <point x="559" y="-36"/>
      <point x="580" y="-67"/>
    </contour>
    <contour>
      <point x="117" y="494" type="curve" smooth="yes"/>
      <point x="145" y="494"/>
      <point x="177" y="501"/>
      <point x="205" y="509" type="curve"/>
      <point x="205" y="551" type="line"/>
      <point x="171" y="551"/>
      <point x="161" y="571"/>
      <point x="161" y="607" type="curve" smooth="yes"/>
      <point x="161" y="689" type="line" smooth="yes"/>
      <point x="161" y="736"/>
      <point x="153" y="754"/>
      <point x="141" y="768" type="curve"/>
      <point x="33" y="760" type="line"/>
      <point x="33" y="718" type="line"/>
      <point x="56" y="718"/>
      <point x="69" y="700"/>
      <point x="69" y="664" type="curve" smooth="yes"/>
      <point x="69" y="558" type="line" smooth="yes"/>
      <point x="69" y="517"/>
      <point x="82" y="494"/>
    </contour>
  </outline>
</glyph>
